<svg width="127" height="25" viewBox="0 0 127 25" fill="none" xmlns="http://www.w3.org/2000/svg">
<path d="M125.331 15.0243C124.443 14.505 123.421 14.4681 122.447 14.6155C123.01 13.6841 122.527 12.2332 121.718 11.6569C120.907 11.0772 119.917 11.1342 118.991 11.2381C119.653 10.1625 119.685 8.54076 119.066 7.42499C118.444 6.30921 117.219 5.79321 116.187 6.21204C117.041 4.33566 116.272 1.72548 114.781 0.656618C113.289 -0.415599 111.338 -0.100636 109.892 1.0654C108.446 2.22809 107.451 4.12122 106.794 6.11487L108.859 18.7268C114.668 18.7469 120.477 18.7603 126.284 18.7771C126.449 18.7804 126.628 18.7771 126.764 18.6598C126.961 18.4923 127.007 18.1505 126.999 17.8489C126.951 16.6192 126.222 15.5437 125.331 15.0243ZM21.4261 8.96295C21.7623 11.8043 21.8664 14.6893 21.7383 17.5574C14.8993 19.2093 8.14844 21.4275 1.54431 24.1918L1.61635 23.8802C0.86388 24.0745 0.0500362 23.2904 0.00200643 22.3288C-0.0433558 21.3638 0.687769 20.4625 1.45358 20.5395C0.402257 19.4405 0.842533 17.085 2.00593 16.187C3.16932 15.2924 4.68494 15.5437 5.9524 16.1837C5.66422 14.6558 5.71225 12.9469 6.41669 11.6569C7.1238 10.3635 8.61273 9.69675 9.68807 10.4909C9.54131 7.66959 10.8808 4.84497 12.8847 3.55495C14.886 2.26829 17.4369 2.5263 19.3048 4.10447C19.8091 4.53 20.2707 5.05271 20.6042 5.69269C21.1086 6.65433 21.2927 7.82372 21.4261 8.96295Z" fill="#286053"/>
</svg>
