<svg width="103" height="68" viewBox="0 0 103 68" fill="none" xmlns="http://www.w3.org/2000/svg">
<mask id="mask0_2_6162" style="mask-type:luminance" maskUnits="userSpaceOnUse" x="-1" y="-1" width="104" height="70">
<path d="M-0.260941 -0.0892097H102.945V68.2089H-0.260941V-0.0892097Z" fill="white"/>
</mask>
<g mask="url(#mask0_2_6162)">
<path d="M62.0462 45.6776C62.0728 45.7247 62.1097 45.7595 62.1567 45.7861C62.2017 45.8208 62.2529 45.8434 62.3082 45.8536C62.3716 45.87 62.4309 45.872 62.4944 45.8618C62.5599 45.8597 62.6213 45.8434 62.6806 45.8168C62.7154 45.7963 62.7502 45.7738 62.785 45.7554C62.8464 45.7103 62.8934 45.6551 62.9262 45.5855C62.9364 45.5528 62.9467 45.52 62.9548 45.4893C62.9651 45.4177 62.9507 45.3522 62.916 45.2908C62.9016 45.2744 62.8893 45.256 62.875 45.2397C62.8484 45.1926 62.8116 45.1558 62.7645 45.1312C62.7195 45.0964 62.6704 45.0739 62.611 45.0637C62.5517 45.0452 62.4882 45.0432 62.4269 45.0555C62.3634 45.0575 62.3 45.0719 62.2406 45.1005C62.2058 45.121 62.171 45.1414 62.1363 45.1619C62.0749 45.2069 62.0278 45.2622 61.993 45.3297C61.9848 45.3624 61.9746 45.3952 61.9644 45.4279C61.9562 45.4996 61.9705 45.565 62.0053 45.6244C62.0196 45.6428 62.0339 45.6592 62.0462 45.6776ZM41.0435 51.3115C41.0415 51.3094 41.0415 51.3074 41.0394 51.3074C41.0149 51.2849 40.9903 51.2664 40.9637 51.2501C40.931 51.2296 40.8941 51.2194 40.8573 51.2112C40.7857 51.1907 40.6793 51.1907 40.6056 51.2071C40.5606 51.2153 40.5135 51.2255 40.4705 51.2439C40.3539 51.2931 40.3436 51.2992 40.2454 51.3749C40.2147 51.3974 40.1717 51.4506 40.1615 51.4629C40.137 51.4916 40.1165 51.5345 40.1022 51.5611C40.1001 51.5673 40.0981 51.5714 40.0981 51.5755C40.0899 51.6062 40.0817 51.6389 40.0756 51.6716C40.0756 51.6757 40.0756 51.6798 40.0756 51.6839C40.0756 51.686 40.0756 51.6901 40.0756 51.6942C40.0756 51.6962 40.0756 51.6982 40.0776 51.7003C40.0797 51.7269 40.0858 51.7596 40.0899 51.7883C40.0919 51.7944 40.094 51.8026 40.096 51.8108C40.0981 51.8128 40.1001 51.8169 40.1001 51.819C40.1165 51.8476 40.1349 51.8742 40.1513 51.9008C40.1554 51.907 40.1595 51.9131 40.1636 51.9172C40.1677 51.9213 40.1697 51.9234 40.1738 51.9254C40.1983 51.9479 40.225 51.9663 40.2536 51.9868C40.2597 51.9909 40.2659 51.9929 40.272 51.997C40.3048 52.0114 40.3396 52.0236 40.3743 52.0339C40.3784 52.0359 40.3805 52.0359 40.3846 52.0359C40.4235 52.0441 40.4644 52.0482 40.5033 52.0502C40.5074 52.0502 40.5094 52.0502 40.5135 52.0502C40.5974 52.0523 40.6793 52.038 40.757 52.0073C40.8184 51.9888 40.8737 51.9581 40.9228 51.9193C40.9699 51.8886 41.0128 51.8497 41.0456 51.8047C41.0865 51.7515 41.109 51.6942 41.1131 51.6307C41.1131 51.6225 41.1131 51.6143 41.1131 51.6082C41.1111 51.5836 41.107 51.5611 41.1029 51.5386C41.107 51.5243 41.1111 51.512 41.1131 51.4977C41.1029 51.4138 41.1008 51.379 41.0435 51.3115ZM53.8829 45.5364C53.8829 45.5405 53.885 45.5446 53.885 45.5487C53.8891 45.565 53.8952 45.5794 53.9034 45.5937C53.9198 45.6183 53.9361 45.6469 53.9505 45.6715C53.9525 45.6735 53.9525 45.6735 53.9546 45.6756C53.9566 45.6796 53.9587 45.6817 53.9607 45.6858C53.9628 45.6878 53.9668 45.6899 53.9689 45.6919C53.9689 45.694 53.9709 45.694 53.973 45.696C53.973 45.696 53.973 45.696 53.973 45.6981C53.9914 45.7103 54.0303 45.739 54.0467 45.7533C54.0507 45.7533 54.0528 45.7554 54.0548 45.7574C54.0569 45.7595 54.0589 45.7595 54.0589 45.7595C54.061 45.7595 54.061 45.7595 54.061 45.7615C54.0774 45.7676 54.1387 45.7902 54.1572 45.7963C54.1592 45.7963 54.1613 45.7983 54.1653 45.7983C54.1653 45.7983 54.1653 45.7983 54.1674 45.7983C54.1797 45.8004 54.2636 45.8106 54.2759 45.8127C54.2779 45.8127 54.2799 45.8127 54.282 45.8127C54.284 45.8127 54.284 45.8127 54.2861 45.8127C54.3066 45.8106 54.327 45.8086 54.3454 45.8065C54.3659 45.8065 54.3864 45.8045 54.4068 45.8024H54.4089H54.4109C54.415 45.8004 54.5337 45.7676 54.5358 45.7676C54.5358 45.7676 54.5378 45.7676 54.5398 45.7676C54.5398 45.7656 54.5419 45.7656 54.5419 45.7656C54.5521 45.7615 54.5787 45.7492 54.5992 45.739C54.6176 45.7308 54.6504 45.7165 54.6606 45.7103C54.679 45.7001 54.7015 45.6817 54.7138 45.6735C54.724 45.6653 54.7527 45.6489 54.767 45.6326C54.7691 45.6326 54.7691 45.6326 54.7691 45.6326C54.7772 45.6244 54.8366 45.5589 54.8427 45.5507C54.8448 45.5507 54.8448 45.5507 54.8448 45.5487C54.8468 45.5466 54.8489 45.5446 54.8489 45.5425C54.8509 45.5425 54.8509 45.5405 54.8509 45.5405C54.853 45.5384 54.853 45.5384 54.853 45.5384C54.8673 45.5139 54.8898 45.475 54.9021 45.4504C54.9041 45.4463 54.9062 45.4402 54.9082 45.4361C54.9103 45.432 54.9103 45.43 54.9103 45.4279C54.9123 45.4259 54.9123 45.4259 54.9123 45.4238C54.9184 45.3931 54.9266 45.3624 54.9328 45.3317C54.9348 45.3215 54.9348 45.3092 54.9328 45.299C54.9307 45.2704 54.9246 45.2397 54.9205 45.211C54.9205 45.209 54.9205 45.2069 54.9184 45.2069C54.9184 45.2028 54.9184 45.2008 54.9164 45.1987C54.9164 45.1967 54.9164 45.1926 54.9143 45.1905C54.9143 45.1885 54.9143 45.1885 54.9123 45.1865V45.1844C54.9041 45.1701 54.8755 45.1251 54.8673 45.1107C54.8652 45.1087 54.8632 45.1066 54.8611 45.1046C54.8611 45.1046 54.8591 45.1046 54.8591 45.1025C54.8489 45.0944 54.7957 45.0534 54.7854 45.0473C54.7834 45.0452 54.7813 45.0452 54.7793 45.0432C54.7752 45.0412 54.6892 45.0105 54.6851 45.0084H54.6831C54.6811 45.0084 54.6811 45.0064 54.679 45.0064C54.6278 44.9941 54.5787 44.992 54.5276 44.9982C54.5153 44.9961 54.4907 44.992 54.4744 44.992C54.4334 44.992 54.3905 44.9961 54.3475 45.0023C54.282 45.0125 54.2226 45.033 54.1653 45.0637C54.108 45.0862 54.0569 45.1189 54.0098 45.1598C53.9853 45.1865 53.9607 45.2131 53.9361 45.2397C53.8952 45.2908 53.8727 45.3502 53.8666 45.4136C53.8666 45.4238 53.8666 45.432 53.8686 45.4402C53.8727 45.473 53.8768 45.5037 53.8829 45.5364ZM51.9388 45.5364C51.9388 45.5405 51.9409 45.5446 51.9409 45.5487C51.945 45.565 51.9511 45.5794 51.9593 45.5937C51.9756 45.6183 51.992 45.6469 52.0063 45.6715C52.0084 45.6735 52.0084 45.6735 52.0104 45.6756C52.0125 45.6796 52.0145 45.6817 52.0166 45.6858C52.0207 45.6878 52.0227 45.6899 52.0248 45.6919C52.0268 45.694 52.0268 45.694 52.0289 45.696C52.0289 45.696 52.0289 45.696 52.0309 45.6981C52.0473 45.7103 52.0862 45.739 52.1046 45.7533C52.1066 45.7533 52.1087 45.7554 52.1128 45.7574C52.1128 45.7595 52.1148 45.7595 52.1169 45.7595C52.1169 45.7595 52.1169 45.7595 52.1189 45.7615C52.1353 45.7676 52.1946 45.7902 52.213 45.7963C52.2151 45.7963 52.2171 45.7983 52.2212 45.7983H52.2233C52.2355 45.8004 52.3195 45.8106 52.3317 45.8127C52.3338 45.8127 52.3358 45.8127 52.3379 45.8127C52.3399 45.8127 52.3399 45.8127 52.342 45.8127C52.3624 45.8106 52.3808 45.8086 52.4034 45.8065C52.4238 45.8065 52.4422 45.8045 52.4627 45.8024H52.4647H52.4668C52.4709 45.8004 52.5896 45.7676 52.5916 45.7676C52.5937 45.7676 52.5937 45.7676 52.5937 45.7676C52.5957 45.7656 52.5957 45.7656 52.5978 45.7656C52.606 45.7615 52.6346 45.7492 52.6551 45.739C52.6735 45.7308 52.7062 45.7165 52.7144 45.7103C52.7349 45.7001 52.7574 45.6817 52.7697 45.6735C52.7799 45.6653 52.8086 45.6489 52.8229 45.6326C52.8229 45.6326 52.8229 45.6326 52.8249 45.6326C52.8331 45.6244 52.8925 45.5589 52.8986 45.5507C52.9006 45.5507 52.9006 45.5507 52.9027 45.5487C52.9027 45.5466 52.9047 45.5446 52.9068 45.5425V45.5405C52.9088 45.5384 52.9088 45.5384 52.9088 45.5384C52.9232 45.5139 52.9457 45.475 52.9579 45.4504C52.96 45.4463 52.9641 45.4402 52.9641 45.4361C52.9661 45.432 52.9661 45.43 52.9661 45.4279C52.9682 45.4259 52.9682 45.4259 52.9682 45.4238C52.9743 45.3931 52.9825 45.3624 52.9886 45.3317C52.9907 45.3215 52.9907 45.3092 52.9886 45.299C52.9866 45.2704 52.9805 45.2397 52.9764 45.211C52.9764 45.209 52.9764 45.2069 52.9764 45.2069C52.9743 45.2028 52.9743 45.2008 52.9743 45.1987C52.9723 45.1967 52.9723 45.1926 52.9702 45.1905C52.9702 45.1885 52.9702 45.1885 52.9682 45.1865V45.1844C52.96 45.1701 52.9313 45.1251 52.9211 45.1107C52.9191 45.1087 52.9191 45.1066 52.917 45.1046C52.917 45.1046 52.915 45.1046 52.915 45.1025C52.9129 45.1025 52.9129 45.1025 52.9129 45.1025C52.9047 45.0944 52.8515 45.0534 52.8413 45.0473C52.8392 45.0452 52.8372 45.0452 52.8352 45.0432C52.8311 45.0412 52.7451 45.0105 52.741 45.0084H52.739C52.7369 45.0084 52.7369 45.0064 52.7349 45.0064C52.6837 44.9941 52.6346 44.992 52.5855 44.9982C52.5712 44.9961 52.5466 44.992 52.5302 44.992C52.4873 44.992 52.4463 44.9961 52.4034 45.0023C52.3379 45.0125 52.2785 45.033 52.2212 45.0637C52.1639 45.0862 52.1128 45.1189 52.0657 45.1598C52.0411 45.1865 52.0166 45.2131 51.992 45.2397C51.9511 45.2908 51.9286 45.3502 51.9245 45.4136C51.9224 45.4238 51.9224 45.432 51.9245 45.4402C51.9286 45.473 51.9327 45.5037 51.9388 45.5364ZM58.7432 45.5364C58.7432 45.5405 58.7453 45.5446 58.7453 45.5487C58.7494 45.565 58.7555 45.5794 58.7637 45.5937C58.778 45.6183 58.7944 45.6469 58.8128 45.6715C58.8128 45.6735 58.8128 45.6735 58.8149 45.6756C58.8169 45.6796 58.819 45.6817 58.8231 45.6858C58.8251 45.6878 58.8272 45.6899 58.8292 45.6919C58.8312 45.694 58.8312 45.694 58.8333 45.696C58.8333 45.696 58.8333 45.696 58.8353 45.6981C58.8517 45.7103 58.8885 45.739 58.907 45.7533C58.909 45.7533 58.9131 45.7554 58.9172 45.7574C58.9172 45.7595 58.9192 45.7595 58.9213 45.7595C58.9213 45.7595 58.9213 45.7595 58.9233 45.7615C58.9397 45.7676 58.9991 45.7902 59.0154 45.7963C59.0195 45.7963 59.0236 45.7983 59.0257 45.7983H59.0277C59.04 45.8004 59.1239 45.8106 59.1382 45.8127C59.1382 45.8127 59.1403 45.8127 59.1423 45.8127C59.1444 45.8127 59.1464 45.8127 59.1464 45.8127C59.1669 45.8106 59.1873 45.8086 59.2057 45.8065C59.2262 45.8065 59.2467 45.8045 59.2671 45.8024C59.2692 45.8024 59.2692 45.8024 59.2692 45.8024C59.2712 45.8024 59.2712 45.8024 59.2733 45.8024C59.2753 45.8004 59.394 45.7676 59.3961 45.7676C59.3981 45.7676 59.3981 45.7676 59.3981 45.7676C59.4002 45.7656 59.4002 45.7656 59.4022 45.7656C59.4104 45.7615 59.439 45.7492 59.4595 45.739C59.4779 45.7308 59.5107 45.7165 59.5209 45.7103C59.5393 45.7001 59.5618 45.6817 59.5741 45.6735C59.5843 45.6653 59.613 45.6489 59.6273 45.6326H59.6294C59.6355 45.6244 59.6969 45.5589 59.703 45.5507C59.7051 45.5507 59.7051 45.5507 59.7071 45.5487C59.7071 45.5466 59.7092 45.5446 59.7112 45.5425C59.7112 45.5425 59.7112 45.5405 59.7133 45.5405C59.7133 45.5384 59.7133 45.5384 59.7133 45.5384C59.7276 45.5139 59.7501 45.475 59.7624 45.4504C59.7644 45.4463 59.7665 45.4402 59.7706 45.4361C59.7706 45.432 59.7706 45.43 59.7726 45.4279C59.7726 45.4259 59.7726 45.4259 59.7726 45.4238C59.7808 45.3931 59.7869 45.3624 59.7931 45.3317C59.7951 45.3215 59.7951 45.3092 59.7951 45.299C59.791 45.2704 59.7849 45.2397 59.7808 45.211C59.7808 45.209 59.7808 45.2069 59.7808 45.2069C59.7787 45.2028 59.7787 45.2008 59.7787 45.1987C59.7767 45.1967 59.7767 45.1926 59.7747 45.1905C59.7747 45.1885 59.7747 45.1885 59.7726 45.1865V45.1844C59.7624 45.1701 59.7358 45.1251 59.7255 45.1107C59.7255 45.1087 59.7235 45.1066 59.7215 45.1046C59.7215 45.1046 59.7194 45.1046 59.7194 45.1025H59.7174C59.7092 45.0944 59.6539 45.0534 59.6457 45.0473C59.6437 45.0452 59.6416 45.0452 59.6375 45.0432C59.6355 45.0412 59.5475 45.0105 59.5455 45.0084C59.5434 45.0084 59.5434 45.0084 59.5434 45.0084C59.5414 45.0084 59.5393 45.0064 59.5393 45.0064C59.4902 44.9941 59.439 44.992 59.3899 44.9982C59.3756 44.9961 59.3531 44.992 59.3347 44.992C59.2917 44.992 59.2508 44.9961 59.2078 45.0023C59.1444 45.0125 59.083 45.033 59.0257 45.0637C58.9684 45.0862 58.9172 45.1189 58.8701 45.1598C58.8456 45.1865 58.821 45.2131 58.7965 45.2397C58.7555 45.2908 58.733 45.3502 58.7289 45.4136C58.7289 45.4238 58.7289 45.432 58.7289 45.4402C58.733 45.473 58.7371 45.5037 58.7432 45.5364ZM57.1859 45.6776C57.2125 45.7247 57.2493 45.7595 57.2964 45.7861C57.3414 45.8208 57.3905 45.8434 57.4499 45.8536C57.5092 45.87 57.5727 45.872 57.632 45.8618C57.6975 45.8597 57.761 45.8434 57.8203 45.8168C57.8551 45.7963 57.8899 45.7738 57.9247 45.7554C57.9861 45.7103 58.0331 45.6551 58.0679 45.5855C58.0761 45.5528 58.0863 45.52 58.0966 45.4893C58.1048 45.4177 58.0904 45.3522 58.0536 45.2908C58.0413 45.2744 58.027 45.256 58.0147 45.2397C57.9881 45.1926 57.9513 45.1558 57.9042 45.1312C57.8592 45.0964 57.808 45.0739 57.7528 45.0637C57.6914 45.0452 57.6279 45.0432 57.5665 45.0555C57.5031 45.0575 57.4397 45.0719 57.3803 45.1005C57.3455 45.121 57.3107 45.1414 57.2759 45.1619C57.2146 45.2069 57.1675 45.2622 57.1347 45.3297C57.1245 45.3624 57.1143 45.3952 57.1061 45.4279C57.0959 45.4996 57.1102 45.565 57.147 45.6244C57.1593 45.6428 57.1716 45.6592 57.1859 45.6776ZM62.0114 54.0598C62.0339 54.0824 62.0626 54.0987 62.0933 54.1049C62.1424 54.1274 62.1936 54.1376 62.2488 54.1356C62.2529 54.1356 62.257 54.1356 62.259 54.1356C62.302 54.1335 62.347 54.1315 62.388 54.1253C62.4371 54.1151 62.4862 54.1049 62.5312 54.0844C62.5742 54.068 62.6151 54.0476 62.6561 54.0271C62.6601 54.0251 62.6642 54.023 62.6663 54.021C62.7031 53.9964 62.7379 53.9718 62.7727 53.9452C62.7747 53.9432 62.7768 53.9391 62.7809 53.9371C62.8075 53.9105 62.8341 53.8818 62.8607 53.8511C62.8627 53.8491 62.8668 53.845 62.8689 53.8409C62.8893 53.8122 62.9057 53.7774 62.9221 53.7467C62.9241 53.7426 62.9262 53.7386 62.9282 53.7365C62.9282 53.7324 62.9303 53.7283 62.9303 53.7242C62.9405 53.6935 62.9467 53.6587 62.9528 53.626C62.9548 53.6178 62.9548 53.6076 62.9548 53.5994C62.9589 53.5544 62.9467 53.5114 62.92 53.4787C62.8996 53.4357 62.8689 53.407 62.8239 53.3866C62.7788 53.362 62.7297 53.3477 62.6786 53.3456C62.6192 53.3354 62.5619 53.3354 62.5046 53.3477C62.4637 53.36 62.4207 53.3722 62.3798 53.3825C62.3593 53.3907 62.3429 53.4009 62.3225 53.4091C62.3123 53.4111 62.302 53.4132 62.2918 53.4173C62.255 53.4357 62.214 53.4541 62.1772 53.4705C62.1097 53.5094 62.0524 53.5605 62.0053 53.6219C61.9828 53.6526 61.9623 53.6874 61.948 53.7242C61.9439 53.7304 61.9418 53.7386 61.9398 53.7447C61.9316 53.7795 61.9214 53.8163 61.9173 53.8511C61.9173 53.8593 61.9173 53.8675 61.9173 53.8757C61.9214 53.9023 61.9255 53.9309 61.9316 53.9596C61.9459 54.0046 61.9725 54.0373 62.0114 54.0598ZM62.0114 51.9766C62.0339 51.9991 62.0626 52.0134 62.0933 52.0216C62.1424 52.042 62.1936 52.0523 62.2488 52.0502C62.2529 52.0502 62.255 52.0502 62.259 52.0502C62.3 52.0482 62.3429 52.0461 62.3859 52.04C62.433 52.0339 62.4821 52.0195 62.5271 52.0032C62.6213 51.9684 62.699 51.9234 62.7747 51.8599C62.8054 51.8333 62.8341 51.7985 62.8607 51.7678C62.8627 51.7637 62.8668 51.7617 62.8689 51.7576C62.8873 51.7289 62.9119 51.6798 62.9221 51.6635C62.9241 51.6573 62.9282 51.6512 62.9303 51.645C62.9426 51.6082 62.9487 51.5734 62.9548 51.5345C62.9548 51.5284 62.9548 51.5202 62.9548 51.5141C62.9507 51.4834 62.9467 51.4506 62.9405 51.4199C62.9385 51.4179 62.9385 51.4138 62.9364 51.4117C62.9364 51.4097 62.9364 51.4077 62.9344 51.4056C62.92 51.377 62.9037 51.3524 62.8853 51.3258C62.8832 51.3217 62.8791 51.3156 62.875 51.3135C62.8075 51.2521 62.7747 51.2378 62.6868 51.2112C62.6479 51.1989 62.5988 51.1969 62.566 51.1948C62.521 51.1928 62.476 51.1989 62.433 51.2051C62.388 51.2132 62.345 51.2255 62.302 51.2398L62.3 51.2419C62.2979 51.2419 62.2979 51.2419 62.2979 51.2419C62.259 51.2603 62.2202 51.2787 62.1813 51.2971C62.1424 51.3176 62.1035 51.3442 62.0728 51.3749C62.0094 51.4343 61.9766 51.4731 61.9418 51.5529C61.9418 51.555 61.9398 51.5591 61.9398 51.5611C61.9316 51.5918 61.9234 51.6266 61.9193 51.6573C61.9173 51.6819 61.9193 51.7044 61.9255 51.7269C61.9234 51.7351 61.9234 51.7433 61.9214 51.7515C61.9193 51.7515 61.9193 51.7555 61.9193 51.7576C61.9193 51.7596 61.9173 51.7637 61.9173 51.7678C61.9173 51.776 61.9173 51.7842 61.9173 51.7903C61.9214 51.819 61.9255 51.8476 61.9316 51.8763C61.9459 51.9213 61.9725 51.9541 62.0114 51.9766ZM62.0114 58.2285C62.0339 58.251 62.0626 58.2653 62.0933 58.2714C62.1424 58.2939 62.1936 58.3042 62.2488 58.3021C62.2529 58.3021 62.257 58.3021 62.259 58.3021C62.302 58.3001 62.347 58.3001 62.388 58.2919C62.4371 58.2837 62.4862 58.2714 62.5312 58.253C62.5742 58.2366 62.6151 58.2162 62.6561 58.1937C62.6601 58.1937 62.6642 58.1916 62.6663 58.1896C62.7031 58.163 62.7379 58.1405 62.7727 58.1118C62.7747 58.1098 62.7768 58.1077 62.7809 58.1057C62.8075 58.077 62.8341 58.0484 62.8607 58.0177C62.8627 58.0156 62.8668 58.0115 62.8689 58.0074C62.8893 57.9788 62.9057 57.946 62.9221 57.9133C62.9241 57.9113 62.9262 57.9072 62.9282 57.9031C62.9282 57.899 62.9303 57.8969 62.9303 57.8908C62.9405 57.8601 62.9467 57.8274 62.9528 57.7946C62.9548 57.7844 62.9548 57.7762 62.9548 57.768C62.9589 57.7209 62.9467 57.68 62.92 57.6452C62.8996 57.6043 62.8689 57.5736 62.8239 57.5552C62.7788 57.5286 62.7297 57.5163 62.6786 57.5142C62.6192 57.502 62.5619 57.504 62.5046 57.5163C62.4637 57.5265 62.4207 57.5388 62.3798 57.549C62.3593 57.5572 62.3429 57.5675 62.3225 57.5756C62.3123 57.5777 62.302 57.5797 62.2918 57.5838C62.255 57.6022 62.214 57.6207 62.1772 57.6391C62.1097 57.678 62.0524 57.7271 62.0053 57.7885C61.9828 57.8212 61.9623 57.856 61.948 57.8908C61.9439 57.899 61.9418 57.9051 61.9398 57.9113C61.9316 57.946 61.9214 57.9829 61.9173 58.0177C61.9173 58.0259 61.9173 58.034 61.9173 58.0422C61.9214 58.0709 61.9255 58.0995 61.9316 58.1261C61.9459 58.1712 61.9725 58.2059 62.0114 58.2285ZM60.452 45.6121C60.4541 45.6162 60.4541 45.6203 60.4561 45.6244C60.4623 45.6428 60.4684 45.6592 60.4745 45.6735C60.4807 45.6899 60.4868 45.7062 60.495 45.7226C60.4991 45.7308 60.5032 45.739 60.5073 45.7451C60.5196 45.7595 60.5359 45.7758 60.5482 45.7881C60.5584 45.8004 60.5728 45.8188 60.5871 45.8311C60.5912 45.8331 60.5932 45.8352 60.5973 45.8372C60.5973 45.8393 60.5994 45.8393 60.6014 45.8413H60.6035C60.6342 45.8556 60.6608 45.87 60.6894 45.8863C60.6894 45.8863 60.6894 45.8863 60.6915 45.8863C60.6935 45.8884 60.6976 45.8884 60.6997 45.8904C60.7365 45.9027 60.7754 45.9048 60.8122 45.9109C60.8143 45.9129 60.8183 45.9129 60.8224 45.9129C60.8409 45.9129 60.8797 45.9088 60.8797 45.9088C60.8879 45.9088 60.9186 45.9068 60.937 45.9048C60.9391 45.9048 60.9411 45.9048 60.9432 45.9048C60.9862 45.8966 61.0271 45.8843 61.068 45.87C61.1069 45.8515 61.1437 45.8331 61.1826 45.8127C61.2174 45.7881 61.2501 45.7595 61.2849 45.7349C61.3115 45.7042 61.3381 45.6735 61.3627 45.6449C61.3832 45.6121 61.3995 45.5794 61.418 45.5466C61.418 45.5446 61.42 45.5405 61.422 45.5384C61.422 45.5343 61.422 45.5323 61.4241 45.5303C61.4323 45.4996 61.4425 45.4607 61.4507 45.43C61.4507 45.4279 61.4507 45.4259 61.4507 45.4238C61.4527 45.4177 61.4527 45.4116 61.4548 45.4054C61.4568 45.3686 61.4527 45.3297 61.4507 45.2949C61.4507 45.2888 61.4507 45.2806 61.4486 45.2744C61.4425 45.2253 61.42 45.1844 61.3832 45.1537C61.3545 45.1148 61.3156 45.0903 61.2665 45.0759C61.2379 45.0657 61.2072 45.0616 61.1785 45.0596C61.154 45.0493 61.1274 45.0412 61.1008 45.0391C61.0475 45.0248 60.9943 45.0248 60.9391 45.035C60.9002 45.0473 60.8613 45.0575 60.8224 45.0678C60.7426 45.1005 60.671 45.1455 60.6055 45.2049C60.581 45.2356 60.5544 45.2642 60.5277 45.2949C60.4848 45.3543 60.4582 45.4197 60.4479 45.4914C60.4479 45.5282 60.4479 45.563 60.45 45.5978C60.45 45.6019 60.452 45.608 60.452 45.6121ZM62.0114 56.1452C62.0339 56.1677 62.0626 56.182 62.0933 56.1881C62.1424 56.2107 62.1936 56.2209 62.2488 56.2188C62.2529 56.2188 62.255 56.2188 62.259 56.2188C62.3 56.2168 62.3429 56.2148 62.3859 56.2086C62.433 56.2025 62.4821 56.1882 62.5271 56.1697C62.6213 56.1349 62.699 56.0899 62.7747 56.0285C62.8054 55.9999 62.8341 55.9651 62.8607 55.9344C62.8627 55.9303 62.8668 55.9283 62.8689 55.9262C62.8873 55.8976 62.9119 55.8464 62.9221 55.83C62.9241 55.8239 62.9282 55.8177 62.9303 55.8116C62.9426 55.7768 62.9487 55.74 62.9548 55.7031C62.9548 55.695 62.9548 55.6868 62.9548 55.6806C62.9507 55.6499 62.9467 55.6192 62.9405 55.5885C62.9385 55.5844 62.9385 55.5824 62.9364 55.5783C62.9364 55.5763 62.9364 55.5742 62.9344 55.5722C62.92 55.5435 62.9037 55.519 62.8853 55.4924C62.8832 55.4883 62.8791 55.4842 62.875 55.4801C62.8075 55.4207 62.7747 55.4044 62.6868 55.3778C62.6479 55.3675 62.5988 55.3655 62.566 55.3634C62.521 55.3593 62.476 55.3655 62.433 55.3716C62.388 55.3798 62.345 55.3921 62.302 55.4064L62.3 55.4085C62.2979 55.4085 62.2979 55.4085 62.2979 55.4085C62.259 55.4289 62.2202 55.4453 62.1813 55.4637C62.1424 55.4862 62.1035 55.5108 62.0728 55.5415C62.0094 55.6029 61.9766 55.6397 61.9418 55.7216C61.9418 55.7236 61.9398 55.7257 61.9398 55.7297C61.9316 55.7604 61.9234 55.7932 61.9193 55.8259C61.9173 55.8505 61.9193 55.873 61.9255 55.8935C61.9234 55.9016 61.9234 55.9098 61.9214 55.918C61.9193 55.9201 61.9193 55.9221 61.9193 55.9242C61.9193 55.9283 61.9173 55.9303 61.9173 55.9344C61.9173 55.9426 61.9173 55.9508 61.9173 55.9589C61.9214 55.9856 61.9255 56.0163 61.9316 56.0429C61.9459 56.0879 61.9725 56.1206 62.0114 56.1452ZM55.5917 45.6121C55.5938 45.6162 55.5938 45.6203 55.5958 45.6244C55.5999 45.6428 55.6101 45.6592 55.6163 45.6735C55.6204 45.6899 55.6286 45.7062 55.6347 45.7226C55.6388 45.7308 55.6429 45.739 55.647 45.7451C55.6593 45.7595 55.6756 45.7758 55.6859 45.7881C55.6981 45.8004 55.7125 45.8188 55.7268 45.8311C55.7309 45.8331 55.7329 45.8352 55.737 45.8372C55.7391 45.8393 55.7411 45.8393 55.7411 45.8413C55.7432 45.8413 55.7432 45.8413 55.7432 45.8413C55.7718 45.8556 55.8005 45.87 55.8291 45.8863H55.8312C55.8332 45.8884 55.8373 45.8884 55.8414 45.8904C55.8762 45.9027 55.913 45.9048 55.9519 45.9109C55.956 45.9129 55.958 45.9129 55.9621 45.9129C55.9805 45.9129 56.0194 45.9088 56.0194 45.9088C56.0256 45.9088 56.0583 45.9068 56.0767 45.9048C56.0788 45.9048 56.0808 45.9048 56.0829 45.9048C56.1258 45.8966 56.1668 45.8843 56.2077 45.87C56.2466 45.8515 56.2834 45.8331 56.3223 45.8127C56.3571 45.7881 56.3898 45.7595 56.4246 45.7349C56.4512 45.7042 56.4778 45.6735 56.5044 45.6449C56.5208 45.6121 56.5392 45.5794 56.5576 45.5466C56.5576 45.5446 56.5597 45.5405 56.5597 45.5384C56.5617 45.5343 56.5617 45.5323 56.5617 45.5303C56.572 45.4996 56.5822 45.4607 56.5904 45.43C56.5904 45.4279 56.5924 45.4259 56.5924 45.4238C56.5924 45.4177 56.5945 45.4116 56.5945 45.4054C56.5965 45.3686 56.5945 45.3297 56.5924 45.2949C56.5904 45.2888 56.5904 45.2806 56.5883 45.2744C56.5822 45.2253 56.5597 45.1844 56.5229 45.1537C56.4942 45.1148 56.4553 45.0903 56.4062 45.0759C56.3776 45.0657 56.3469 45.0616 56.3182 45.0596C56.2937 45.0493 56.267 45.0412 56.2404 45.0391C56.1872 45.0248 56.134 45.0248 56.0788 45.035C56.0399 45.0473 56.001 45.0575 55.9621 45.0678C55.8823 45.1005 55.8086 45.1455 55.7473 45.2049C55.7206 45.2356 55.694 45.2642 55.6674 45.2949C55.6245 45.3543 55.5979 45.4197 55.5856 45.4914C55.5856 45.5282 55.5856 45.563 55.5897 45.5978C55.5897 45.6019 55.5917 45.608 55.5917 45.6121ZM46.4441 45.6776C46.4543 45.7103 46.4687 45.7431 46.483 45.7758C46.4891 45.7922 46.4932 45.7902 46.5157 45.8127C46.5567 45.8577 46.5587 45.8659 46.6324 45.8904C46.6344 45.8904 46.6385 45.8904 46.6385 45.8925C46.6754 45.9007 46.7122 45.9088 46.749 45.9129C46.7511 45.9129 46.7531 45.9129 46.7552 45.9129H46.7572C46.794 45.9088 46.8309 45.9068 46.8677 45.9048C46.8698 45.9048 46.8698 45.9048 46.8698 45.9048C46.8739 45.9048 46.878 45.9048 46.88 45.9027C46.9107 45.8966 46.968 45.8843 47.0069 45.8679C47.0478 45.8495 47.0908 45.829 47.1297 45.8065C47.1338 45.8045 47.1358 45.8024 47.1399 45.8004C47.146 45.7942 47.2177 45.7451 47.2484 45.7144C47.2811 45.6858 47.3118 45.6449 47.3364 45.6162C47.3384 45.6121 47.3404 45.6101 47.3425 45.606C47.3445 45.6039 47.3445 45.6039 47.3466 45.6019C47.3466 45.5998 47.3466 45.5998 47.3466 45.5978C47.3568 45.5835 47.365 45.565 47.3752 45.5487C47.3855 45.5323 47.3937 45.5159 47.4039 45.4996C47.4059 45.4955 47.408 45.4914 47.41 45.4873C47.41 45.4832 47.41 45.4811 47.4121 45.4791C47.4121 45.477 47.4121 45.477 47.4121 45.475C47.4223 45.4423 47.4305 45.4075 47.4387 45.3747C47.4428 45.3645 47.4448 45.3543 47.4448 45.344C47.453 45.2929 47.4469 45.2478 47.4244 45.2049C47.4121 45.1578 47.3855 45.121 47.3425 45.0923C47.3036 45.0616 47.2565 45.0432 47.2074 45.0391C47.1542 45.0248 47.101 45.0248 47.0458 45.035C47.0151 45.0452 46.9864 45.0534 46.9537 45.0616C46.9475 45.0637 46.9393 45.0616 46.9312 45.0637C46.8923 45.0739 46.8534 45.0841 46.8145 45.0964C46.7327 45.1271 46.6631 45.1721 46.5976 45.2315C46.573 45.2622 46.5464 45.2929 46.5198 45.3215C46.4768 45.3809 46.4502 45.4463 46.44 45.52C46.438 45.5241 46.438 45.5303 46.4359 45.5343C46.4339 45.5712 46.438 45.6121 46.44 45.6449C46.44 45.6551 46.4421 45.6674 46.4441 45.6776ZM45.0095 45.7165C45.0402 45.7595 45.0812 45.7942 45.1303 45.8147C45.1671 45.829 45.204 45.8413 45.2387 45.8536C45.3206 45.872 45.4045 45.872 45.4884 45.8556C45.5293 45.8413 45.5703 45.829 45.6112 45.8168C45.6849 45.784 45.7463 45.7369 45.7995 45.6776C45.8118 45.6612 45.8261 45.6428 45.8384 45.6264C45.8772 45.5855 45.9018 45.5384 45.912 45.4873C45.9325 45.4382 45.9345 45.387 45.9223 45.3338C45.9141 45.2806 45.8895 45.2376 45.8506 45.2008C45.8199 45.1558 45.779 45.123 45.7299 45.1005C45.6931 45.0882 45.6562 45.0759 45.6214 45.0637C45.5396 45.0432 45.4557 45.0432 45.3738 45.0616C45.3308 45.0739 45.292 45.0882 45.251 45.1005C45.1774 45.1332 45.1139 45.1783 45.0628 45.2397C45.0484 45.256 45.0361 45.2724 45.0218 45.2908C44.985 45.3297 44.9604 45.3768 44.9502 45.43C44.9297 45.477 44.9256 45.5303 44.9379 45.5814C44.9482 45.6346 44.9707 45.6796 45.0095 45.7165ZM43.8328 45.6367C43.8328 45.6367 43.8349 45.6346 43.8369 45.6346C43.8451 45.6305 43.8533 45.6264 43.8635 45.6223C43.8513 45.6264 43.841 45.6326 43.8328 45.6367ZM43.9106 45.5998C43.9229 45.5937 43.9352 45.5876 43.9495 45.5814C43.97 45.5671 43.9904 45.5528 44.0129 45.5364C43.9802 45.561 43.9474 45.5855 43.9106 45.5998ZM44.105 45.5262C44.105 45.5262 44.105 45.5262 44.1071 45.5241C44.1255 45.5036 44.1439 45.4811 44.1644 45.4607C44.1459 45.4852 44.1255 45.5057 44.105 45.5262ZM43.2373 45.4873C43.2373 45.4873 43.2373 45.4832 43.2373 45.4811C43.2353 45.4566 43.2414 45.432 43.2476 45.4075C43.2516 45.3931 43.2537 45.3665 43.2619 45.3502C43.2619 45.3481 43.2639 45.3461 43.2639 45.3461C43.268 45.3379 43.309 45.2642 43.313 45.2581C43.3151 45.256 43.3151 45.254 43.3171 45.2519C43.3233 45.2437 43.3847 45.1783 43.3929 45.1701C43.3949 45.168 43.3949 45.168 43.3949 45.168C43.3969 45.168 43.3969 45.168 43.3969 45.166C43.399 45.166 43.4911 45.0985 43.4952 45.0964H43.4972L43.4993 45.0944C43.5013 45.0944 43.6139 45.0412 43.6159 45.0391C43.6159 45.0391 43.618 45.0391 43.618 45.0371C43.62 45.0371 43.62 45.0371 43.62 45.0371C43.6221 45.0371 43.7428 45.0043 43.7448 45.0043H43.7469C43.796 44.9941 43.8451 44.9941 43.8942 44.9982C43.8942 44.9982 43.8963 44.9982 43.8983 44.9982C43.9167 44.9961 43.9372 44.9941 43.9577 44.992C43.9597 44.992 43.9597 44.992 43.9618 44.992C43.9638 44.992 43.9659 44.992 43.9679 44.992C43.9863 44.9941 44.0047 44.9961 44.0232 45.0002C44.0416 45.0023 44.06 45.0043 44.0805 45.0064C44.1439 45.0186 44.1992 45.0493 44.2442 45.0944C44.2851 45.1394 44.3056 45.1926 44.3035 45.254C44.3035 45.2642 44.3035 45.2744 44.3015 45.2826C44.3015 45.2888 44.2994 45.2929 44.2994 45.297C44.2933 45.3277 44.2851 45.3604 44.279 45.3911C44.2769 45.3931 44.2769 45.3952 44.2749 45.3972C44.2728 45.4075 44.2708 45.4157 44.2667 45.4238C44.2646 45.4259 44.2646 45.4279 44.2626 45.43C44.2462 45.4607 44.2298 45.4914 44.2135 45.5221C44.2094 45.5241 44.2073 45.5282 44.2053 45.5323C44.2032 45.5343 44.2012 45.5384 44.1992 45.5405C44.1869 45.5548 44.1664 45.5732 44.1603 45.5835C44.1521 45.5896 44.1337 45.6101 44.1214 45.6223C44.1193 45.6244 44.1193 45.6264 44.1173 45.6264C44.1009 45.6428 44.0764 45.6592 44.062 45.6694C44.0498 45.6756 44.0252 45.6981 44.0047 45.7083H44.0027C43.9904 45.7165 43.8983 45.7595 43.886 45.7636C43.884 45.7636 43.884 45.7656 43.882 45.7656C43.8615 45.7738 43.8267 45.782 43.8165 45.784C43.8042 45.7881 43.7714 45.7963 43.7489 45.8024C43.7469 45.8024 43.7448 45.8024 43.7428 45.8024C43.7326 45.8045 43.6364 45.8106 43.6241 45.8127C43.6221 45.8127 43.6221 45.8127 43.6221 45.8127C43.62 45.8127 43.618 45.8127 43.618 45.8127C43.6159 45.8127 43.6159 45.8127 43.6139 45.8127C43.6098 45.8106 43.5115 45.8004 43.5054 45.7983C43.5034 45.7983 43.5013 45.7983 43.4993 45.7963C43.4931 45.7963 43.4092 45.7636 43.4051 45.7615H43.4031L43.401 45.7595C43.399 45.7595 43.3969 45.7574 43.3949 45.7554C43.3888 45.7513 43.3294 45.7062 43.3212 45.7022V45.7001C43.3192 45.7001 43.3192 45.6981 43.3171 45.6981C43.3151 45.694 43.311 45.6899 43.309 45.6858C43.2967 45.6653 43.2762 45.6346 43.2639 45.6121C43.2639 45.6101 43.2619 45.6101 43.2619 45.6101C43.2619 45.608 43.2619 45.608 43.2598 45.606C43.2598 45.6039 43.2578 45.6019 43.2578 45.5998C43.2557 45.5937 43.2537 45.5896 43.2516 45.5835C43.2516 45.5814 43.2516 45.5773 43.2496 45.5753C43.2455 45.5466 43.2414 45.5159 43.2373 45.4873ZM48.6931 45.6367C48.6952 45.6367 48.6952 45.6346 48.6972 45.6346C48.7054 45.6305 48.7136 45.6264 48.7218 45.6223C48.7116 45.6264 48.7034 45.6326 48.6931 45.6367ZM48.7709 45.5998C48.7832 45.5937 48.7975 45.5876 48.8098 45.5814C48.8303 45.5671 48.8507 45.5528 48.8732 45.5364C48.8405 45.561 48.8077 45.5855 48.7709 45.5998ZM48.9653 45.5262C48.9653 45.5262 48.9653 45.5262 48.9653 45.5241C48.9858 45.5036 49.0063 45.4832 49.0247 45.4607C49.0063 45.4852 48.9858 45.5057 48.9653 45.5262ZM48.0976 45.4873C48.0976 45.4873 48.0976 45.4832 48.0976 45.4811C48.0935 45.4566 48.1017 45.432 48.1079 45.4075C48.1099 45.3931 48.114 45.3665 48.1222 45.3502C48.1222 45.3481 48.1222 45.3461 48.1242 45.3461C48.1263 45.3379 48.1693 45.2642 48.1734 45.2581C48.1754 45.256 48.1754 45.254 48.1774 45.2519C48.1856 45.2437 48.245 45.1783 48.2532 45.1701C48.2532 45.1701 48.2532 45.1701 48.2552 45.1701C48.2552 45.168 48.2552 45.168 48.2573 45.168C48.2573 45.168 48.2573 45.168 48.2573 45.166C48.2593 45.166 48.3534 45.0985 48.3555 45.0964H48.3575L48.3596 45.0944C48.3616 45.0944 48.4742 45.0412 48.4762 45.0391C48.4783 45.0391 48.4783 45.0391 48.4803 45.0371C48.4844 45.0371 48.6031 45.0043 48.6052 45.0043C48.6072 45.0043 48.6072 45.0043 48.6092 45.0043C48.6563 44.9941 48.7054 44.9941 48.7525 44.9982C48.7545 44.9982 48.7566 44.9982 48.7566 44.9982C48.7791 44.9961 48.7975 44.9941 48.818 44.992C48.82 44.992 48.8221 44.992 48.8241 44.992C48.8241 44.992 48.8262 44.992 48.8282 44.992C48.8466 44.9941 48.8651 44.9961 48.8835 45.0002C48.9019 45.0023 48.9223 45.0043 48.9408 45.0064C49.0042 45.0186 49.0574 45.0493 49.1045 45.0944C49.1454 45.1394 49.1659 45.1926 49.1638 45.254C49.1638 45.2642 49.1618 45.2744 49.1618 45.2826C49.1618 45.2888 49.1597 45.2929 49.1597 45.297C49.1536 45.3277 49.1454 45.3604 49.1393 45.3911C49.1372 45.3931 49.1372 45.3952 49.1372 45.3972C49.1331 45.4075 49.1311 45.4157 49.127 45.4238C49.127 45.4259 49.1249 45.4279 49.1229 45.43C49.1086 45.4607 49.0902 45.4914 49.0717 45.5221C49.0697 45.5241 49.0676 45.5282 49.0656 45.5323C49.0636 45.5343 49.0615 45.5384 49.0574 45.5405C49.0451 45.5548 49.0288 45.5732 49.0206 45.5835C49.0124 45.5896 48.994 45.6101 48.9817 45.6223C48.9797 45.6244 48.9797 45.6264 48.9776 45.6264C48.9612 45.6428 48.9346 45.6592 48.9223 45.6694C48.9121 45.6756 48.8855 45.6981 48.8651 45.7083H48.863C48.8487 45.7165 48.7586 45.7595 48.7464 45.7636C48.7443 45.7636 48.7423 45.7656 48.7423 45.7656C48.7198 45.7738 48.687 45.782 48.6768 45.784C48.6625 45.7881 48.6318 45.7963 48.6092 45.8024C48.6072 45.8024 48.6072 45.8024 48.6052 45.8024C48.5929 45.8045 48.4967 45.8106 48.4844 45.8127H48.4824C48.4803 45.8127 48.4803 45.8127 48.4783 45.8127C48.4762 45.8127 48.4762 45.8127 48.4762 45.8127C48.4701 45.8106 48.3719 45.8004 48.3657 45.7983C48.3637 45.7983 48.3616 45.7983 48.3596 45.7963C48.3555 45.7963 48.2695 45.7636 48.2654 45.7615C48.2654 45.7615 48.2654 45.7615 48.2634 45.7615L48.2614 45.7595C48.2593 45.7595 48.2573 45.7574 48.2552 45.7554C48.2491 45.7513 48.1897 45.7062 48.1836 45.7022C48.1815 45.7022 48.1815 45.7001 48.1815 45.7001L48.1795 45.6981C48.1754 45.694 48.1734 45.6899 48.1693 45.6858C48.157 45.6653 48.1365 45.6346 48.1242 45.6121C48.1222 45.6101 48.1222 45.6101 48.1222 45.6101C48.1222 45.608 48.1201 45.608 48.1201 45.606C48.1201 45.6039 48.1181 45.6019 48.1181 45.5998C48.1161 45.5937 48.114 45.5896 48.112 45.5835C48.112 45.5814 48.1099 45.5773 48.1099 45.5753C48.1058 45.5466 48.1017 45.5159 48.0976 45.4873ZM42.2796 45.8004C42.2878 45.7942 42.3553 45.7451 42.388 45.7144C42.4208 45.6858 42.4515 45.6449 42.476 45.6162C42.4781 45.6121 42.4801 45.6101 42.4842 45.606C42.4842 45.6039 42.4842 45.6039 42.4863 45.6019C42.4863 45.5998 42.4863 45.5998 42.4883 45.5978C42.4965 45.5835 42.5067 45.565 42.5149 45.5487C42.5231 45.5323 42.5333 45.5159 42.5415 45.4996C42.5436 45.4955 42.5456 45.4914 42.5477 45.4873C42.5497 45.4832 42.5497 45.4811 42.5518 45.4791C42.5518 45.477 42.5518 45.477 42.5518 45.475C42.562 45.4423 42.5702 45.4075 42.5804 45.3747C42.5825 45.3645 42.5845 45.3543 42.5845 45.344C42.5927 45.2929 42.5866 45.2478 42.564 45.2049C42.5518 45.1578 42.5252 45.121 42.4842 45.0923C42.4433 45.0616 42.3983 45.0432 42.3471 45.0391C42.2939 45.0248 42.2407 45.0248 42.1854 45.035C42.1568 45.0452 42.1241 45.0534 42.0954 45.0616C42.0872 45.0637 42.079 45.0616 42.0708 45.0637C42.032 45.0739 41.9931 45.0841 41.9542 45.0964C41.8744 45.1271 41.8007 45.1721 41.7393 45.2315C41.7107 45.2622 41.6841 45.2929 41.6595 45.3215C41.6165 45.3809 41.5899 45.4463 41.5777 45.52C41.5777 45.5241 41.5756 45.5303 41.5756 45.5343C41.5736 45.5712 41.5777 45.6121 41.5797 45.6449C41.5797 45.6551 41.5797 45.6674 41.5838 45.6776C41.594 45.7103 41.6084 45.7431 41.6227 45.7758C41.6288 45.7922 41.635 45.7902 41.6554 45.8127C41.6963 45.8577 41.6984 45.8659 41.7721 45.8904C41.7741 45.8904 41.7762 45.8904 41.7782 45.8925C41.815 45.9007 41.8519 45.9088 41.8887 45.9129C41.8908 45.9129 41.8928 45.9129 41.8928 45.9129C41.8949 45.9129 41.8949 45.9129 41.8969 45.9129C41.9337 45.9088 41.9706 45.9068 42.0074 45.9048C42.0095 45.9048 42.0095 45.9048 42.0095 45.9048C42.0135 45.9048 42.0156 45.9048 42.0197 45.9027C42.0524 45.8966 42.1056 45.8843 42.1445 45.8679C42.1875 45.8495 42.2284 45.829 42.2694 45.8065C42.2734 45.8045 42.2755 45.8024 42.2796 45.8004ZM40.1104 49.7398C40.1144 49.7459 40.1185 49.7521 40.1247 49.7582C40.1329 49.7664 40.1697 49.8094 40.1943 49.8319C40.1963 49.8339 40.2004 49.836 40.2024 49.838C40.2352 49.8605 40.27 49.879 40.3048 49.8912C40.3375 49.9015 40.4316 49.9158 40.4132 49.9117C40.4173 49.9137 40.4214 49.9137 40.4255 49.9137C40.4828 49.9178 40.5401 49.9097 40.5933 49.8912C40.6568 49.879 40.7141 49.8524 40.7673 49.8176C40.8225 49.7848 40.8696 49.7439 40.9085 49.6927C40.9494 49.6518 40.9801 49.6047 41.0026 49.5495C41.0108 49.5167 41.019 49.484 41.0292 49.4512C41.0374 49.3858 41.0251 49.3264 40.9924 49.2691C40.974 49.2507 40.9555 49.2323 40.9392 49.2139C40.9351 49.2016 40.933 49.1873 40.9269 49.175C40.9146 49.1279 40.888 49.0911 40.845 49.0645C40.8061 49.0317 40.7591 49.0154 40.71 49.0113C40.6588 48.9969 40.6035 48.9949 40.5483 49.0072C40.5094 49.0174 40.4726 49.0297 40.4316 49.0399C40.3518 49.0706 40.2802 49.1156 40.2147 49.175C40.1902 49.2057 40.1636 49.2364 40.137 49.265C40.094 49.3244 40.0674 49.3899 40.0571 49.4635C40.0551 49.4717 40.0531 49.4799 40.0531 49.4881C40.0551 49.5229 40.0531 49.5597 40.0571 49.5965C40.0571 49.5986 40.0592 49.6027 40.0592 49.6068C40.0612 49.615 40.0633 49.6231 40.0653 49.6313C40.0776 49.6641 40.0899 49.6968 40.1042 49.7275C40.1063 49.7316 40.1083 49.7357 40.1104 49.7398ZM40.137 47.7281C40.1636 47.7732 40.2004 47.81 40.2475 47.8366C40.2925 47.8714 40.3436 47.8939 40.3989 47.9041C40.4623 47.9185 40.5217 47.9226 40.5851 47.9123C40.6486 47.9103 40.712 47.8939 40.7714 47.8653C40.8061 47.8468 40.8409 47.8264 40.8757 47.8039C40.9371 47.7609 40.9842 47.7056 41.0169 47.636C41.0272 47.6033 41.0374 47.5706 41.0456 47.5399C41.0558 47.4682 41.0415 47.4028 41.0067 47.3414C40.9924 47.3229 40.9801 47.3066 40.9658 47.2902C40.9392 47.2431 40.9023 47.2063 40.8553 47.1817C40.8102 47.1469 40.7591 47.1244 40.7038 47.1142C40.6404 47.0978 40.581 47.0958 40.5176 47.106C40.4542 47.1081 40.3907 47.1224 40.3314 47.151C40.2966 47.1715 40.2618 47.192 40.227 47.2104C40.1656 47.2554 40.1185 47.3127 40.0858 47.3802C40.0756 47.413 40.0653 47.4457 40.0551 47.4785C40.0469 47.5501 40.0612 47.6156 40.096 47.677C40.1104 47.6933 40.1247 47.7097 40.137 47.7281ZM40.1492 45.7165C40.1799 45.7595 40.2188 45.7942 40.272 45.8147C40.3068 45.829 40.3436 45.8413 40.3784 45.8536C40.4623 45.872 40.5442 45.872 40.6281 45.8556C40.669 45.8413 40.71 45.829 40.7488 45.8168C40.8225 45.784 40.886 45.7369 40.9392 45.6776C40.9514 45.6612 40.9637 45.6428 40.978 45.6264C41.0169 45.5855 41.0394 45.5384 41.0517 45.4873C41.0701 45.4382 41.0742 45.387 41.062 45.3338C41.0517 45.2806 41.0292 45.2376 40.9924 45.2008C40.9596 45.1558 40.9207 45.123 40.8675 45.1005C40.8327 45.0882 40.798 45.0759 40.7611 45.0637C40.6793 45.0432 40.5954 45.0432 40.5115 45.0616C40.4726 45.0739 40.4296 45.0882 40.3907 45.1005C40.317 45.1332 40.2536 45.1783 40.2024 45.2397C40.1881 45.256 40.1758 45.2724 40.1615 45.2908C40.1247 45.3297 40.1001 45.3768 40.0878 45.43C40.0694 45.477 40.0653 45.5303 40.0776 45.5814C40.0878 45.6346 40.1104 45.6796 40.1492 45.7165ZM50.6373 45.6367C50.6393 45.6367 50.6393 45.6346 50.6414 45.6346C50.6496 45.6305 50.6577 45.6264 50.6659 45.6223C50.6557 45.6264 50.6475 45.6326 50.6373 45.6367ZM50.715 45.5998C50.7273 45.5937 50.7416 45.5876 50.7539 45.5814C50.7744 45.5671 50.7948 45.5528 50.8174 45.5364C50.7846 45.561 50.7519 45.5855 50.715 45.5998ZM50.9095 45.5262C50.9095 45.5262 50.9095 45.5262 50.9115 45.5241C50.9299 45.5036 50.9504 45.4811 50.9688 45.4607C50.9504 45.4852 50.9299 45.5057 50.9095 45.5262ZM50.0418 45.4873C50.0418 45.4873 50.0397 45.4832 50.0397 45.4811C50.0377 45.4566 50.0459 45.432 50.052 45.4075C50.0561 45.3931 50.0602 45.3665 50.0663 45.3502C50.0684 45.3481 50.0684 45.3461 50.0684 45.3461C50.0725 45.3379 50.1134 45.2642 50.1175 45.2581C50.1195 45.256 50.1195 45.254 50.1216 45.2519C50.1277 45.2437 50.1891 45.1783 50.1973 45.1701C50.1973 45.1701 50.1973 45.1701 50.1993 45.1701C50.1993 45.168 50.1993 45.168 50.2014 45.168C50.2014 45.168 50.2014 45.168 50.2014 45.166C50.2034 45.166 50.2976 45.0985 50.2996 45.0964H50.3017L50.3037 45.0944C50.3057 45.0944 50.4183 45.0412 50.4204 45.0391C50.4224 45.0391 50.4224 45.0391 50.4244 45.0371C50.4285 45.0371 50.5472 45.0043 50.5493 45.0043C50.5513 45.0043 50.5513 45.0043 50.5534 45.0043C50.6025 44.9941 50.6496 44.9941 50.6987 44.9982C50.6987 44.9982 50.7007 44.9982 50.7028 44.9982C50.7212 44.9961 50.7416 44.9941 50.7621 44.992C50.7642 44.992 50.7662 44.992 50.7662 44.992C50.7682 44.992 50.7703 44.992 50.7723 44.992C50.7908 44.9941 50.8092 44.9961 50.8276 45.0002C50.846 45.0023 50.8644 45.0043 50.8828 45.0064C50.9483 45.0186 51.0015 45.0493 51.0486 45.0944C51.0895 45.1394 51.108 45.1926 51.1059 45.254C51.108 45.2642 51.1059 45.2744 51.1059 45.2826C51.1039 45.2888 51.1039 45.2929 51.1039 45.297C51.0957 45.3277 51.0895 45.3604 51.0834 45.3911C51.0814 45.3931 51.0814 45.3952 51.0814 45.3972C51.0773 45.4075 51.0752 45.4157 51.0711 45.4238C51.0691 45.4259 51.0691 45.4279 51.067 45.43C51.0527 45.4607 51.0343 45.4914 51.0179 45.5221C51.0159 45.5241 51.0118 45.5282 51.0097 45.5323C51.0077 45.5343 51.0056 45.5384 51.0015 45.5405C50.9893 45.5548 50.9729 45.5732 50.9647 45.5835C50.9565 45.5896 50.9381 45.6101 50.9258 45.6223C50.9258 45.6244 50.9238 45.6264 50.9217 45.6264C50.9054 45.6428 50.8788 45.6592 50.8665 45.6694C50.8542 45.6756 50.8296 45.6981 50.8092 45.7083C50.8092 45.7083 50.8092 45.7083 50.8071 45.7083C50.7928 45.7165 50.7048 45.7595 50.6884 45.7636C50.6884 45.7636 50.6864 45.7656 50.6843 45.7656C50.6639 45.7738 50.6311 45.782 50.6209 45.784C50.6086 45.7881 50.5759 45.7963 50.5534 45.8024C50.5513 45.8024 50.5513 45.8024 50.5472 45.8024C50.537 45.8045 50.4408 45.8106 50.4285 45.8127H50.4265C50.4244 45.8127 50.4224 45.8127 50.4224 45.8127C50.4204 45.8127 50.4204 45.8127 50.4204 45.8127C50.4142 45.8106 50.316 45.8004 50.3098 45.7983C50.3078 45.7983 50.3057 45.7983 50.3037 45.7963C50.2996 45.7963 50.2137 45.7636 50.2096 45.7615C50.2096 45.7615 50.2096 45.7615 50.2075 45.7615L50.2055 45.7595C50.2034 45.7595 50.2014 45.7574 50.1993 45.7554C50.1932 45.7513 50.1338 45.7062 50.1277 45.7022C50.1257 45.7022 50.1257 45.7001 50.1257 45.7001C50.1236 45.7001 50.1236 45.6981 50.1236 45.6981C50.1195 45.694 50.1154 45.6899 50.1134 45.6858C50.1011 45.6653 50.0806 45.6346 50.0684 45.6121C50.0684 45.6101 50.0684 45.6101 50.0663 45.6101C50.0663 45.608 50.0663 45.608 50.0663 45.606C50.0643 45.6039 50.0622 45.6019 50.0622 45.5998C50.0602 45.5937 50.0581 45.5896 50.0581 45.5835C50.0561 45.5814 50.0561 45.5773 50.0561 45.5753C50.0499 45.5466 50.0438 45.5159 50.0418 45.4873ZM41.0988 53.5973C41.0988 53.5933 41.0988 53.5892 41.0967 53.5871C41.0967 53.5789 41.0926 53.5728 41.0906 53.5667C41.0886 53.5626 41.0886 53.5605 41.0865 53.5564C41.0701 53.5298 41.0538 53.5012 41.0353 53.4766C41.0026 53.4398 40.9617 53.4152 40.9167 53.405C40.9085 53.4009 40.8982 53.3988 40.89 53.3948C40.886 53.3927 40.8819 53.3886 40.8778 53.3866C40.8307 53.362 40.7816 53.3477 40.7284 53.3456C40.6711 53.3354 40.6138 53.3354 40.5565 53.3477C40.5135 53.36 40.4726 53.3722 40.4316 53.3825C40.3539 53.4111 40.2823 53.4521 40.2188 53.5073C40.1943 53.5339 40.1697 53.5605 40.1451 53.5871C40.1042 53.6383 40.0817 53.6976 40.0756 53.7611C40.0756 53.7652 40.0756 53.7693 40.0756 53.7733C40.0776 53.8061 40.0837 53.8388 40.0899 53.8716C40.0919 53.8777 40.094 53.8859 40.096 53.8941C40.0981 53.8961 40.1001 53.9002 40.1022 53.9043C40.1165 53.9309 40.1349 53.9596 40.1513 53.9862C40.1554 53.9923 40.1615 53.9985 40.1677 54.0025C40.1697 54.0066 40.1717 54.0087 40.1758 54.0107C40.2004 54.0312 40.227 54.0517 40.2557 54.0701C40.2618 54.0742 40.2679 54.0783 40.2741 54.0803C40.3068 54.0946 40.3416 54.109 40.3764 54.1192C40.3784 54.1192 40.3825 54.1212 40.3846 54.1212C40.4235 54.1274 40.4644 54.1335 40.5033 54.1356C40.5074 54.1356 40.5115 54.1356 40.5135 54.1356C40.5974 54.1356 40.6793 54.1212 40.757 54.0926C40.8184 54.0721 40.8737 54.0414 40.9228 54.0025C40.9699 53.9739 41.0128 53.935 41.0456 53.8879C41.0865 53.8368 41.109 53.7774 41.1131 53.714C41.1131 53.7058 41.1131 53.6997 41.1131 53.6915C41.1131 53.6894 41.1131 53.6874 41.1131 53.6853C41.109 53.6567 41.1049 53.626 41.0988 53.5973ZM41.0988 57.766C41.0988 57.7619 41.0988 57.7578 41.0967 57.7537C41.0967 57.7475 41.0926 57.7394 41.0906 57.7332C41.0886 57.7291 41.0886 57.7271 41.0865 57.723C41.0701 57.6964 41.0538 57.6698 41.0353 57.6432C41.0026 57.6084 40.9617 57.5838 40.9167 57.5715C40.9085 57.5675 40.8982 57.5654 40.89 57.5634C40.886 57.5593 40.8819 57.5552 40.8778 57.5552C40.8307 57.5286 40.7816 57.5163 40.7284 57.5142C40.6711 57.502 40.6138 57.504 40.5565 57.5163C40.5135 57.5265 40.4726 57.5388 40.4316 57.549C40.3539 57.5777 40.2823 57.6207 40.2188 57.6739C40.1943 57.7005 40.1697 57.7271 40.1451 57.7537C40.1042 57.8048 40.0817 57.8621 40.0756 57.9276C40.0756 57.9338 40.0756 57.9379 40.0756 57.942C40.0776 57.9747 40.0837 58.0054 40.0899 58.0381C40.0919 58.0463 40.094 58.0545 40.096 58.0606C40.0981 58.0647 40.1001 58.0688 40.1022 58.0729C40.1165 58.0995 40.1349 58.1261 40.1513 58.1527C40.1554 58.1589 40.1615 58.165 40.1677 58.1691C40.1697 58.1732 40.1717 58.1752 40.1758 58.1773C40.2004 58.1998 40.227 58.2203 40.2557 58.2387C40.2618 58.2428 40.2679 58.2469 40.2741 58.2489C40.3068 58.2612 40.3416 58.2755 40.3764 58.2858C40.3784 58.2858 40.3825 58.2878 40.3846 58.2878C40.4235 58.2939 40.4644 58.3001 40.5033 58.3021C40.5074 58.3021 40.5115 58.3021 40.5135 58.3021C40.5974 58.3021 40.6793 58.2878 40.757 58.2592C40.8184 58.2387 40.8737 58.21 40.9228 58.1691C40.9699 58.1405 41.0128 58.1016 41.0456 58.0545C41.0865 58.0034 41.109 57.946 41.1131 57.8806C41.1131 57.8724 41.1131 57.8662 41.1131 57.8581C41.1131 57.856 41.1131 57.854 41.1131 57.8519C41.109 57.8233 41.1049 57.7946 41.0988 57.766ZM40.0776 55.8689C40.0797 55.8955 40.0858 55.9283 40.0899 55.9549C40.0919 55.963 40.094 55.9692 40.096 55.9774C40.0981 55.9815 40.1001 55.9835 40.1001 55.9876C40.1165 56.0163 40.1349 56.0429 40.1513 56.0674C40.1554 56.0735 40.1595 56.0797 40.1636 56.0838C40.1677 56.0879 40.1697 56.0899 40.1738 56.092C40.1983 56.1145 40.225 56.1349 40.2536 56.1534C40.2597 56.1575 40.2659 56.1615 40.272 56.1636C40.3048 56.1779 40.3396 56.1922 40.3743 56.2025C40.3784 56.2025 40.3805 56.2045 40.3846 56.2045C40.4235 56.2127 40.4644 56.2168 40.5033 56.2188C40.5074 56.2188 40.5094 56.2188 40.5135 56.2188C40.5974 56.2188 40.6793 56.2045 40.757 56.1759C40.8184 56.1575 40.8737 56.1247 40.9228 56.0858C40.9699 56.0572 41.0128 56.0183 41.0456 55.9712C41.0865 55.9201 41.109 55.8628 41.1131 55.7973C41.1131 55.7891 41.1131 55.783 41.1131 55.7748C41.1111 55.7523 41.107 55.7297 41.1029 55.7072C41.107 55.6929 41.1111 55.6786 41.1131 55.6643C41.1029 55.5804 41.1008 55.5456 41.0435 55.478C41.0415 55.478 41.0415 55.476 41.0394 55.4739C41.0149 55.4535 40.9903 55.433 40.9637 55.4166C40.931 55.3962 40.8941 55.3859 40.8573 55.3778C40.7857 55.3573 40.6793 55.3593 40.6056 55.3737C40.5606 55.3819 40.5135 55.3921 40.4705 55.4125C40.3539 55.4596 40.3436 55.4678 40.2454 55.5415C40.2147 55.566 40.1717 55.6192 40.1615 55.6315C40.137 55.6581 40.1165 55.7011 40.1022 55.7297C40.1001 55.7338 40.0981 55.74 40.0981 55.7441C40.0899 55.7748 40.0817 55.8055 40.0756 55.8382C40.0756 55.8423 40.0756 55.8464 40.0756 55.8505C40.0756 55.8546 40.0756 55.8587 40.0756 55.8628C40.0756 55.8648 40.0756 55.8669 40.0776 55.8689ZM33.0522 55.8894C33.0215 55.8853 32.9908 55.8832 32.9601 55.8791C32.9028 55.8832 32.8455 55.8894 32.7861 55.8914C32.8762 55.8914 32.9642 55.8894 33.0522 55.8894ZM32.4832 55.8914C32.4505 55.8894 32.4178 55.8873 32.385 55.8832C32.383 55.8853 32.3809 55.8873 32.3789 55.8914C32.4137 55.8914 32.4505 55.8914 32.4832 55.8914ZM34.7937 55.7338C34.7937 55.7973 34.7794 55.8525 34.7609 55.8996C34.7937 55.9303 34.7998 55.9753 34.7568 56.0429C34.6443 56.2086 34.3476 56.2659 34.1634 56.2741C32.7902 56.3437 31.4396 56.3601 30.0684 56.2455C30.0377 56.2414 29.9006 56.2148 29.9027 56.1534C30.0336 52.7563 30.1667 49.3592 30.2976 45.9621C30.2976 45.96 30.3017 45.958 30.3017 45.9539C30.2588 45.7881 30.3017 45.4873 30.5268 45.4873C31.0937 45.4873 31.6585 45.5241 32.2274 45.5446C32.8557 45.5671 33.486 45.5466 34.1143 45.4873C34.1961 45.4791 34.2718 45.5036 34.3373 45.5466C34.5645 45.5732 34.7937 45.741 34.7937 46.005C34.7937 49.2486 34.7937 52.4902 34.7937 55.7338ZM70.3343 66.0418C70.3323 66.0418 70.3302 66.0397 70.3282 66.0397C70.2954 66.0397 70.2627 66.0418 70.23 66.0438C70.2647 66.0418 70.2995 66.0418 70.3343 66.0418ZM69.9271 66.0418C69.8698 66.0418 69.8104 66.0397 69.7531 66.0377C69.7224 66.0397 69.6917 66.0397 69.661 66.0418C69.749 66.0418 69.8391 66.0418 69.9271 66.0418ZM72.4156 61.7217C72.5465 63.1993 72.6795 64.6789 72.8126 66.1564C72.8146 66.183 72.6775 66.1953 72.6448 66.1973C71.2736 66.2464 69.923 66.2403 68.5519 66.2096C68.3656 66.2055 68.0689 66.181 67.9563 66.1093C67.9134 66.0807 67.9216 66.0602 67.9523 66.0459C67.9338 66.0254 67.9216 66.0029 67.9216 65.9743C67.9216 64.5622 67.9216 63.1522 67.9216 61.7402C67.9216 61.6256 68.1487 61.5539 68.3759 61.5396C68.4434 61.5212 68.5171 61.511 68.5989 61.5151C69.2272 61.5396 69.8575 61.5498 70.4878 61.5396C71.0547 61.5314 71.6195 61.5151 72.1884 61.5151C72.4135 61.5151 72.4544 61.646 72.4135 61.7197C72.4135 61.7197 72.4156 61.7197 72.4156 61.7217ZM69.086 55.8894C69.176 55.8894 69.264 55.8914 69.352 55.8914C69.2947 55.8894 69.2354 55.8832 69.1781 55.8791C69.1474 55.8832 69.1167 55.8853 69.086 55.8894ZM69.6549 55.8914C69.6897 55.8914 69.7245 55.8914 69.7593 55.8914C69.7572 55.8873 69.7572 55.8853 69.7552 55.8832C69.7224 55.8873 69.6876 55.8894 69.6549 55.8914ZM67.3793 55.8996C67.3588 55.8525 67.3465 55.7973 67.3465 55.7338C67.3465 52.4902 67.3465 49.2486 67.3465 46.005C67.3465 45.741 67.5757 45.5732 67.8008 45.5466C67.8684 45.5036 67.9441 45.4791 68.0239 45.4873C68.6521 45.5466 69.2824 45.5671 69.9128 45.5446C70.4796 45.5241 71.0465 45.4873 71.6134 45.4873C71.8385 45.4873 71.8794 45.7881 71.8385 45.9539C71.8385 45.958 71.8405 45.96 71.8405 45.9621C71.9735 49.3592 72.1045 52.7563 72.2375 56.1534C72.2396 56.2148 72.1024 56.2414 72.0718 56.2455C70.7006 56.3601 69.3479 56.3437 67.9768 56.2741C67.7926 56.2659 67.4939 56.2086 67.3833 56.0429C67.3383 55.9753 67.3465 55.9303 67.3793 55.8996ZM94.7546 56.6732C94.7525 56.6691 94.7505 56.665 94.7484 56.6609C94.7341 56.665 94.7198 56.667 94.7075 56.6691C94.7218 56.6711 94.7402 56.6711 94.7546 56.6732ZM100.677 57.6268C100.687 57.6411 100.697 57.6534 100.71 57.6657C99.9873 58.2612 99.2035 58.9345 98.6244 59.4338C98.4545 59.4297 98.3195 59.3929 98.2826 59.3131C98.035 58.7585 97.4006 58.2551 96.4736 57.9788C95.5629 57.7066 94.4108 57.6821 93.5247 57.9993C93.4837 58.0136 93.41 58.034 93.32 58.0545C93.32 60.365 93.32 62.6774 93.32 64.9899C93.32 65.7676 93.32 66.5473 93.32 67.3249C93.32 67.507 93.0969 67.7158 92.9046 67.859C92.8268 67.9163 92.5239 68.1046 92.5239 67.9225C92.5239 65.168 92.5239 62.4134 92.5239 59.6589C92.5239 59.1289 92.5239 58.5989 92.5239 58.0709C92.4994 58.0525 92.481 58.032 92.4707 58.0054C92.2661 57.3608 91.5539 56.7652 90.4755 56.4665C89.4113 56.1697 88.1712 56.2311 87.2441 56.6404C87.1909 56.6629 87.0906 56.6916 86.9719 56.7141C86.9719 59.2926 86.9719 61.8711 86.9719 64.4497C86.9719 65.2641 86.9719 66.0766 86.9719 66.8911C86.9719 67.0507 86.7427 67.239 86.5974 67.372C86.5319 67.4334 86.4419 67.5459 86.3294 67.5807C86.3048 67.5869 86.2086 67.6483 86.2086 67.593C86.2086 64.7075 86.2086 61.822 86.2086 58.9386C86.2086 58.1834 86.2086 57.4283 86.2086 56.6752C86.2004 56.665 86.1943 56.6568 86.1902 56.6466C86.0367 56.2761 85.6888 55.9405 85.1915 55.6888C85.0094 55.6151 84.8232 55.5476 84.6349 55.4801C84.3054 55.4044 83.9739 55.3348 83.6362 55.2734C82.8709 55.2263 82.1096 55.3921 81.5754 55.7175C81.5284 55.7461 81.4322 55.7809 81.3176 55.8116C81.3176 58.7912 81.3176 61.7688 81.3176 64.7464C81.3176 65.7062 81.3176 66.668 81.3176 67.6278C81.3176 67.7956 80.5706 67.7076 80.5706 67.5725C80.5706 64.2 80.5706 60.8254 80.5706 57.4529C80.5706 56.929 80.5706 56.403 80.5706 55.8791C80.4949 55.8607 80.4376 55.828 80.4131 55.7768C79.9833 54.8334 78.2377 54.0639 76.4286 54.42C76.2199 54.4609 75.7758 54.4896 75.6776 54.3402C75.608 54.2358 75.7861 54.1478 75.9641 54.0885C75.9436 54.0824 75.9191 54.0783 75.8986 54.0701C75.6346 53.9718 75.5609 53.8225 75.5875 53.6567C75.6019 53.5544 75.7574 53.4827 75.9559 53.448C75.9702 53.4132 75.9825 53.3784 75.9968 53.3436C75.565 53.3027 75.1987 53.0591 75.5978 52.8299C76.6067 52.2508 78.2213 52.3081 79.5004 52.5352C80.5052 52.7153 81.3954 53.0796 81.7637 53.5851C82.6969 53.3293 83.8368 53.3272 84.8682 53.5094C85.6827 53.6547 86.4173 53.9084 87.1336 54.1622C87.5163 54.2993 87.9133 54.4548 88.1793 54.6533C89.3867 54.3423 90.8336 54.3136 92.0737 54.596C93.2402 54.86 94.1836 55.3941 94.6666 56.0306C95.8208 55.8689 97.0486 55.9078 98.1476 56.1922C99.2486 56.4808 100.118 56.976 100.634 57.5777C100.646 57.5879 100.661 57.5961 100.669 57.6104C100.673 57.6166 100.673 57.6207 100.677 57.6268ZM62.7788 47.151C62.742 47.1388 62.7072 47.1265 62.6704 47.1142C62.5885 47.0958 62.5046 47.0937 62.4207 47.1122C62.3818 47.1244 62.3409 47.1388 62.3 47.151C62.2263 47.1838 62.1629 47.2288 62.1097 47.2902C62.0974 47.3066 62.0851 47.3229 62.0708 47.3414C62.0339 47.3802 62.0094 47.4273 61.9991 47.4805C61.9787 47.5276 61.9746 47.5787 61.9869 47.632C61.9971 47.6852 62.0217 47.7302 62.0585 47.767C62.0892 47.81 62.1301 47.8448 62.1813 47.8653C62.2161 47.8775 62.2529 47.8919 62.2877 47.9041C62.3716 47.9226 62.4535 47.9226 62.5374 47.9041C62.5783 47.8919 62.6192 47.8796 62.6601 47.8653C62.7318 47.8346 62.7952 47.7875 62.8484 47.7281C62.8607 47.7097 62.875 47.6933 62.8873 47.677C62.9262 47.636 62.9487 47.589 62.9589 47.5378C62.9814 47.4887 62.9835 47.4375 62.9712 47.3864C62.961 47.3311 62.9385 47.2882 62.9016 47.2513C62.8709 47.2063 62.828 47.1736 62.7788 47.151ZM64.0865 26.6518C64.3976 26.5761 69.219 17.0253 59.3654 13.266C51.1284 10.1206 51.2758 6.20163 51.1755 4.55629C51.153 4.18793 51.0977 3.92598 51.0261 3.7418C50.8726 3.34888 50.3017 3.41232 50.2239 3.82775C50.1379 4.29639 49.9967 5.23571 49.8044 7.05091C49.3398 11.4283 40.9985 12.5825 37.7365 17.5676C34.4765 22.5527 38.2645 26.6518 38.2645 26.6518C50.9176 19.7716 63.7755 26.7295 64.0865 26.6518ZM7.7724 56.6691C7.75808 56.667 7.74375 56.665 7.72943 56.6609C7.72738 56.665 7.72534 56.6691 7.72329 56.6732C7.73966 56.6711 7.75603 56.6711 7.7724 56.6691ZM26.481 53.3436C26.4953 53.3784 26.5076 53.4132 26.5219 53.448C26.7205 53.4827 26.876 53.5544 26.8924 53.6567C26.9169 53.8225 26.8432 53.9718 26.5813 54.0701C26.5608 54.0783 26.5363 54.0824 26.5138 54.0885C26.6938 54.1478 26.8698 54.2358 26.8023 54.3402C26.702 54.4896 26.26 54.4609 26.0492 54.42C24.2402 54.0639 22.4945 54.8334 22.0648 55.7768C22.0423 55.828 21.985 55.8607 21.9072 55.8791C21.9072 56.403 21.9072 56.929 21.9072 57.4529C21.9072 60.8254 21.9072 64.2 21.9072 67.5725C21.9072 67.7076 21.1623 67.7956 21.1623 67.6278C21.1623 66.668 21.1623 65.7062 21.1623 64.7464C21.1623 61.7688 21.1623 58.7912 21.1623 55.8116C21.0457 55.7809 20.9515 55.7461 20.9024 55.7175C20.3703 55.3921 19.6091 55.2263 18.8416 55.2734C18.506 55.3348 18.1724 55.4044 17.843 55.4801C17.6567 55.5476 17.4685 55.6151 17.2863 55.6888C16.7911 55.9405 16.4412 56.2761 16.2877 56.6466C16.2836 56.6568 16.2774 56.665 16.2692 56.6752C16.2692 57.4283 16.2692 58.1834 16.2692 58.9386C16.2692 61.822 16.2692 64.7075 16.2692 67.593C16.2692 67.6483 16.1731 67.5869 16.1485 67.5807C16.038 67.5459 15.9459 67.4334 15.8804 67.372C15.7351 67.239 15.5059 67.0507 15.5059 66.8911C15.5059 66.0766 15.5059 65.2641 15.5059 64.4497C15.5059 61.8711 15.5059 59.2926 15.5059 56.7141C15.3872 56.6916 15.287 56.6629 15.2358 56.6404C14.3088 56.2311 13.0666 56.1697 12.0045 56.4665C10.9239 56.7652 10.2118 57.3608 10.0071 58.0054C9.99894 58.032 9.98052 58.0525 9.95392 58.0709C9.95392 58.5989 9.95392 59.1289 9.95392 59.6589C9.95392 62.4134 9.95392 65.168 9.95392 67.9225C9.95392 68.1046 9.65104 67.9163 9.57328 67.859C9.38296 67.7158 9.15989 67.507 9.15989 67.3249C9.15989 66.5473 9.15989 65.7676 9.15989 64.9899C9.15989 62.6774 9.15989 60.365 9.15989 58.0545C9.06985 58.034 8.99413 58.0136 8.95525 57.9993C8.06914 57.6821 6.91494 57.7066 6.00427 57.9788C5.07723 58.2551 4.44284 58.7585 4.19522 59.3131C4.16043 59.3929 4.02331 59.4297 3.85346 59.4338C3.27636 58.9345 2.49257 58.2612 1.77018 57.6657C1.78041 57.6534 1.79064 57.6411 1.80292 57.6268C1.80497 57.6207 1.80497 57.6166 1.80906 57.6104C1.81724 57.5961 1.83157 57.5879 1.84385 57.5777C2.35955 56.976 3.22929 56.4808 4.33028 56.1922C5.43127 55.9078 6.65709 55.8689 7.81129 56.0306C8.29629 55.3941 9.23766 54.86 10.4062 54.596C11.6463 54.3136 13.0911 54.3423 14.3006 54.6533C14.5646 54.4548 14.9616 54.2993 15.3463 54.1622C16.0605 53.9084 16.7952 53.6547 17.6117 53.5094C18.6431 53.3272 19.783 53.3293 20.7162 53.5851C21.0845 53.0796 21.9747 52.7153 22.9775 52.5352C24.2565 52.3081 25.8712 52.2508 26.8801 52.8299C27.2791 53.0591 26.9149 53.3027 26.481 53.3436ZM102.48 53.4766L75.4259 47.1469V49.6518L98.9948 54.8232L102.48 53.4766ZM50.9749 39.6836H75.8454L78.0044 37.4345H24.4816L26.6406 39.6836H50.9749ZM60.0448 59.3356C60.3456 59.3356 60.6485 59.3356 60.9493 59.3356C60.892 59.3233 60.8552 59.3008 60.8552 59.264C60.8552 58.3594 60.8552 57.4569 60.8552 56.5504C60.8552 53.4909 60.8552 50.4315 60.8552 47.3741C58.1027 47.3741 55.3502 47.3741 52.5978 47.3741C52.2785 47.3741 51.9613 47.3741 51.6441 47.3741C51.5602 47.3741 51.4743 47.3741 51.3883 47.3741C51.0711 47.3741 50.7539 47.3741 50.4367 47.3741C47.6822 47.3741 44.9297 47.3741 42.1752 47.3741C42.1752 48.1477 42.1752 48.9212 42.1752 49.6968C42.1752 52.8402 42.1752 55.9815 42.1752 59.1248C42.1752 59.1739 42.1363 59.2189 42.0811 59.2517C43.2987 59.2517 44.5164 59.2517 45.734 59.2517C46.1903 57.4856 47.0437 55.787 48.7034 54.8743C49.6059 54.375 50.6557 54.1683 51.681 54.3136C52.7144 54.463 53.6947 54.9419 54.4805 55.6213C55.6224 56.6077 56.3182 57.9256 56.748 59.3356C57.8469 59.3356 58.9458 59.3356 60.0448 59.3356ZM56.8564 66.2321C56.8523 65.6489 56.8482 65.0636 56.838 64.4804C56.7377 64.642 56.6149 64.7873 56.4737 64.9101C56.3141 65.0472 56.1279 65.1721 56.0194 65.3583C55.9846 65.4156 55.9724 65.4688 55.9662 65.524C56.2568 65.6837 56.5229 65.8678 56.7541 66.1134C56.7889 66.1523 56.8237 66.1912 56.8564 66.2321ZM56.4267 62.9373C56.3898 62.921 56.353 62.9025 56.3162 62.8862C56.4001 63.011 56.5515 62.9864 56.4267 62.9373ZM56.3735 62.5444C56.5188 62.6733 56.6661 62.8227 56.7889 62.9885C56.7459 62.1392 56.6743 61.2899 56.5372 60.4509C56.5126 60.3015 56.486 60.1501 56.4574 59.9986C56.4328 59.9986 56.4083 59.9986 56.3837 59.9986C56.5024 60.2483 56.5515 60.5184 56.4778 60.807C56.4144 61.0464 56.2916 61.2613 56.1258 61.4434C55.9846 61.599 55.7779 61.7217 55.6838 61.9162C55.6531 61.9796 55.6511 62.0308 55.6511 62.084C55.69 62.1065 55.7268 62.129 55.7595 62.1454C55.9826 62.2518 56.1872 62.3787 56.3735 62.5444ZM56.308 62.8698C56.3059 62.8514 56.3018 62.833 56.3018 62.8145C56.2998 62.7859 56.2711 62.7613 56.2711 62.7327C56.2732 62.792 56.2896 62.835 56.308 62.8698ZM55.8578 59.3213C55.9355 59.3929 56.0092 59.4727 56.0808 59.5546C56.1484 59.4829 56.2364 59.4236 56.3284 59.3847C56.1811 58.7585 55.9826 58.1466 55.6879 57.5797C55.2807 56.798 54.6278 56.1656 53.8215 55.7359C53.4061 55.5128 52.9538 55.3491 52.4873 55.2509C52.8597 55.4432 53.2056 55.8136 53.3672 56.1677C53.5228 56.5135 53.3938 56.8532 53.3713 57.1991C53.3713 57.1991 53.3734 57.1971 53.3754 57.1971C53.5187 57.1172 53.6353 56.9985 53.7601 56.8942C54.0467 56.6506 54.3475 56.5258 54.6913 56.7509C55.0801 57.0026 55.5303 57.4774 55.5549 57.9706C55.5672 58.2141 55.4607 58.4597 55.3502 58.6705C55.3257 58.7155 55.2602 58.8097 55.1968 58.912C55.4526 58.9816 55.6674 59.1412 55.8578 59.3213ZM55.1088 57.4099C55.0576 57.4099 55.0044 57.3853 54.9491 57.3894C54.9409 57.3894 54.9328 57.3915 54.9246 57.3935C54.9757 57.4037 55.0351 57.4119 55.1088 57.4099ZM54.812 57.3526C54.8141 57.2994 54.812 57.2482 54.8038 57.1971C54.7977 57.1664 54.7875 57.1357 54.7813 57.105C54.7363 56.9126 54.5767 57.2196 54.812 57.3526ZM51.7444 55.1547C51.4681 55.1404 51.1878 55.1506 50.9135 55.1895C50.4592 55.2529 50.0172 55.3921 49.6018 55.5865C49.8371 55.7216 50.0438 55.9405 50.2034 56.1288C50.3426 56.2925 50.4613 56.4706 50.5677 56.6568C50.582 56.6793 50.5963 56.7039 50.6086 56.7284C50.6168 56.7284 50.625 56.7305 50.6352 56.7284C50.7069 56.7223 50.7703 56.6998 50.8296 56.6588C50.9463 56.577 51.0118 56.4419 51.0629 56.313C51.1816 56.0019 51.2123 55.6336 51.4231 55.3655C51.5091 55.2591 51.6216 55.1915 51.7444 55.1547ZM48.1447 56.6015C47.6699 57.0702 47.2995 57.6166 47.0048 58.21C47.1501 58.2592 47.2709 58.3676 47.4018 58.4474C47.7948 58.6889 48.0567 58.0709 48.0894 57.7762C48.1345 57.3874 48.0956 56.9883 48.1447 56.6015ZM46.8595 60.3138C46.7101 60.1173 46.5628 59.9209 46.438 59.7101C46.2845 60.2463 46.1719 60.7947 46.086 61.337C46.4523 61.2695 47.0314 61.3698 47.0703 60.8786C47.0846 60.6699 46.9823 60.4734 46.8595 60.3138ZM46.3009 62.8678C46.1903 62.7511 46.0839 62.6304 45.9877 62.5035C45.9734 62.4851 45.9611 62.4667 45.9468 62.4462C45.9059 62.835 45.8752 63.2259 45.8527 63.6168C46.0532 63.5451 46.2804 63.5431 46.4912 63.6004C46.5792 63.5144 46.6221 63.4223 46.6078 63.2955C46.6058 63.275 46.5792 63.1706 46.5526 63.1031C46.526 63.0826 46.5014 63.0601 46.4768 63.0376C46.4175 62.9824 46.3582 62.9251 46.3009 62.8678ZM46.5137 63.0519C46.526 63.0642 46.5321 63.0724 46.5423 63.0826C46.5321 63.0622 46.5219 63.0499 46.5137 63.0519ZM45.9223 65.2539C45.955 65.2723 45.9877 65.2928 46.0205 65.3112C45.9223 65.1987 45.7954 65.1782 45.9223 65.2539ZM45.7831 65.434C45.7708 65.8085 45.7626 66.181 45.7524 66.5554C46.1269 66.5452 46.483 66.4286 46.5219 66.0234C46.4687 65.9927 46.4155 65.962 46.3643 65.9292C46.1494 65.7921 45.955 65.6202 45.7831 65.434ZM42.1629 46.9525C44.9195 46.9525 47.6761 46.9525 50.4326 46.9525C50.7519 46.9525 51.0691 46.9525 51.3863 46.9525C51.4722 46.9525 51.5561 46.9525 51.6421 46.9525C51.9593 46.9525 52.2765 46.9525 52.5937 46.9525C55.3666 46.9525 58.1375 46.9525 60.9104 46.9525C60.9391 46.9525 60.978 46.9546 61.0169 46.9628C61.2194 46.8789 61.5448 46.8748 61.5448 46.9832C61.5448 47.8878 61.5448 48.7923 61.5448 49.6968C61.5448 52.8402 61.5448 55.9815 61.5448 59.1248C61.5448 59.2353 61.3647 59.311 61.1908 59.3356C62.0442 59.3356 62.8975 59.3356 63.753 59.3356C63.6895 59.2742 63.6424 59.1985 63.6424 59.1187C63.6424 58.0054 63.6424 56.8921 63.6424 55.7768C63.6424 51.9766 63.6424 48.1763 63.6424 44.3761C62.5415 44.3576 61.4425 44.3474 60.3415 44.3413C57.3517 44.3228 54.3598 44.3024 51.3699 44.284C50.9934 44.286 50.6168 44.284 50.2423 44.284C48.597 44.286 46.9516 44.3208 45.3063 44.329C43.3356 44.3372 41.3607 44.3433 39.39 44.3761C39.39 45.4668 39.39 46.5596 39.39 47.6524C39.39 51.5202 39.39 55.3859 39.39 59.2517C40.0878 59.2517 40.7877 59.2517 41.4856 59.2517C41.4856 58.3512 41.4856 57.4508 41.4856 56.5504C41.4856 53.4091 41.4856 50.2657 41.4856 47.1224C41.4856 46.9218 42.0749 46.8379 42.1629 46.9525ZM54.6176 58.8035C54.5705 58.7708 54.5726 58.783 54.6176 58.8035V58.8035ZM57.4642 65.4627C57.4765 66.2812 57.4806 67.1019 57.4847 67.9204H56.8646C56.8646 67.8345 56.8646 67.7465 56.8646 67.6585C56.6006 67.8795 56.22 67.9532 55.8782 67.9593C55.7043 67.9634 55.471 67.6646 55.3768 67.5541C55.3523 67.5234 55.0801 67.196 55.2254 67.1939C55.5774 67.1878 55.9458 67.108 56.2036 66.8522C56.3162 66.7376 56.4042 66.5902 56.4369 66.4347C56.4512 66.3651 56.4533 66.2935 56.4492 66.226C56.441 66.2198 56.4308 66.2137 56.4246 66.2096C56.308 66.1503 56.1913 66.0909 56.0808 66.0193C55.6449 65.7348 54.9266 65.0841 55.3482 64.5295C55.5324 64.288 55.8086 64.1406 55.9969 63.9012C56.1852 63.6597 56.3264 63.3609 56.3284 63.0519C56.3284 62.9926 56.3182 62.9394 56.31 62.8841C56.2097 62.8371 56.1115 62.7859 56.0153 62.7347C55.6367 62.528 55.2868 62.2027 55.0576 61.8363C54.8837 61.5539 54.8366 61.2633 55.0781 61.0055C55.3134 60.7497 55.5651 60.5614 55.6981 60.2278C55.7657 60.0621 55.7923 59.882 55.7698 59.706C55.7677 59.6917 55.7616 59.6733 55.7554 59.6548C55.5344 59.6078 55.3093 59.6159 55.1006 59.5116C54.8038 59.3622 54.4068 58.9918 54.3332 58.6562C54.2656 58.3472 54.5971 58.0095 54.7138 57.7414C54.7568 57.6411 54.7895 57.5347 54.8038 57.4242C54.6278 57.4958 54.4785 57.6534 54.3413 57.768C54.1797 57.9072 53.9832 58.0586 53.754 58.0279C53.3938 57.9808 53.0644 57.5961 52.8679 57.3239C52.6817 57.064 52.6019 56.7775 52.6407 56.4603C52.6633 56.2721 52.7103 56.0879 52.7103 55.8996C52.5527 55.8853 52.4034 55.8955 52.2519 56.0122C52.0616 56.1615 51.9838 56.4153 51.9163 56.6384C51.8037 57.0149 51.6728 57.6104 51.1387 57.4815C50.8358 57.4099 50.5738 57.1254 50.3815 56.9003C50.2075 56.6977 50.0765 56.4747 49.9435 56.2455C49.8453 56.2311 49.7573 56.2127 49.6427 56.2475C49.3705 56.3334 49.1413 56.5627 49.0144 56.8144C48.687 57.4692 49.037 58.2673 48.7013 58.912C48.5806 59.1453 48.3657 59.3233 48.0915 59.2476C47.7927 59.1657 47.6229 58.8281 47.2913 59.0082C47.0171 59.1555 46.878 59.4788 46.9271 59.7776C46.9803 60.0969 47.2033 60.3343 47.3896 60.5839C47.6699 60.9584 48.1508 61.8343 47.4182 62.0267C47.1604 62.0942 46.8575 62.0226 46.6201 62.1515C46.4789 62.2252 46.3929 62.3623 46.4052 62.5219C46.4114 62.5894 46.4666 62.704 46.4707 62.7102C46.7613 63.0438 47.7518 63.8521 47.2033 64.3637C47.1726 64.376 47.1419 64.3719 47.1133 64.3514C46.6528 64.1877 46.1003 64.5213 46.0348 65.0022C46.0184 65.1107 46.0246 65.2253 46.0512 65.3296C46.1781 65.4054 46.3029 65.4811 46.4216 65.567C46.7715 65.8146 47.3773 66.3242 47.2627 66.8215C47.1338 67.3884 46.4359 67.3556 45.9898 67.2963C45.9038 67.284 45.8158 67.2246 45.734 67.153C45.7238 67.4088 45.7135 67.6646 45.7012 67.9204H45.0259C45.2265 65.3808 45.0566 62.8105 45.5068 60.2933C45.5437 60.0846 45.5887 59.8718 45.6358 59.663C44.4979 59.663 43.3622 59.663 42.2243 59.663C38.1089 59.663 33.9915 59.663 29.874 59.663C29.7328 59.663 29.5118 59.6221 29.6285 59.4666C29.739 59.3172 30.0582 59.2517 30.2506 59.2517C31.4191 59.2517 32.5856 59.2517 33.752 59.2517C35.4506 59.2517 37.1491 59.2517 38.8497 59.2517C38.8231 59.2108 38.8027 59.1657 38.8027 59.1187C38.8027 58.0054 38.8027 56.8921 38.8027 55.7768C38.8027 51.8394 38.8027 47.9 38.8027 43.9606C38.8027 43.887 38.8702 43.8808 38.9418 43.8972C39.0196 43.8358 39.124 43.8031 39.2201 43.801C40.3764 43.7805 41.5326 43.7703 42.6889 43.7642C45.5948 43.7478 48.5008 43.7273 51.4067 43.7089C51.4149 43.7089 51.4231 43.7069 51.4313 43.7069C51.5091 43.7089 51.5848 43.7069 51.6625 43.7069C51.6666 43.7069 51.6728 43.7069 51.6769 43.7069H51.6789C52.0473 43.7089 52.4197 43.7089 52.7881 43.7089C54.4334 43.7089 56.0788 43.7458 57.7241 43.7519C59.7787 43.7601 61.8334 43.7642 63.888 43.801C64.1438 43.8051 64.2154 43.9872 64.1581 44.1448C64.197 44.196 64.2277 44.2533 64.2277 44.3106C64.2277 45.4259 64.2277 46.5392 64.2277 47.6524C64.2277 51.5468 64.2277 55.4432 64.2277 59.3356C66.9311 59.3356 69.6365 59.3356 72.3398 59.3356C72.5363 59.3356 72.6284 59.4625 72.5383 59.6446C72.4483 59.8308 72.1986 59.9986 71.9899 59.9986C70.8173 59.9986 69.6467 59.9986 68.4761 59.9986C64.6268 59.9986 60.7795 59.9986 56.9301 59.9986C57.0774 60.5962 57.1818 61.204 57.2575 61.8036C57.411 63.0171 57.4499 64.2409 57.4642 65.4627ZM3.48305 54.8232L27.052 49.6518V47.1469L0 53.4766L3.48305 54.8232ZM32.4792 66.0418C32.4485 66.0397 32.4178 66.0397 32.3871 66.0377C32.3298 66.0397 32.2704 66.0418 32.2111 66.0418C32.3011 66.0418 32.3891 66.0418 32.4792 66.0418ZM31.9102 66.0438C31.8755 66.0418 31.8427 66.0397 31.81 66.0397C31.81 66.0397 31.8079 66.0418 31.8059 66.0418C31.8407 66.0418 31.8755 66.0418 31.9102 66.0438ZM34.2186 61.7402C34.2186 63.1522 34.2186 64.5622 34.2186 65.9743C34.2186 66.0029 34.2064 66.0254 34.1859 66.0459C34.2186 66.0602 34.2248 66.0807 34.1818 66.1093C34.0713 66.181 33.7725 66.2055 33.5883 66.2096C32.2152 66.2403 30.8645 66.2464 29.4934 66.1973C29.4627 66.1953 29.3256 66.183 29.3276 66.1564C29.4606 64.6789 29.5916 63.1993 29.7246 61.7217C29.7246 61.7197 29.7267 61.7197 29.7267 61.7197C29.6858 61.646 29.7267 61.5151 29.9518 61.5151C30.5207 61.5151 31.0855 61.5314 31.6524 61.5396C32.2827 61.5498 32.913 61.5396 33.5413 61.5151C33.6211 61.511 33.6968 61.5212 33.7643 61.5396C33.9894 61.5539 34.2186 61.6256 34.2186 61.7402ZM62.9733 49.2323C62.9773 49.2671 62.9773 49.3039 62.9773 49.3387C62.9773 49.3489 62.9753 49.3571 62.9753 49.3653C62.9651 49.4062 62.9548 49.4472 62.9405 49.486C62.9385 49.4901 62.9364 49.4942 62.9364 49.4983C62.918 49.5311 62.8975 49.5658 62.8812 49.5986C62.8791 49.6006 62.8791 49.6027 62.8771 49.6047C62.875 49.6088 62.873 49.6109 62.8709 49.615C62.8423 49.6498 62.8136 49.6825 62.785 49.7132C62.7829 49.7152 62.7788 49.7193 62.7768 49.7214C62.74 49.7521 62.7052 49.7807 62.6663 49.8053C62.6254 49.8319 62.5824 49.8564 62.5333 49.8728C62.4309 49.9056 62.3962 49.9137 62.2877 49.9137C62.2202 49.9097 62.1588 49.8892 62.1015 49.8503C62.081 49.8278 62.0605 49.8053 62.0401 49.7828C62.0053 49.7275 61.993 49.6641 62.0012 49.6006C62.0114 49.5658 62.0196 49.5331 62.0298 49.5004C62.0462 49.4574 62.0749 49.4206 62.1035 49.3858C62.1076 49.3776 62.1076 49.3714 62.1097 49.3632C62.1301 49.3305 62.1465 49.2998 62.1649 49.265C62.214 49.1975 62.2734 49.1422 62.345 49.0972C62.3839 49.0788 62.4207 49.0583 62.4596 49.0399C62.5148 49.0154 62.5722 49.0051 62.6315 49.0051C62.6847 48.9969 62.7379 49.0031 62.7891 49.0194C62.8361 49.0338 62.8771 49.0583 62.9057 49.0972C62.9405 49.1279 62.963 49.1688 62.9712 49.218C62.9733 49.222 62.9733 49.2282 62.9733 49.2323ZM29.3256 27.8571C29.5118 27.982 29.8106 28.0843 30.0336 28.0127C31.5767 27.5256 33.222 27.4438 34.8039 27.8019C34.9124 27.8264 35.2869 27.8674 35.2439 27.6525C35.2296 27.5727 35.1968 27.5011 35.158 27.4356C35.1784 27.4356 35.1989 27.4356 35.2214 27.4376C35.0679 26.1504 34.5747 24.8673 33.3059 24.2349C33.0235 24.0958 32.7186 23.9873 32.3993 23.973C31.4457 23.932 30.5207 24.6606 30.0255 25.3727C29.5937 25.9908 29.2335 26.8401 29.1434 27.5747V27.6095C29.1434 27.6095 29.1455 27.6095 29.1475 27.6095C29.1496 27.6996 29.2519 27.806 29.3256 27.8571ZM94.6748 6.218V6.15866C94.5642 4.90214 94.1222 3.45325 93.5942 2.39524C92.9885 1.17965 91.8568 -0.0686832 90.6862 0.0029426C90.2974 0.0254531 89.925 0.21168 89.5791 0.451115C88.0259 1.53164 87.4201 3.72338 87.2359 5.92127C89.6507 5.8169 92.262 6.07271 94.6748 6.218ZM15.2419 5.92127C15.0578 3.72338 14.452 1.53164 12.8988 0.451115C12.555 0.21168 12.1804 0.0254531 11.7916 0.0029426C10.6231 -0.0686832 9.49142 1.17965 8.88362 2.39524C8.35564 3.45325 7.91361 4.90214 7.80515 6.15866V6.218C10.2179 6.07271 12.8292 5.8169 15.2419 5.92127ZM67.6228 27.8019C69.2047 27.4438 70.848 27.5256 72.393 28.0127C72.6182 28.0843 72.9169 27.982 73.1011 27.8571C73.1748 27.806 73.2771 27.6996 73.2812 27.6095H73.2832V27.5747C73.1932 26.8401 72.833 25.9908 72.4033 25.3727C71.906 24.6606 70.983 23.932 70.0274 23.973C69.7081 23.9873 69.4032 24.0958 69.1208 24.2349C67.852 24.8673 67.3588 26.1504 67.2053 27.4376C67.2258 27.4356 67.2483 27.4356 67.2687 27.4356C67.2299 27.5011 67.1992 27.5727 67.1828 27.6525C67.1398 27.8674 67.5164 27.8264 67.6228 27.8019ZM78.34 38.5744C78.297 38.7442 78.6286 38.7074 78.7145 38.6931C80.1798 38.4332 81.7023 38.4905 83.143 38.8466C83.3395 38.8936 83.581 38.8261 83.7426 38.7217C83.7999 38.6869 83.8838 38.6051 83.8961 38.5375C83.9104 38.5375 83.9227 38.5375 83.937 38.5375V38.513C83.8531 37.9809 83.5196 37.367 83.1226 36.9188C82.6642 36.4031 81.8108 35.8751 80.9288 35.9058C80.6361 35.916 80.3537 35.9938 80.0938 36.0941C78.9212 36.5525 78.4669 37.4816 78.3257 38.4127C78.3564 38.4107 78.3871 38.4127 78.4157 38.4107C78.383 38.4598 78.3564 38.513 78.34 38.5744ZM18.5817 38.5375C18.5695 38.5375 18.5551 38.5375 18.5429 38.5375V38.513C18.6247 37.9809 18.9583 37.367 19.3573 36.9188C19.8137 36.4031 20.6671 35.8751 21.5511 35.9058C21.8417 35.916 22.1262 35.9938 22.384 36.0941C23.5566 36.5525 24.013 37.4816 24.1522 38.4127C24.1235 38.4107 24.0908 38.4127 24.0621 38.4107C24.0949 38.4598 24.1215 38.513 24.1378 38.5744C24.1808 38.7442 23.8493 38.7074 23.7633 38.6931C22.3001 38.4332 20.7755 38.4905 19.3369 38.8466C19.1384 38.8936 18.8989 38.8261 18.7352 38.7217C18.68 38.6869 18.594 38.6051 18.5817 38.5375Z" fill="#DA8917"/>
</g>
</svg>
