<svg width="78" height="27" viewBox="0 0 78 27" fill="none" xmlns="http://www.w3.org/2000/svg">
<path d="M76.5021 2.44297H76.5056L76.4914 2.43584C75.1412 1.59508 73.0357 0.971636 70.8198 0.561944L70.8056 0.554819H70.7985C67.4639 -0.0543764 63.9014 -0.17194 62.2982 0.252003L50.8874 3.31579C43.3882 2.23278 33.9724 0.985887 33.9724 0.985887L25.8463 3.14123C25.8463 3.14123 31.3931 5.45332 35.8428 7.35215L24.1113 10.4979C23.438 10.676 21.9488 11.1178 20.2068 11.2318L9.39087 6.61114C6.75459 4.73368 4.68475 3.0201 4.68475 3.0201L0 4.26343C3.97224 9.42912 8.48242 15.7954 11.0261 18.0968C11.3574 18.3996 11.7279 18.6739 12.1198 18.9375L6.3057 20.4766C6.25939 20.8008 6.21308 21.1535 6.36627 21.4563C7.54903 23.7862 10.9192 22.8955 12.273 22.5322L17.8305 21.0608C23.894 22.2222 31.1188 21.271 33.3917 20.6689L34.9521 20.2521C32.3871 23.6187 29.7864 26.9925 29.7864 26.9925L37.9126 24.8371C37.9126 24.8371 43.3205 20.7188 48.6002 16.6326L66.9509 11.759C70.2356 10.8898 78.8106 7.33434 77.9378 4.05324C77.781 3.45117 77.2573 2.91322 76.5021 2.44297Z" fill="#3CAAD8"/>
</svg>
