<svg width="320" height="98" viewBox="0 0 320 98" fill="none" xmlns="http://www.w3.org/2000/svg">
<mask id="mask0_2_6185" style="mask-type:luminance" maskUnits="userSpaceOnUse" x="-1" y="-1" width="322" height="99">
<path d="M-0.498173 -0.0247129H320.079V97.6899H-0.498173V-0.0247129Z" fill="white"/>
</mask>
<g mask="url(#mask0_2_6185)">
<path d="M16.5269 28.682C11.8186 31.0768 8.04059 34.7557 5.29554 39.128C4.93472 39.7011 5.1116 40.4652 5.68466 40.8331C6.2648 41.1939 7.02889 41.017 7.39678 40.4439C9.92605 36.4077 13.3821 33.0613 17.6483 30.8858C18.2603 30.578 18.5008 29.8352 18.1895 29.2232C17.8782 28.6148 17.1318 28.3707 16.5269 28.682ZM1.98096 46.0649C0.679188 49.8323 0 53.8438 0 57.8517C0 58.9766 0.0565985 60.105 0.162722 61.2264C0.226396 61.9056 0.834835 62.4043 1.51756 62.3371C2.19321 62.2735 2.69553 61.6721 2.62832 60.9894C2.52927 59.9458 2.47621 58.8988 2.47621 57.8517C2.47621 54.1197 3.10587 50.3806 4.32275 46.875C4.54561 46.2277 4.20601 45.5237 3.55866 45.3008C2.91131 45.078 2.20736 45.4211 1.9845 46.0649H1.98096ZM1.77579 68.7505C1.83593 68.9238 1.89607 69.1007 1.96328 69.2705C3.65771 73.9647 6.30371 78.1919 9.59707 81.8461C10.0569 82.352 10.8352 82.3909 11.3481 81.9345C11.8504 81.4747 11.8929 80.6964 11.433 80.187C8.3342 76.7487 5.87215 72.7973 4.29091 68.4286C4.23078 68.2694 4.17418 68.1138 4.12111 67.9511C3.90179 67.3072 3.19431 66.957 2.54695 67.1799C1.90314 67.4028 1.55293 68.1067 1.77579 68.7505ZM15.1933 87.0355C19.1871 90.1449 23.7221 92.6105 28.5153 94.3297C29.1591 94.5632 29.8701 94.2236 30.1001 93.5798C30.3335 92.9395 29.9939 92.232 29.3501 91.9986C24.801 90.3678 20.4959 88.026 16.7144 85.0864C16.1767 84.6619 15.3985 84.761 14.9775 85.2986C14.5601 85.8399 14.6556 86.6146 15.1933 87.0355ZM35.8696 96.3319C36.28 96.4062 36.6974 96.4805 37.1113 96.5512C40.0155 97.0182 42.9303 97.2375 45.8416 97.2375C47.5679 97.2375 49.2871 97.1597 51.0028 97.0111C51.6855 96.951 52.1878 96.3531 52.1277 95.6704C52.0675 94.9877 51.4697 94.4854 50.7905 94.5455C49.1421 94.687 47.4936 94.7613 45.8416 94.7613C43.0541 94.7613 40.2737 94.5526 37.511 94.1033C37.1148 94.0397 36.7221 93.9724 36.3295 93.8981C35.6574 93.7708 35.0065 94.2165 34.8827 94.8816C34.7518 95.5537 35.1975 96.2046 35.8696 96.3319ZM58.4915 95.9003C63.4156 94.8816 68.2336 93.3109 72.8641 91.3194C73.4903 91.0505 73.7803 90.3183 73.5079 89.6921C73.2391 89.066 72.5104 88.7724 71.8843 89.0413C67.3917 90.9798 62.7294 92.4938 57.9892 93.4772C57.3171 93.6187 56.8926 94.2696 57.0306 94.9417C57.1685 95.6103 57.8229 96.0418 58.4915 95.9003ZM79.6419 88.026C80.2397 87.7041 80.8304 87.3751 81.4177 87.0391C85.1426 84.9095 88.8003 82.359 92.0759 79.4265C92.5818 78.9666 92.6278 78.1849 92.1715 77.6755C91.7151 77.1696 90.9334 77.1236 90.424 77.58C87.3004 80.3816 83.7771 82.8366 80.1831 84.8883C79.6136 85.2137 79.044 85.5356 78.4639 85.8505C77.8625 86.1724 77.6397 86.9259 77.9651 87.5272C78.2941 88.1251 79.044 88.3515 79.6419 88.026ZM97.3397 73.9046C100.598 69.8471 103.035 65.2308 104.004 60.1369C104.128 59.4612 103.686 58.8138 103.014 58.6865C102.342 58.5592 101.698 59.0013 101.567 59.6734C100.693 64.2898 98.4716 68.5383 95.4082 72.3587C94.9802 72.8893 95.0651 73.6711 95.5957 74.0991C96.1299 74.5271 96.9081 74.4387 97.3397 73.9046ZM104.132 52.2979C103.162 47.1368 100.113 42.4143 96.1192 39.1316C95.5922 38.6964 94.8069 38.7707 94.3788 39.2978C93.9402 39.8284 94.0145 40.6102 94.5486 41.0418C98.125 43.9743 100.863 48.2581 101.698 52.7542C101.825 53.4263 102.472 53.865 103.145 53.7412C103.817 53.6138 104.262 52.97 104.139 52.2979H104.132ZM89.2354 35.3359C87.7037 34.8619 86.1295 34.6036 84.5447 34.6036C82.0155 34.6001 79.4721 35.2722 77.1338 36.7579C76.0761 37.43 75.1387 38.2189 74.3286 39.0891C73.8617 39.5914 73.89 40.3732 74.3923 40.8366C74.8946 41.3071 75.6764 41.2788 76.1433 40.7765C76.8154 40.0548 77.5795 39.411 78.4604 38.8486C80.3989 37.6211 82.4506 37.0798 84.5447 37.0798C85.8536 37.0798 87.1872 37.2956 88.4996 37.6989C89.1505 37.9041 89.8474 37.5362 90.0525 36.8888C90.2506 36.2344 89.8898 35.5411 89.2354 35.3359ZM70.6462 46.1675C70.2995 47.6356 70.1332 49.1673 70.1332 50.7096C70.1368 54.3602 71.06 58.1028 72.7757 61.4351C73.0905 62.04 73.8369 62.2805 74.4454 61.9657C75.0538 61.6509 75.2943 60.9045 74.9795 60.2996C73.4372 57.3246 72.6094 53.9393 72.613 50.7096C72.613 49.3406 72.758 48.0034 73.0587 46.7335C73.2179 46.0685 72.804 45.4034 72.1354 45.2442C71.4739 45.0886 70.8053 45.4989 70.6462 46.1675ZM77.5548 67.6539L77.7953 67.8626C81.7183 71.2161 86.3559 73.2714 91.2553 74.4705C91.9203 74.6333 92.5889 74.23 92.7551 73.5614C92.9179 72.8999 92.5075 72.2278 91.846 72.0651C87.2226 70.9366 82.9706 69.03 79.4048 65.9842L79.1961 65.8003C78.6832 65.344 77.8979 65.3935 77.4486 65.9064C76.9959 66.4158 77.0418 67.2011 77.5548 67.6539ZM98.7617 75.6945C100.99 75.8997 103.233 75.981 105.458 75.981C107.252 75.981 109.041 75.928 110.803 75.8395C111.801 75.7865 112.809 75.7228 113.813 75.6485C114.496 75.5919 115.006 75.0012 114.953 74.3184C114.903 73.6357 114.309 73.1263 113.63 73.1794C112.639 73.2537 111.659 73.3138 110.676 73.3633C108.95 73.4518 107.206 73.5084 105.458 73.5084C103.293 73.5084 101.128 73.4235 98.9916 73.2289C98.3089 73.1652 97.7075 73.6711 97.6474 74.3467C97.5802 75.0259 98.0825 75.6308 98.7617 75.6945ZM121.302 74.7642C126.332 73.9116 131.264 72.479 135.735 69.9709C136.333 69.6384 136.542 68.8814 136.209 68.2836C135.873 67.6857 135.119 67.477 134.525 67.8095C130.383 70.1337 125.735 71.5062 120.888 72.3198C120.216 72.4365 119.763 73.0733 119.873 73.7489C119.99 74.421 120.63 74.8738 121.302 74.7642ZM141.968 65.4678C145.721 62.0683 148.781 58.0179 151.703 53.9322C152.096 53.3733 151.968 52.6056 151.416 52.2059C150.858 51.8062 150.086 51.9371 149.687 52.4925C146.793 56.5428 143.829 60.4481 140.302 63.6248C139.796 64.0846 139.754 64.8699 140.213 65.3793C140.673 65.8817 141.455 65.9241 141.968 65.4678ZM156.005 47.8973C156.252 47.5613 156.496 47.2287 156.744 46.8962C159.429 43.2987 162.347 39.8921 165.467 36.6836C165.945 36.1919 165.934 35.4102 165.446 34.9362C164.954 34.4586 164.169 34.4692 163.691 34.9609C160.497 38.2437 157.511 41.7316 154.759 45.4176C154.508 45.7536 154.257 46.0932 154.006 46.4328C153.603 46.9882 153.723 47.7629 154.275 48.1662C154.827 48.5694 155.601 48.4492 156.005 47.8973ZM170.77 31.6039C174.413 28.3424 178.283 25.3249 182.337 22.5693C182.903 22.1837 183.052 21.4125 182.666 20.8465C182.281 20.2841 181.506 20.1355 180.947 20.5176C176.801 23.3369 172.846 26.4251 169.114 29.7609C168.608 30.2137 168.562 30.999 169.019 31.5084C169.475 32.0178 170.257 32.0602 170.77 31.6039ZM188.545 18.6392C192.758 16.1488 197.141 13.9273 201.648 11.9923C202.274 11.7164 202.564 10.9912 202.292 10.3651C202.023 9.73545 201.294 9.44538 200.668 9.71423C196.07 11.6952 191.595 13.9662 187.283 16.5026C186.695 16.8492 186.501 17.6098 186.847 18.197C187.194 18.7842 187.955 18.9788 188.545 18.6392ZM208.486 9.29327C213.099 7.63775 217.821 6.2723 222.6 5.20753C223.269 5.05896 223.69 4.39392 223.541 3.72888C223.393 3.06031 222.731 2.64289 222.063 2.79146C217.181 3.88099 212.363 5.27474 207.651 6.9621C207.007 7.19557 206.668 7.90306 206.901 8.54687C207.131 9.19069 207.842 9.52674 208.486 9.29327ZM229.824 3.83501C234.67 3.07092 239.555 2.61105 244.451 2.47663C245.134 2.45894 245.671 1.88942 245.654 1.20669C245.633 0.520428 245.063 -0.0172628 244.384 0.000424111C239.378 0.141922 234.387 0.605326 229.438 1.3871C228.763 1.49322 228.299 2.12996 228.405 2.80561C228.511 3.47773 229.148 3.94113 229.824 3.83501ZM251.795 2.51908C256.687 2.70656 261.565 3.22657 266.387 4.08616C267.059 4.20644 267.703 3.76072 267.823 3.08861C267.947 2.41296 267.494 1.77268 266.822 1.64533C261.884 0.771585 256.896 0.237433 251.894 0.0428734C251.208 0.0145739 250.631 0.548727 250.61 1.23499C250.581 1.91418 251.116 2.49078 251.795 2.51908ZM273.564 5.63202C274.403 5.84427 275.244 6.06713 276.076 6.3006C279.939 7.38306 283.766 8.70252 287.445 10.2944C288.078 10.5632 288.803 10.2767 289.072 9.65055C289.348 9.02089 289.058 8.29218 288.428 8.01979C284.633 6.37842 280.699 5.03066 276.744 3.91637C275.892 3.67582 275.036 3.44943 274.173 3.23364C273.508 3.06384 272.835 3.46357 272.669 4.12508C272.499 4.79011 272.903 5.46576 273.564 5.63202ZM293.993 13.524C298.245 15.9154 302.182 18.7665 305.617 22.1589C306.105 22.6436 306.887 22.6365 307.364 22.1519C307.845 21.6637 307.842 20.8819 307.354 20.4044C303.739 16.8316 299.621 13.8495 295.203 11.3662C294.608 11.0337 293.855 11.2459 293.519 11.8402C293.183 12.4381 293.395 13.1915 293.993 13.524ZM310.304 27.6384C313.106 31.5544 315.232 35.9868 316.427 40.5819C316.601 41.2469 317.273 41.6431 317.934 41.4733C318.599 41.3 318.992 40.6244 318.822 39.9629C317.545 35.0494 315.288 30.3481 312.317 26.1951C311.917 25.6398 311.149 25.5124 310.591 25.9086C310.035 26.3083 309.904 27.083 310.304 27.6384ZM317.496 47.6568C317.513 48.0813 317.524 48.5093 317.524 48.9338C317.524 51.4914 317.202 54.0419 316.523 56.5322C316.066 58.209 315.419 59.8397 314.605 61.3962C314.287 62.0046 314.524 62.751 315.133 63.0659C315.737 63.3807 316.484 63.1472 316.799 62.5423C317.69 60.8373 318.408 59.0367 318.914 57.1796C319.65 54.4663 320 51.7001 320 48.9338C320 48.4704 319.989 48.0105 319.972 47.5542C319.944 46.8679 319.367 46.3338 318.681 46.3656C318.001 46.3939 317.467 46.9705 317.496 47.6568ZM310.516 67.1764C307.255 70.689 303.081 73.3209 298.616 74.4953C297.951 74.6651 297.559 75.3443 297.735 76.0058C297.905 76.6673 298.584 77.0635 299.246 76.8866C304.22 75.5778 308.776 72.6912 312.334 68.8602C312.798 68.3543 312.766 67.569 312.264 67.1056C311.765 66.6422 310.98 66.6705 310.516 67.1764ZM291.679 75.0967C291.251 75.0613 290.827 75.0047 290.399 74.941C289.723 74.8278 289.086 75.2912 288.98 75.9633C288.874 76.639 289.334 77.2757 290.006 77.3819C290.487 77.4597 290.975 77.5198 291.457 77.5623C292.132 77.6259 292.737 77.1236 292.801 76.4409C292.861 75.7653 292.362 75.1603 291.679 75.0967Z" fill="#3CAAD8"/>
</g>
</svg>
