<svg width="95" height="64" viewBox="0 0 95 64" fill="none" xmlns="http://www.w3.org/2000/svg">
<path d="M68.0179 43.7601C67.223 40.6818 65.7426 37.7979 63.1552 36.2638C59.9302 34.3512 60.8052 30.1844 60.3197 27.4478C60.3464 29.5379 59.7835 31.5811 59.9462 33.6746C60.0076 34.4919 60.197 35.3293 60.6104 35.9757C61.1039 36.7461 61.8748 37.0844 62.5497 37.5232C63.8194 38.3539 64.9877 39.409 66.012 40.6617C66.7722 41.5929 67.4471 42.6346 68.0179 43.7601ZM94.6309 49.6687C89.488 48.6303 84.2572 48.5198 79.0904 49.3404C78.6609 49.4074 77.4553 48.7877 77.6046 48.0642C77.618 48.0073 77.578 47.6355 77.5513 47.5049C77.4446 47.4948 77.2952 47.4412 77.2152 47.4312C77.0605 47.4144 76.9058 47.4077 76.7511 47.4077C76.0229 47.3977 75.2866 47.458 74.5638 47.5585C73.0967 47.7561 71.6509 48.1547 70.2559 48.7509C70.0905 48.8212 69.9144 48.8078 69.7384 48.7509C69.7597 48.9586 69.7811 49.1696 69.8024 49.3773C69.8211 49.4978 69.8397 49.6184 69.8557 49.739C69.8638 49.8093 69.8638 49.8663 69.8611 49.9165C70.0078 51.2296 70.1865 52.5761 70.4026 53.8288C69.5277 51.7588 68.8528 49.7558 68.7488 48.3422C68.7408 48.1915 68.7248 48.0441 68.7114 47.8968C68.6074 47.7226 68.554 47.5451 68.6714 47.4546C68.6687 47.4345 68.6661 47.4111 68.6634 47.391C68.3647 46.2521 67.9485 45.1635 67.4284 44.1486C66.6602 42.6547 65.6892 41.335 64.5742 40.2464C63.9981 39.6803 63.3819 39.1712 62.739 38.7358C62.0695 38.2802 61.3333 37.9386 60.7385 37.3323C59.6582 36.227 59.186 34.5421 59.1327 32.8339C59.0687 30.6935 59.7195 28.6067 59.5141 26.4664C59.4314 25.6324 60.2183 26.0209 60.277 26.6138C60.3037 26.8851 60.317 27.1564 60.3197 27.4277C62.0215 27.3406 64.1901 27.4244 64.4569 28.3823C64.9103 29.9868 62.6537 34.1234 65.5879 35.1384C68.522 36.1499 69.573 41.2178 69.4236 42.9093C69.3756 43.462 69.4316 45.0731 69.5917 47.0795C71.2882 46.4531 73.038 46.078 74.8092 46.0043C75.8495 45.9607 76.8844 45.9641 77.842 46.5469C78.2795 46.8115 78.7623 47.2235 79.0584 47.7527C83.9265 47.1163 88.8585 47.2771 93.6946 48.2552C94.1214 48.3422 94.6202 48.6102 94.8896 49.0557C95.0977 49.394 95.0123 49.7457 94.6309 49.6687ZM59.9036 45.5186C59.8582 45.4851 59.8129 45.4482 59.7649 45.4215C59.5008 45.2674 59.1914 45.2975 58.9113 45.3243C56.644 45.5119 54.3953 46.1717 52.2694 47.1833C52.4214 47.3977 52.5681 47.6188 52.7095 47.8432C53.7738 47.5987 54.7608 47.0292 55.7851 46.6072C56.804 46.1818 57.863 45.9105 58.9219 45.6995C59.2474 45.6325 59.5755 45.5755 59.9036 45.5186ZM35.4832 23.6092C34.5149 18.7825 35.0671 14.3544 28.5852 13.4869C28.5852 13.4869 27.4836 14.0329 26.8034 10.67C26.2859 8.1042 24.8802 3.80004 23.1117 2.42338C23.5305 5.08292 24.1013 7.69891 24.8348 10.2513C25.3336 11.9796 25.8885 14.7865 27.585 15.1818C29.1534 15.5469 30.8339 14.5956 32.2636 15.855C33.4826 16.9302 33.5893 18.9065 34.0508 20.531C34.3736 21.6698 34.8697 22.6982 35.4832 23.6092ZM66.1374 45.6727C63.9634 46.4732 61.7067 46.6675 59.4794 47.0962C58.3645 47.3106 57.2655 47.5987 56.1985 48.0609C55.2942 48.4595 54.4113 48.9117 53.4804 49.1763C58.3298 58.2435 58.6179 63.04 56.7187 63.4654C56.2225 61.4557 53.6831 51.8928 48.9324 46.2655C48.9324 46.2655 48.1429 45.7732 47.2439 44.7884C47.3346 44.909 47.4066 45.053 47.4547 45.2004C47.5107 45.3679 47.62 45.9942 47.3266 45.9607C45.3154 45.7397 43.2961 45.6191 41.2769 45.6057C37.6999 45.5923 34.1228 45.9105 30.5858 46.5636C28.8226 46.8919 27.0701 47.3005 25.331 47.7929C24.5921 48.0039 23.7012 48.4695 22.981 47.9537C22.7622 47.7963 22.5622 47.5484 22.4155 47.257C18.7718 48.2183 15.1281 49.1729 11.4843 50.1343C11.1536 50.218 10.8575 49.5715 10.8015 49.193C7.38983 50.1209 4.06354 51.2564 0.809277 52.8876C0.342476 53.1187 -0.276368 51.7253 0.134417 51.521C3.65543 49.7558 7.26179 48.5499 10.9615 47.5719C11.2976 47.4848 11.5937 48.1446 11.6471 48.5198C15.2427 47.5752 18.8411 46.6306 22.4395 45.6827C22.7862 45.5923 23.1063 46.2622 23.125 46.7278C23.173 46.7445 23.2237 46.7512 23.2744 46.7479C23.3838 46.7479 23.4904 46.7278 23.5998 46.7043C23.7919 46.6675 23.9786 46.6038 24.168 46.5502C24.6161 46.4163 25.0616 46.289 25.5097 46.1684C26.3526 45.9373 27.1982 45.7296 28.0464 45.542C34.2402 44.162 40.5727 43.8271 46.8331 44.5204C46.9425 44.5338 47.0412 44.5841 47.1266 44.6611C46.0649 43.4586 44.8939 41.5795 44.7152 39.0305C44.3764 34.2105 42.1678 30.5763 37.7532 28.4862C37.7532 28.4862 37.0143 29.203 36.0114 25.7663C34.5736 24.3796 33.4613 22.4938 32.9385 20.2999C32.533 18.5916 32.2636 16.2905 30.5511 16.0158C28.9427 15.7546 27.2515 16.612 25.8431 15.1985C25.2456 14.6023 24.8695 13.7247 24.5734 12.8606C24.184 11.7184 23.8452 10.5427 23.5305 9.36698C22.8929 6.98211 22.3888 4.54364 22.0154 2.07168C22.01 2.04488 22.01 2.01474 22.0127 1.98794C21.8526 1.98794 21.6926 2.01139 21.5299 2.06833C21.6739 1.93435 21.834 1.82046 22.0047 1.73338C22.0047 1.73338 26.4673 -0.674945 28.2625 0.185887C30.0603 1.04337 29.2494 9.72538 32.6584 10.0469C36.0674 10.3685 37.8706 12.3012 38.7695 19.8042C39.6711 27.3105 43.2775 24.0916 45.1793 29.2365C46.8438 33.7416 46.5904 41.201 49.6553 44.1419C50.2608 44.7247 50.8343 45.3444 51.3731 45.9976C53.5471 44.9391 55.8597 44.2491 58.1884 44.0548C58.7272 44.0079 59.2127 44.0716 59.6715 44.4467C59.9196 44.6477 60.0876 44.8353 60.397 44.8487C60.7011 44.8654 61.0052 44.775 61.304 44.7113C62.5577 44.43 63.8114 44.1453 65.065 43.8606C65.2224 43.8271 65.4385 44.0347 65.6092 44.2927C66.1614 44.2826 66.7269 45.4549 66.1374 45.6727ZM10.8735 35.902C10.7028 35.9992 9.53178 36.0863 9.22502 35.815C7.974 36.505 6.76832 37.3156 5.62132 38.24C6.07479 38.1831 6.53359 38.1429 6.98705 38.106C8.52616 37.9888 10.0706 37.8481 11.4737 36.9639C12.9221 36.0528 14.2211 34.7666 15.6189 33.7382C16.3364 33.2057 17.0699 32.6965 17.8088 32.2109C15.4641 33.353 13.1515 34.6024 10.8735 35.902ZM2.12966 39.5095C4.32762 37.3892 6.77632 35.7312 9.3824 34.5555C9.52378 34.4919 10.4414 34.4584 10.8335 34.6393C11.9778 33.9895 13.1248 33.3463 14.2905 32.7602C17.4621 31.1624 20.703 29.759 23.9946 28.5967C24.1706 28.5364 24.3494 28.4728 24.5254 28.4125C24.6481 28.3522 24.7735 28.2885 24.8962 28.2283C24.9282 28.2149 24.9682 28.2249 25.0082 28.245C27.9264 27.2535 30.9753 26.4095 33.9975 26.53C34.1522 26.5367 34.9871 26.5535 35.0644 26.8281C35.1498 27.1263 34.5603 27.0894 34.4296 27.0827C32.9118 27.0224 31.226 27.3574 29.6602 27.7459C28.2625 28.0943 26.8781 28.513 25.507 28.9886C25.531 29.0489 25.5444 29.0958 25.531 29.1025C23.7225 29.9734 21.938 30.9213 20.1935 31.9797C18.6544 32.9109 17.142 33.9258 15.6802 35.0379C14.3118 36.0796 13.0208 37.4194 11.5297 38.1663C9.11299 39.3755 6.32019 38.5917 3.9195 39.7339C3.88483 39.7674 3.85015 39.7976 3.81547 39.8311C3.73011 39.9148 3.61008 39.9516 3.47938 39.965C3.31133 40.0689 3.14328 40.1794 2.9779 40.3033C2.8712 40.3837 2.64447 40.099 2.48976 39.8311C2.26836 39.7607 1.99628 39.6401 2.12966 39.5095ZM3.53006 26.2587C6.96838 23.1704 10.7908 21.1574 14.7733 19.4625C14.9733 19.3788 15.4748 20.0453 15.6482 20.3803C15.6855 20.3635 15.7229 20.3468 15.7602 20.3233C16.099 20.1358 16.4111 19.8477 16.7312 19.6099C17.4167 19.1007 18.1182 18.6184 18.8331 18.1662C20.2975 17.2351 21.81 16.4312 23.3544 15.7378C23.6745 15.5971 24.3013 16.8298 24.288 16.8365C22.1967 17.7743 20.1695 18.9199 18.2356 20.2965C17.7635 20.6281 17.3127 21.0167 16.8352 21.3315C16.4564 21.5828 16.051 21.7301 15.6535 21.4789C15.5202 21.3952 15.2561 21.154 15.0214 20.8626C11.2869 22.4972 7.70459 24.4466 4.46633 27.3574C4.25026 27.5483 3.43136 26.3492 3.53006 26.2587Z" fill="#DA8917"/>
</svg>
