<svg width="98" height="65" viewBox="0 0 98 65" fill="none" xmlns="http://www.w3.org/2000/svg">
<path d="M73.688 57.0669C74.3647 58.3566 74.9645 59.433 75.336 60.0895C75.5032 60.3861 75.3069 60.7693 74.9963 60.7593L57.1887 60.1728C57.4223 61.0392 57.539 61.5525 57.539 61.5525C16.9159 69.024 0 57.8967 0 57.8967L5.22021 15.1968C5.22021 15.1968 7.72814 12.8007 10.8411 9.91476C12.5343 8.94165 14.5035 8.04853 16.1516 7.93856C18.4923 7.78193 19.7874 4.15946 20.4323 1.43011C21.255 0.776932 21.9026 0.320373 22.2821 0.143749C24.8139 -1.03264 27.0087 5.29919 27.6854 8.64506C28.3621 11.9909 29.4582 11.4477 29.4582 11.4477C36.215 12.3542 35.2862 17.1464 36.4698 22.2118C37.6508 27.2773 38.5796 26.3708 38.5796 26.3708C40.6311 27.3406 42.1969 28.6503 43.3248 30.2566C43.5689 29.76 43.8529 29.2901 44.1873 28.8502C44.1873 28.8502 59.0332 21.492 60.5353 23.8948C61.8304 25.9776 60.4822 30.3999 62.6 33.0293C62.6398 31.5663 62.8309 30.5598 63.1626 30.2732C63.1626 30.2732 66.9232 29.1635 73.6402 29.7034C75.6333 31.0331 78.5472 32.5394 81.448 32.4661C86.3683 32.3427 90.2323 33.6091 90.5773 33.7258C91.2567 33.9857 91.9414 34.2556 92.6421 34.5456L98.0003 55.1773C98.0003 55.1773 82.2123 58.0766 73.688 57.0669Z" fill="#F5BF19"/>
</svg>
