<svg width="93" height="139" viewBox="0 0 93 139" fill="none" xmlns="http://www.w3.org/2000/svg">
<path d="M72.0338 133.29C68.8434 135.841 59.1907 138.996 53.2796 139C38.048 139.007 32.9849 127.429 17.7569 127.189C4.26004 126.98 -0.121127 122.458 0.00253416 108.639C0.119129 95.4957 0.239259 82.3558 0.355854 69.2123C0.490116 54.5212 0.634977 39.6924 3.90319 25.3724C6.83574 12.4974 12.7079 1.01096 27.406 1.00742C49.9443 0.996825 78.7681 -6.55715 89.1133 19.8676C91.947 27.1036 92.2119 35.0498 92.3815 42.8193C92.6147 53.221 92.7278 63.6228 92.7419 74.021C92.7631 88.5247 93.5864 97.6545 87.9297 111.268C85.5589 116.978 82.2271 125.132 72.0338 133.29Z" fill="#3C6A7E"/>
</svg>
