<svg width="89" height="50" viewBox="0 0 89 50" fill="none" xmlns="http://www.w3.org/2000/svg">
<path d="M57.313 24.0394C56.8396 23.9484 56.3641 23.8575 55.8886 23.7665C56.0478 23.9133 56.1636 24.0993 56.2318 24.3205C56.2918 24.5107 56.3331 24.7113 56.422 24.8911C56.4799 25.0069 56.5874 25.1599 56.6742 25.1702C57.0153 25.2178 57.3151 24.8539 57.3709 24.5604C57.3999 24.397 57.3792 24.2068 57.313 24.0394ZM54.6007 23.6135C54.6296 23.5825 54.6585 23.5598 54.6875 23.537C54.2389 23.4523 53.7903 23.3696 53.3396 23.2889C53.5132 23.4192 53.6456 23.597 53.7469 23.8037C53.8378 23.9877 53.8998 24.1882 54.028 24.3536C54.0445 24.3743 54.0962 24.4177 54.1355 24.457C54.1583 24.4322 54.1893 24.4136 54.2141 24.3867C54.4084 24.1676 54.4022 23.8326 54.6007 23.6135ZM52.2191 23.1608C52.2522 23.1401 52.2873 23.1235 52.3204 23.1091C51.7064 23.0036 51.0903 22.9085 50.4742 22.8176C50.6148 22.921 50.7368 23.0491 50.8195 23.198C50.9084 23.353 50.9663 23.5205 51.0345 23.6838C51.111 23.8637 51.2144 24.0022 51.3301 24.1552C51.3322 24.1593 51.3322 24.1614 51.3363 24.1634C51.3529 24.1572 51.3673 24.151 51.3715 24.149C51.419 24.1159 51.4645 24.0869 51.5079 24.0497C51.603 23.9608 51.6754 23.8533 51.7457 23.7458C51.88 23.5412 52.0061 23.2951 52.2191 23.1608ZM51.2846 24.182C51.2805 24.18 51.2764 24.18 51.2764 24.182C51.2764 24.1841 51.2826 24.182 51.2846 24.182ZM50.0422 22.8465C50.0401 22.8486 50.038 22.8486 50.0339 22.8486C50.038 22.8507 50.0401 22.8486 50.0422 22.8465ZM49.2628 22.6687C49.2731 22.6625 49.2834 22.6605 49.2938 22.6563C48.6136 22.5695 47.9314 22.493 47.2492 22.431C47.4518 22.586 47.5903 22.801 47.7081 23.0326C47.7764 23.167 47.8404 23.3075 47.9231 23.4316C47.9562 23.4812 48.0162 23.5329 48.0472 23.5825C48.0327 23.5866 48.0182 23.5928 47.9976 23.6073C48.0058 23.6032 48.0265 23.6094 48.0348 23.6032C48.041 23.6011 48.0492 23.597 48.0554 23.5949C48.0865 23.659 48.1071 23.597 48.074 23.5825C48.1712 23.5287 48.2808 23.4977 48.3759 23.4233C48.473 23.3468 48.564 23.26 48.655 23.1732C48.8431 22.9892 49.0271 22.7886 49.2628 22.6687ZM45.7628 22.3194C45.0826 22.278 44.3983 22.2491 43.714 22.2387C44.02 22.3648 44.2867 22.5964 44.4789 22.8713C44.5678 22.9974 44.6485 23.1298 44.7436 23.2497C44.7808 23.2972 44.8283 23.3386 44.8635 23.3861C44.8655 23.3861 44.8697 23.3902 44.8717 23.3944C44.8945 23.3861 44.9172 23.3778 44.9379 23.3654C44.9627 23.351 44.9834 23.3324 45.004 23.3158C45.0557 23.2745 45.1012 23.2248 45.1405 23.1711C45.2397 23.0388 45.3121 22.8879 45.3968 22.7452C45.4981 22.5757 45.6139 22.4289 45.7628 22.3194ZM42.7734 22.2367C42.5852 22.2387 42.395 22.2367 42.2049 22.2408C41.5474 22.2532 40.89 22.2904 40.2347 22.338C40.3008 22.3731 40.3608 22.4165 40.4145 22.4661C40.6916 22.7287 40.7267 23.1463 41.0182 23.4068C41.289 23.6487 41.7376 23.1484 41.9175 22.9561C42.1738 22.6811 42.4199 22.3876 42.7734 22.2367ZM39.8584 22.4661C39.9018 22.4723 39.9887 22.4207 39.8584 22.4661V22.4661ZM38.8764 22.4537C38.1839 22.5199 37.4913 22.5984 36.7987 22.6791C36.807 22.6853 36.8153 22.6873 36.8235 22.6935C37.0261 22.8383 37.1626 23.0595 37.2928 23.2662C37.3735 23.3923 37.45 23.5205 37.5471 23.6342C37.5864 23.6755 37.6257 23.7231 37.6732 23.7582C37.6774 23.7624 37.6856 23.7686 37.6939 23.7748C37.7104 23.7541 37.7787 23.7293 37.7745 23.7334C37.9895 23.5742 38.157 23.4688 38.31 23.2373C38.4154 23.0801 38.5043 22.9127 38.6097 22.7556C38.6883 22.6419 38.7793 22.5406 38.8764 22.4537ZM35.3557 22.8631C34.75 22.9458 34.1484 23.045 33.5509 23.1732C33.6998 23.2559 33.8197 23.3861 33.8734 23.5618C33.9334 23.7644 33.9768 23.9567 34.1071 24.1262C34.2435 24.2999 34.3159 24.3081 34.5019 24.1841C34.8534 23.9484 34.9815 23.5287 35.1655 23.1711C35.2214 23.0636 35.2834 22.9582 35.3557 22.8631ZM32.3622 23.7024C32.4077 23.6156 32.4573 23.5184 32.5111 23.4295C32.2134 23.5163 31.9157 23.6094 31.62 23.7169C31.5105 23.9526 31.4278 24.2006 31.3864 24.4591C31.3554 24.6617 31.312 24.9283 31.3761 25.1247C31.3761 25.1268 31.3782 25.1309 31.3802 25.133C31.4381 25.0627 31.5291 25.0131 31.5932 24.9407C31.9053 24.5769 32.1493 24.1283 32.3622 23.7024ZM58.0056 24.2771C58.1978 25.009 57.5983 25.4989 56.9037 25.4493C56.5522 25.4245 56.1574 25.2963 55.9217 25.0234C55.6509 24.7071 55.6653 24.273 55.4627 23.9257C55.4276 23.8616 55.3614 23.814 55.3284 23.752C55.2705 23.8016 55.1837 23.8926 55.1775 23.9009C55.103 24.0166 55.0679 24.1552 55.0183 24.2833C54.8963 24.5976 54.6978 24.8002 54.3381 24.7816C53.937 24.7588 53.5794 24.5479 53.3561 24.2213C53.2445 24.058 53.1825 23.874 53.0956 23.7003C53.0605 23.628 53.0233 23.5556 52.9778 23.4895C52.9489 23.4461 52.9116 23.4088 52.8806 23.3675C52.8806 23.3654 52.8786 23.3634 52.8765 23.3613C52.8703 23.3654 52.8641 23.3675 52.86 23.3716C52.8372 23.3923 52.8062 23.4068 52.7814 23.4254C52.7359 23.4605 52.6987 23.5019 52.6594 23.5453C52.5685 23.6528 52.4982 23.7748 52.4196 23.8926C52.279 24.1117 52.124 24.3474 51.8635 24.4301C51.5369 24.5376 51.1213 24.4218 50.8526 24.2254C50.5445 24.0001 50.4226 23.6549 50.2778 23.3199C50.2365 23.2228 50.191 23.1235 50.1331 23.0347C50.1063 22.9912 50.0091 22.9085 49.9781 22.8589H49.9739C49.9264 22.8858 49.8685 22.8982 49.8189 22.9272C49.5729 23.0698 49.3827 23.2993 49.1759 23.4915C48.9878 23.6673 48.779 23.8306 48.5185 23.8761C48.2084 23.9298 47.8446 23.8409 47.5841 23.6652C47.3257 23.4895 47.1954 23.2 47.0569 22.9292C46.9825 22.7824 46.9039 22.6253 46.7882 22.5075C46.6434 22.3628 46.4636 22.4558 46.3209 22.5757C46.0729 22.7824 45.9695 23.1173 45.7772 23.3716C45.585 23.6321 45.3162 23.7272 44.9958 23.6859C44.6877 23.6487 44.4024 23.5143 44.1957 23.2786C43.9972 23.0533 43.867 22.7783 43.6644 22.5592C43.6293 22.5199 43.5776 22.4558 43.528 22.431C43.528 22.4413 43.4473 22.4475 43.4391 22.4517C43.377 22.4785 43.3254 22.4909 43.2613 22.524C43.0793 22.6233 42.9202 22.768 42.7775 22.9168C42.5088 23.198 42.2648 23.5205 41.8968 23.6797C41.5268 23.8389 41.0843 23.7727 40.7329 23.5949C40.3918 23.4212 40.1768 23.1194 40.0238 22.7783C39.9742 22.6687 39.9246 22.5612 39.8481 22.4682C39.8439 22.4703 39.8439 22.4703 39.8398 22.4723C39.784 22.493 39.7364 22.5033 39.6806 22.5323C39.4966 22.6274 39.3602 22.7907 39.2465 22.9602C39.0232 23.2931 38.8578 23.6879 38.4981 23.905C37.8717 24.2813 37.1461 23.9133 36.776 23.3716C36.6892 23.2414 36.6106 23.107 36.5238 22.9788C36.4969 22.9396 36.3915 22.8486 36.3357 22.7804C36.3191 22.7845 36.3046 22.7886 36.2798 22.7928C36.2323 22.8176 36.1847 22.8589 36.1455 22.892C36.0586 22.9685 35.9883 23.0615 35.9284 23.1587C35.8147 23.3365 35.7361 23.535 35.6431 23.7231C35.4818 24.0559 35.2606 24.4012 34.8926 24.5252C34.5371 24.6451 34.1009 24.5438 33.7928 24.3474C33.4765 24.1428 33.3421 23.8513 33.2367 23.5101C33.1871 23.5742 33.1395 23.6425 33.1023 23.7127C32.9928 23.9215 32.8915 24.1303 32.7736 24.3329C32.5731 24.6761 32.325 25.1764 31.9632 25.377C31.651 25.5485 31.1838 25.4762 30.9068 25.2674C30.5967 25.0358 30.6773 24.5376 30.7414 24.2048C30.7704 24.0601 30.8138 23.9236 30.8634 23.7872C30.6815 23.5039 30.4478 22.9499 30.5119 22.923C32.4532 22.0795 34.5722 21.8521 36.652 21.6061C38.5581 21.3808 40.4579 21.2113 42.3785 21.2009C44.1171 21.1926 45.8537 21.2898 47.582 21.4759C50.9042 21.8356 54.1769 22.5137 57.4557 23.1339C57.6045 23.1628 57.7265 23.4998 57.7864 23.6156C57.8051 23.6549 58.0056 24.1696 57.9746 24.1634C57.9684 24.1634 57.9642 24.1634 57.9601 24.1614C57.9766 24.2006 57.9952 24.2358 58.0056 24.2771ZM48.0472 23.5825C48.0492 23.5866 48.0534 23.5908 48.0554 23.5949C48.0616 23.5908 48.0678 23.5866 48.074 23.5825C48.0678 23.5804 48.0596 23.5804 48.0472 23.5825ZM56.4199 25.3232C53.5939 24.8022 50.7554 24.3412 47.8818 24.149C44.5327 23.9257 41.1712 24.0539 37.8283 24.3371C35.7485 24.5128 33.644 24.7588 31.7131 25.5775C31.6324 25.6126 32.0749 26.5574 32.1927 26.5057C33.9045 25.7801 35.763 25.5031 37.6112 25.3273C39.4532 25.1516 41.3035 25.0338 43.1538 24.9842C46.1266 24.9056 49.0932 25.0565 52.0413 25.4534C53.6683 25.6726 55.287 25.9558 56.8996 26.2514C56.9285 26.2576 56.7424 25.7904 56.7259 25.7553C56.6721 25.6519 56.5584 25.348 56.4199 25.3232ZM37.2039 38.3392L36.8856 49.722L39.3891 49.6683C39.54 49.1762 41.5268 46.0277 41.5268 46.0277C48.3697 42.2403 49.852 49.9329 49.852 49.9329L53.0005 49.6683L52.769 38.3888L37.2039 38.3392ZM81.7077 2.74778C82.7104 2.53071 83.7275 2.45422 84.7405 2.56586C85.2305 2.61961 85.7204 2.72091 86.2063 2.85529C86.7169 2.99793 87.2048 3.13644 87.7175 2.92557C87.9511 2.83254 88.1558 2.49557 88.1744 2.12758C88.1806 2.11724 88.1868 2.10897 88.1909 2.09864C88.3336 1.78647 88.3646 1.19934 88.0917 1.00914C86.1794 -0.313957 84.0604 -0.167175 82.0509 0.488173C81.9289 0.469567 81.8007 0.50678 81.6912 0.591541C81.6457 0.626686 81.6002 0.661831 81.5547 0.696975C81.2818 0.905777 81.1867 1.33785 81.2426 1.6831C81.2116 1.7782 81.1888 1.88156 81.1826 2.00147C81.164 2.42114 81.4245 2.8098 81.7077 2.74778ZM88.8876 21.0955C86.6652 20.4381 84.327 19.9957 82.1233 21.0583C82.0674 21.0851 81.9703 21.1658 81.8648 21.2753C81.8483 21.2485 81.8318 21.2195 81.8173 21.1947C81.6209 20.8701 80.672 22.3111 80.8973 22.6791C81.0999 23.016 81.3418 23.6176 81.6333 23.7727C81.9289 23.9319 82.3321 23.8078 82.6422 23.8037C83.3926 23.7954 84.143 23.8182 84.8935 23.8719C85.5757 23.9215 86.3076 24.1386 86.9898 23.9918C87.2978 23.9257 87.5583 23.7438 87.8043 23.4564C87.9718 23.2621 88.1206 23.0326 88.2529 22.7845C88.315 22.6667 88.379 22.5426 88.4307 22.4165C88.4328 22.4103 88.4328 22.4082 88.4349 22.402C88.5672 22.2842 88.6829 22.1209 88.7698 21.9782C88.8483 21.8459 89.1667 21.1782 88.8876 21.0955ZM0.826902 2.12758C0.845508 2.49557 1.05018 2.83254 1.28172 2.92557C1.79649 3.13644 2.28231 2.99793 2.79502 2.85529C3.27878 2.72091 3.76874 2.61961 4.26077 2.56586C5.2717 2.45422 6.2909 2.53071 7.29356 2.74778C7.57679 2.8098 7.83728 2.42114 7.8166 2.00147C7.8104 1.88156 7.78973 1.7782 7.75665 1.6831C7.81247 1.33785 7.71737 0.905777 7.44655 0.696975C7.40107 0.661831 7.35352 0.626686 7.30804 0.591541C7.19847 0.50678 7.07029 0.469567 6.95038 0.488173C4.93886 -0.167175 2.81982 -0.313957 0.907529 1.00914C0.634639 1.19934 0.66565 1.78647 0.810364 2.09864C0.814499 2.10897 0.820701 2.11724 0.826902 2.12758ZM7.18399 21.1947C7.16746 21.2195 7.15092 21.2485 7.13645 21.2753C7.02894 21.1658 6.93178 21.0851 6.87596 21.0583C4.67217 19.9957 2.33607 20.4381 0.1116 21.0955C-0.165424 21.1782 0.15088 21.8459 0.229439 21.9782C0.316267 22.1209 0.434107 22.2842 0.564349 22.402C0.566417 22.4082 0.566417 22.4103 0.568484 22.4165C0.620168 22.5426 0.684255 22.6667 0.748343 22.7845C0.878586 23.0326 1.0295 23.2621 1.19489 23.4564C1.4409 23.7438 1.70346 23.9257 2.01149 23.9918C2.69165 24.1386 3.42349 23.9215 4.10571 23.8719C4.85616 23.8182 5.60661 23.7954 6.35912 23.8037C6.66716 23.8078 7.07236 23.9319 7.36592 23.7727C7.65742 23.6176 7.90136 23.016 8.10396 22.6791C8.32724 22.3111 7.37832 20.8701 7.18399 21.1947ZM66.5479 20.5001C64.9953 19.731 63.2463 19.8137 61.6007 20.1962C61.4994 20.1838 61.3898 20.2045 61.2989 20.2541C61.2617 20.2747 61.2244 20.2954 61.1872 20.3161C60.966 20.4381 60.8813 20.6841 60.9267 20.8763C60.8957 20.9322 60.8771 20.9921 60.8709 21.0624C60.8544 21.296 61.0756 21.5193 61.3175 21.4821C62.1279 21.3539 62.9569 21.3084 63.7756 21.3746C64.1828 21.4077 64.5901 21.4655 64.9911 21.5462C65.4108 21.6289 65.8119 21.7095 66.2336 21.5875C66.4445 21.5255 66.6306 21.3208 66.6244 21.0976C66.7773 20.897 66.8063 20.6283 66.5479 20.5001ZM77.3043 33.6215C75.8509 33.0571 74.2715 33.1212 72.7561 33.4003C72.6693 33.3921 72.5742 33.4086 72.4936 33.4437C72.4584 33.4582 72.4253 33.4748 72.3902 33.4892C72.1855 33.5761 72.1214 33.7662 72.1648 33.9192C72.1421 33.9585 72.1256 34.004 72.1214 34.0557C72.107 34.2417 72.2951 34.4113 72.4998 34.3865C73.2647 34.2914 74.0379 34.2624 74.809 34.31C75.1749 34.3327 75.5367 34.374 75.8985 34.4299C76.2809 34.4898 76.6448 34.5477 77.0293 34.4609C77.2319 34.4133 77.3311 34.2748 77.3415 34.1342C77.3518 34.1218 77.3663 34.1156 77.3746 34.1032C77.4759 33.9688 77.5048 33.698 77.3043 33.6215ZM27.7603 20.3161C27.7231 20.2954 27.6859 20.2747 27.6487 20.2541C27.5577 20.2045 27.4481 20.1838 27.3468 20.1962C25.7012 19.8137 23.9522 19.731 22.4017 20.5001C22.1412 20.6283 22.1702 20.897 22.3232 21.0976C22.317 21.3208 22.503 21.5255 22.7139 21.5875C23.1356 21.7095 23.5367 21.6289 23.9564 21.5462C24.3595 21.4655 24.7647 21.4077 25.172 21.3746C25.9907 21.3084 26.8197 21.3539 27.6301 21.4821C27.8699 21.5193 28.0931 21.296 28.0766 21.0624C28.0704 20.9921 28.0518 20.9322 28.0208 20.8763C28.0642 20.6841 27.9815 20.4381 27.7603 20.3161ZM16.8364 33.9192C16.8592 33.9585 16.8736 34.004 16.8778 34.0557C16.8923 34.2417 16.7041 34.4113 16.4995 34.3865C15.7345 34.2914 14.9614 34.2624 14.1902 34.31C13.8264 34.3327 13.4625 34.374 13.1028 34.4299C12.7183 34.4898 12.3565 34.5477 11.9699 34.4609C11.7673 34.4133 11.6681 34.2748 11.6577 34.1342C11.6474 34.1218 11.635 34.1156 11.6247 34.1032C11.5234 33.9688 11.4965 33.698 11.6949 33.6215C13.1483 33.0571 14.7298 33.1212 16.2452 33.4003C16.332 33.3921 16.425 33.4086 16.5057 33.4437C16.5408 33.4582 16.576 33.4748 16.609 33.4892C16.8137 33.5761 16.8799 33.7662 16.8364 33.9192Z" fill="#A2DDAC"/>
</svg>
