<svg width="153" height="86" viewBox="0 0 153 86" fill="none" xmlns="http://www.w3.org/2000/svg">
<path d="M115.638 53.9653C115.686 53.9118 115.702 53.8383 115.713 53.7647C116.024 52.0233 115.87 50.225 115.71 48.4601C115.692 48.2529 115.665 48.0223 115.521 47.8852C115.335 47.7081 115.026 47.7716 114.842 47.9554C114.656 48.1359 114.566 48.4 114.486 48.654C113.921 50.4289 113.482 52.2506 113.176 54.099L115.423 54.0455C115.5 54.0388 115.585 54.0254 115.638 53.9653ZM113.929 82.4937C113.945 82.487 113.959 82.4803 113.972 82.4703C113.961 82.4369 113.951 82.4034 113.937 82.3667C113.924 82.38 113.9 82.3934 113.9 82.4001C113.906 82.4335 113.919 82.4636 113.929 82.4937ZM114.446 83.0051C114.454 83.0352 114.507 83.0753 114.523 83.0619C114.592 83.0218 114.656 82.965 114.723 82.9115C114.715 82.8848 114.704 82.8547 114.696 82.8246C114.619 82.8447 114.542 82.858 114.47 82.8915C114.451 82.9015 114.435 82.975 114.446 83.0051ZM120.006 47.9788C119.94 47.9755 119.871 47.9621 119.801 47.9755C119.786 47.9788 119.759 48.0523 119.767 48.0858C119.775 48.1192 119.817 48.1359 119.873 48.1861C119.916 48.1393 119.967 48.0891 120.014 48.0323C120.02 48.0223 120.012 47.9788 120.006 47.9788ZM112.215 64.7716C112.189 64.8285 112.162 64.8786 112.135 64.9287C112.149 64.9421 112.17 64.9622 112.175 64.9588C112.213 64.9287 112.242 64.8953 112.271 64.8619C112.271 64.8585 112.252 64.8318 112.215 64.7716ZM112.513 76.5473C112.527 76.554 112.54 76.5574 112.551 76.5607C112.561 76.5507 112.572 76.5373 112.58 76.5239C112.567 76.5206 112.551 76.5072 112.54 76.5139C112.529 76.5173 112.521 76.534 112.513 76.5473ZM116.067 79.1913L116.027 79.2013L116.056 79.228L116.067 79.1913ZM113.014 47.2802C113.019 47.2769 113.016 47.2568 113.019 47.2401C113.006 47.2368 112.992 47.2301 112.977 47.2234C112.977 47.2468 112.974 47.2669 112.971 47.2903C112.987 47.2869 113 47.2869 113.014 47.2802ZM112.607 59.701C112.596 59.7044 112.577 59.7044 112.577 59.7044C112.575 59.7411 112.575 59.7813 112.572 59.8147C112.585 59.8147 112.596 59.8147 112.609 59.8147C112.609 59.7779 112.607 59.7378 112.607 59.701ZM113.477 80.906C113.485 80.8692 113.501 80.7923 113.498 80.789C113.437 80.7656 113.378 80.7489 113.317 80.7288C113.312 80.7556 113.304 80.779 113.296 80.8024C113.357 80.8391 113.418 80.8726 113.477 80.906ZM116.232 79.6392C116.245 79.6291 116.261 79.6191 116.277 79.6058C116.256 79.5723 116.24 79.5389 116.219 79.5088C116.205 79.5188 116.179 79.5389 116.181 79.5422C116.195 79.5757 116.213 79.6091 116.232 79.6392ZM119.139 64.0062C119.165 63.9895 119.189 63.9628 119.213 63.9394C119.197 63.9293 119.181 63.9226 119.168 63.9126C119.147 63.936 119.125 63.9561 119.104 63.9761C119.115 63.9895 119.133 64.0129 119.139 64.0062ZM112.202 77.266C112.215 77.256 112.229 77.2459 112.242 77.2359C112.234 77.2192 112.226 77.2058 112.218 77.1924C112.199 77.2092 112.178 77.2259 112.157 77.2459C112.173 77.2493 112.189 77.2593 112.202 77.266ZM118.787 60.7673L118.777 60.7172L118.758 60.7606L118.787 60.7673ZM119.426 56.9C119.439 56.9067 119.455 56.89 119.471 56.8799C119.442 56.8766 119.418 56.8666 119.392 56.8632C119.402 56.8766 119.413 56.9 119.426 56.9ZM119.535 69.5815L119.495 69.5982L119.535 69.6216V69.5815ZM117.672 70.3369C117.683 70.3269 117.696 70.3169 117.707 70.3069C117.701 70.2935 117.693 70.2801 117.683 70.2667C117.667 70.2835 117.651 70.3002 117.632 70.3202C117.645 70.3236 117.659 70.3336 117.672 70.3369ZM116.466 58.8019C116.445 58.5178 116.416 58.227 116.304 57.9663C116.192 57.7089 115.979 57.4883 115.716 57.4515C115.444 57.4148 115.173 57.5919 115.01 57.8359C114.848 58.0766 114.773 58.3707 114.709 58.6615C114.443 59.9049 114.358 61.1918 114.464 62.462L114.63 62.4787C115.255 62.5455 115.881 62.6191 116.509 62.6859C116.581 61.3924 116.567 60.0955 116.466 58.8019ZM118.292 63.0335C118.308 63.067 118.319 63.1238 118.34 63.1338C118.372 63.1472 118.409 63.1204 118.444 63.1104C118.417 63.0603 118.391 63.0135 118.364 62.9667C118.34 62.9867 118.316 63.0101 118.292 63.0335ZM118.09 48.7643C118.111 48.7911 118.13 48.8144 118.148 48.8378C118.17 48.8044 118.191 48.771 118.207 48.7342C118.21 48.7275 118.175 48.6874 118.17 48.6908C118.14 48.7142 118.117 48.7409 118.09 48.7643ZM118.492 59.5306C118.479 59.4737 118.457 59.4136 118.428 59.3701C118.42 59.3568 118.367 59.3902 118.335 59.4036C118.353 59.4704 118.372 59.5406 118.396 59.6242C118.449 59.574 118.495 59.5473 118.492 59.5306ZM114.632 76.7278C114.606 76.7446 114.582 76.7613 114.555 76.778C114.576 76.798 114.6 76.8181 114.622 76.8415C114.63 76.8214 114.638 76.8047 114.648 76.788C114.64 76.768 114.638 76.7479 114.632 76.7278ZM111.771 58.9657C111.741 58.9523 111.704 58.9791 111.67 58.9857C111.686 59.0258 111.701 59.0626 111.717 59.0994C111.749 59.0894 111.781 59.076 111.813 59.066C111.797 59.0325 111.792 58.9757 111.771 58.9657ZM110.179 54.226C110.211 54.226 110.245 54.226 110.277 54.226C110.272 54.1993 110.259 54.1491 110.256 54.1491C110.224 54.1558 110.192 54.1692 110.16 54.1825C110.166 54.1993 110.174 54.216 110.179 54.226ZM110.304 53.6377C110.325 53.631 110.347 53.621 110.365 53.6143C110.36 53.5976 110.352 53.5809 110.347 53.5642C110.336 53.5709 110.317 53.5709 110.315 53.5809C110.304 53.5976 110.307 53.6177 110.304 53.6377ZM106.828 67.6496C106.83 67.6462 106.836 67.6228 106.838 67.6128C106.828 67.6094 106.812 67.5994 106.801 67.5994C106.796 67.5994 106.79 67.6228 106.788 67.6362C106.801 67.6395 106.814 67.6496 106.828 67.6496ZM112.032 67.2418C112.048 67.2317 112.074 67.215 112.074 67.2117C112.066 67.1749 112.053 67.1382 112.04 67.1014C112.026 67.1114 112 67.1281 112 67.1348C112.005 67.1682 112.021 67.205 112.032 67.2418ZM106.498 57.7624C106.404 57.3312 106.199 56.8365 105.795 56.7763C105.566 56.7429 105.342 56.8632 105.159 57.017C104.272 57.7457 104.062 59.0693 103.916 60.2626C103.852 60.7807 103.791 61.2954 103.727 61.8135L103.854 63.5182C104.592 63.5215 105.329 63.5048 106.064 63.4647C106.17 63.4547 106.287 63.4447 106.359 63.3578C106.41 63.2942 106.423 63.204 106.434 63.1204C106.657 61.3389 106.878 59.5105 106.498 57.7624ZM105.47 81.1567C105.478 81.1901 105.494 81.2202 105.507 81.2536C105.518 81.2402 105.529 81.2235 105.539 81.2068C105.526 81.1767 105.513 81.1433 105.499 81.1099C105.489 81.1266 105.467 81.1433 105.47 81.1567ZM105.627 68.288C105.64 68.2512 105.656 68.2144 105.667 68.1777C105.667 68.171 105.64 68.1543 105.627 68.1409C105.614 68.1743 105.595 68.2078 105.59 68.2445C105.587 68.2545 105.614 68.2746 105.627 68.288ZM108.643 78.6531C108.651 78.6999 108.686 78.7467 108.71 78.7902C108.712 78.7902 108.747 78.7735 108.752 78.7568C108.765 78.72 108.787 78.6699 108.776 78.6398C108.75 78.5662 108.707 78.5061 108.651 78.4058C108.648 78.5194 108.635 78.5896 108.643 78.6531ZM106.697 75.5479C106.692 75.5346 106.689 75.5145 106.687 75.5112C106.673 75.5112 106.66 75.5179 106.628 75.5279C106.663 75.5379 106.679 75.5412 106.697 75.5479ZM106.559 68.8896C106.569 68.8963 106.588 68.8829 106.601 68.8763C106.593 68.8629 106.591 68.8395 106.577 68.8328C106.569 68.8261 106.551 68.8362 106.538 68.8395C106.543 68.8595 106.548 68.8829 106.559 68.8896ZM111.438 69.7754C111.449 69.7386 111.459 69.6985 111.47 69.6618C111.443 69.6918 111.414 69.7286 111.387 69.762C111.403 69.7654 111.435 69.7787 111.438 69.7754ZM111.483 69.6216C111.478 69.635 111.473 69.6484 111.47 69.6618C111.475 69.6517 111.486 69.645 111.491 69.635C111.502 69.6317 111.51 69.6283 111.52 69.6216C111.507 69.6216 111.494 69.6216 111.483 69.6216ZM111.582 69.5982C111.56 69.6049 111.539 69.615 111.52 69.6216C111.547 69.625 111.576 69.625 111.606 69.625C111.598 69.6183 111.587 69.5982 111.582 69.5982ZM111.329 82.6909C111.358 82.711 111.387 82.7344 111.435 82.7678C111.459 82.711 111.481 82.6575 111.502 82.604C111.47 82.5873 111.422 82.5438 111.406 82.5572C111.371 82.5873 111.353 82.6441 111.329 82.6909ZM111.576 71.9547C111.544 71.938 111.513 71.9046 111.486 71.9079C111.467 71.9113 111.459 71.9748 111.443 72.0115C111.475 72.0216 111.507 72.0349 111.539 72.045C111.552 72.0149 111.563 71.9848 111.576 71.9547ZM110.403 53.0929C110.429 53.1597 110.442 53.1998 110.458 53.2399C110.501 53.1865 110.546 53.1363 110.592 53.0828C110.735 53.0862 110.887 53.0762 110.98 52.9659C111.039 52.8957 111.063 52.8088 111.084 52.7219C111.547 50.9069 111.566 48.9582 111.14 47.1332C111.071 46.829 110.962 46.4981 110.701 46.3677C110.474 46.2574 110.198 46.3443 110.009 46.5148C109.814 46.6853 109.692 46.9293 109.58 47.1666C108.752 48.9114 108.403 50.7732 108.204 52.7185C108.933 52.9057 109.679 53.0227 110.426 53.0728C110.418 53.0795 110.411 53.0862 110.403 53.0929ZM110.757 69.7921C110.773 69.742 110.791 69.6851 110.804 69.6317C110.804 69.6283 110.773 69.6116 110.773 69.6116C110.743 69.6618 110.719 69.7152 110.693 69.7687C110.709 69.7754 110.725 69.7787 110.757 69.7921ZM110.363 78.4225C110.355 78.476 110.392 78.5428 110.408 78.6063C110.45 78.5729 110.496 78.5495 110.498 78.5261C110.498 78.4593 110.482 78.3924 110.474 78.3256C110.434 78.359 110.371 78.3824 110.363 78.4225ZM111.087 77.5067C111.111 77.4799 111.135 77.4532 111.158 77.4264C111.143 77.393 111.132 77.3395 111.111 77.3328C111.079 77.3262 111.044 77.3529 111.009 77.3663C111.036 77.4131 111.06 77.4599 111.087 77.5067ZM111.843 62.9266C111.973 61.7734 111.845 60.6102 111.72 59.457C111.638 58.6983 111.523 57.8727 111.012 57.3479C110.951 57.2877 110.884 57.2276 110.804 57.2142C110.727 57.2042 110.65 57.2343 110.581 57.271C110.094 57.5384 109.905 58.1735 109.78 58.7518C109.545 59.8347 109.364 60.9277 109.245 62.0308C109.197 62.4586 109.157 62.9032 109.29 63.3143L109.681 63.4313C110.272 63.3878 110.863 63.3477 111.454 63.3076C111.56 63.3009 111.678 63.2876 111.752 63.204C111.816 63.1338 111.835 63.0268 111.843 62.9266ZM110.882 70.1966C110.892 70.1999 110.906 70.1798 110.93 70.1665C110.898 70.1631 110.874 70.1598 110.847 70.1564C110.858 70.1698 110.868 70.1932 110.882 70.1966ZM101.246 12.7219C101.235 12.7553 101.214 12.7988 101.224 12.8188C101.227 12.8255 101.232 12.8289 101.235 12.8355C101.243 12.7988 101.248 12.7653 101.254 12.7286C101.251 12.7252 101.248 12.7219 101.246 12.7219ZM98.2619 9.19553C98.2619 9.18551 98.2619 9.17882 98.2645 9.17214C98.2592 9.17214 98.2512 9.17214 98.2459 9.17548L98.2619 9.19553ZM120.065 68.8796C120.057 68.8295 120.025 68.7827 120.004 68.7359C119.99 68.776 119.974 68.8127 119.961 68.8495C119.977 68.893 119.99 68.9297 120.006 68.9732C120.025 68.9398 120.068 68.9063 120.065 68.8796ZM98.2486 9.20556C98.2539 9.20222 98.2565 9.19888 98.2619 9.19553L98.2459 9.17548C98.2459 9.18551 98.2486 9.19888 98.2486 9.20556ZM98.2832 8.93482C98.2752 9.04846 98.2698 9.11197 98.2645 9.17214C98.3204 9.16211 98.379 9.14874 98.4881 9.12868C98.395 9.03844 98.3497 8.99833 98.2832 8.93482ZM97.7215 15.8538C97.7561 15.8873 97.7907 15.9207 97.828 15.9575C97.8413 15.9073 97.8652 15.8639 97.8573 15.8505C97.8386 15.8171 97.8067 15.7903 97.7774 15.7836C97.7641 15.7836 97.7401 15.8271 97.7215 15.8538ZM98.8634 16.4421C98.8794 16.4689 98.8954 16.5123 98.914 16.5157C98.9406 16.519 98.9726 16.4923 99.0019 16.4822C98.9832 16.4521 98.9699 16.4054 98.9513 16.402C98.9247 16.3987 98.8927 16.4288 98.8634 16.4421ZM97.7641 14.4734C97.7481 14.5068 97.7082 14.5503 97.7162 14.5703C97.7322 14.6238 97.7694 14.6639 97.8014 14.7174C97.8386 14.6639 97.8786 14.6138 97.8759 14.6071C97.844 14.5603 97.804 14.5168 97.7641 14.4734ZM98.0383 13.9185C98.0596 13.8884 98.0835 13.8617 98.1048 13.835C98.0995 13.8149 98.0942 13.7948 98.0915 13.7781C98.0675 13.7948 98.0383 13.8116 98.0196 13.8383C98.0143 13.8517 98.0303 13.8918 98.0383 13.9185ZM98.174 11.201C98.1767 11.2244 98.2326 11.2512 98.2565 11.2412C98.2752 11.2345 98.3018 11.1609 98.2911 11.1409C98.2752 11.1108 98.2352 11.1008 98.2033 11.0841C98.1927 11.1208 98.166 11.1676 98.174 11.201ZM98.0729 5.36835L98.0888 5.40846L98.0995 5.36835H98.0729ZM91.546 17.6087C91.554 17.5685 91.5806 17.5218 91.57 17.4917C91.5567 17.4616 91.5114 17.4449 91.4822 17.4215C91.4742 17.4616 91.4529 17.5084 91.4609 17.5318C91.4768 17.5652 91.5168 17.5853 91.546 17.6087ZM89.6269 0.0437096C89.6535 0.060422 89.6801 0.0771346 89.7067 0.0871624C89.7174 0.0905047 89.7307 0.0637645 89.744 0.0470522C89.7147 0.0303398 89.6854 0.0102846 89.6561 0.000256844C89.6508 -0.00308546 89.6375 0.0269964 89.6269 0.0437096ZM89.4246 8.9883C89.6455 8.97159 89.8771 8.95821 90.1086 8.93816C90.1193 8.93816 90.1299 8.90473 90.1486 8.87131C90.1432 8.75098 90.1353 8.61728 90.1273 8.46686C89.8584 8.46352 89.6748 8.62062 89.4831 8.75098C89.4059 8.80446 89.3713 8.86128 89.4246 8.9883ZM88.6925 17.963C88.7138 17.9897 88.7325 18.0164 88.7511 18.0398C88.7671 18.0098 88.783 17.9763 88.791 17.9429C88.791 17.9295 88.7617 17.8961 88.7591 17.8961C88.7351 17.9162 88.7138 17.9396 88.6925 17.963ZM97.8706 10.1248C97.8573 10.1114 97.8147 10.1548 97.6656 10.2451C97.7668 10.2819 97.82 10.3119 97.8732 10.3153C97.9052 10.322 97.9371 10.2852 97.9691 10.2651C97.9345 10.2183 97.9078 10.1615 97.8706 10.1248ZM99.268 8.71087C99.2574 8.69081 99.2467 8.67076 99.2388 8.64736C99.2334 8.66073 99.2281 8.67744 99.2228 8.69081C99.2388 8.6975 99.2547 8.70418 99.268 8.71087ZM90.5425 4.84691C90.5798 4.88034 90.6197 4.91711 90.6543 4.94719C90.6916 4.91376 90.7155 4.89037 90.7422 4.87031C90.7049 4.82686 90.673 4.77338 90.6304 4.75667C90.6117 4.74664 90.5718 4.81349 90.5425 4.84691ZM102.904 17.6454C102.893 17.6822 102.933 17.7457 102.955 17.8126C103.021 17.7758 103.077 17.7591 103.112 17.719C103.136 17.6889 103.144 17.6387 103.152 17.5886C103.09 17.5752 103.032 17.5585 102.973 17.5452C102.944 17.5719 102.915 17.6053 102.904 17.6454ZM105.023 71.6272C105.007 71.6572 105.044 71.7308 105.089 71.918C105.145 71.7742 105.175 71.7207 105.188 71.6606C105.193 71.6272 105.156 71.5503 105.148 71.5536C105.103 71.567 105.044 71.5837 105.023 71.6272ZM87.9233 13.504C87.886 13.5074 87.8221 13.5475 87.8195 13.5809C87.8062 13.7079 87.8141 13.8416 87.8141 13.9954C87.9685 13.8918 88.0351 13.7714 87.9978 13.591C87.9898 13.5542 87.9472 13.5007 87.9233 13.504ZM88.1549 10.439C88.1522 10.4624 88.1841 10.4857 88.2028 10.5125C88.2134 10.4724 88.2294 10.439 88.232 10.4022C88.2347 10.3922 88.2108 10.3721 88.2001 10.3587C88.1841 10.3855 88.1549 10.4122 88.1549 10.439ZM86.9038 3.60015C86.9011 3.62355 86.9331 3.65363 86.9757 3.72383C86.981 3.61018 86.9863 3.55001 86.9863 3.49319C86.9863 3.47982 86.965 3.46311 86.9544 3.44974C86.9357 3.49653 86.9118 3.54667 86.9038 3.60015ZM98.2139 9.39274C98.2273 9.366 98.2512 9.33592 98.2565 9.3025C98.2592 9.27241 98.2539 9.23899 98.2486 9.20556C98.2166 9.23564 98.1873 9.26573 98.1554 9.29581C98.174 9.32923 98.1927 9.35932 98.2139 9.39274ZM121.457 59.8448C121.47 59.8381 121.494 59.8314 121.494 59.8214C121.5 59.7846 121.494 59.7478 121.494 59.7111C121.47 59.7211 121.446 59.7278 121.423 59.7345C121.433 59.7712 121.446 59.8113 121.457 59.8448ZM121.497 67.6496C121.489 67.6863 121.51 67.7331 121.521 67.7833C121.622 67.8067 121.729 67.83 121.838 67.8568C121.84 67.5058 121.803 67.3654 121.71 67.3688C121.577 67.3788 121.524 67.5058 121.497 67.6496ZM97.0853 17.6087L97.0481 17.6053L97.0667 17.6555L97.0853 17.6087ZM122.551 55.3424C122.551 55.3424 122.567 55.2989 122.564 55.2989C122.538 55.2789 122.509 55.2622 122.482 55.2421C122.477 55.2622 122.471 55.2856 122.466 55.3023C122.495 55.319 122.522 55.329 122.551 55.3424ZM123.454 49.9375L123.411 49.9509L123.448 49.9776L123.454 49.9375ZM120.688 45.3683C120.699 45.3616 120.714 45.3516 120.717 45.3416C120.72 45.3215 120.714 45.3048 120.712 45.2847C120.696 45.2948 120.677 45.3115 120.661 45.3215C120.669 45.3382 120.677 45.3516 120.688 45.3683ZM120.092 83.4263C120.129 83.463 120.166 83.4964 120.222 83.5466C120.257 83.4898 120.286 83.4463 120.315 83.4029C120.278 83.3661 120.235 83.2926 120.206 83.3026C120.163 83.3126 120.129 83.3828 120.092 83.4263ZM122.588 51.6322C122.405 51.7826 122.405 51.7826 122.36 52.1068C122.655 51.9464 122.655 51.9464 122.588 51.6322ZM123.068 66.9343C123.139 66.9276 123.211 66.9175 123.296 66.9109C123.376 66.7705 123.462 66.6267 123.547 66.4797C123.084 66.1153 123.068 66.112 122.655 66.3359C122.658 66.9175 122.695 66.9677 123.068 66.9343ZM123.382 56.0109L123.366 55.9808L123.347 56.0176L123.382 56.0109ZM121.095 53.0862C121.079 53.1965 121.188 53.2934 121.276 53.26C121.359 53.2266 121.399 53.1464 121.372 53.0528C121.351 52.9826 121.289 52.9324 121.218 52.8288C121.162 52.9458 121.108 53.0093 121.095 53.0862ZM123.794 55.6365C123.816 55.7 123.829 55.7702 123.837 55.7702C123.887 55.7635 123.935 55.7401 123.983 55.7268C123.967 55.69 123.957 55.6298 123.935 55.6232C123.893 55.6098 123.845 55.6298 123.794 55.6365ZM127.617 80.1606C127.641 80.1974 127.654 80.2141 127.662 80.2341C127.699 80.1874 127.731 80.1439 127.763 80.0971C127.766 80.0971 127.731 80.0537 127.728 80.057C127.691 80.0871 127.657 80.1238 127.617 80.1606ZM127.718 79.1746C127.542 79.1512 127.39 79.3484 127.42 79.5489C127.422 79.589 127.46 79.6392 127.486 79.6492C127.633 79.6927 127.811 79.5055 127.819 79.2782C127.792 79.2481 127.755 79.1813 127.718 79.1746ZM95.9753 9.76042C95.9727 9.75039 95.9514 9.75039 95.9381 9.74371C95.9328 9.76376 95.9301 9.78382 95.9248 9.80722C95.9407 9.81056 95.954 9.8139 95.97 9.82059C95.9727 9.80053 95.9807 9.77713 95.9753 9.76042ZM128.588 66.0418C128.57 66.0953 128.53 66.1655 128.543 66.2056C128.564 66.2691 128.62 66.3159 128.697 66.4128C128.697 66.2825 128.711 66.2089 128.692 66.1588C128.676 66.1086 128.623 66.0786 128.588 66.0418ZM128.463 69.5381H128.426L128.447 69.5949L128.463 69.5381ZM125.767 74.1407C125.791 74.1541 125.831 74.124 125.862 74.114C125.82 74.0572 125.783 73.997 125.735 73.9502C125.727 73.9402 125.684 73.9903 125.642 74.0237C125.687 74.0672 125.721 74.1173 125.767 74.1407ZM124.763 59.5205C124.633 59.7044 124.508 59.8949 124.398 60.1021C124.364 60.1656 124.369 60.2893 124.396 60.3662C124.42 60.4364 124.497 60.4765 124.622 60.5968C124.659 60.3762 124.659 60.2559 124.702 60.1623C124.753 60.0453 124.838 59.9517 124.907 59.8448C124.928 59.8113 124.955 59.7612 124.952 59.7244C124.952 59.6609 124.944 59.574 124.912 59.5406C124.878 59.5038 124.782 59.4905 124.763 59.5205ZM126.254 73.3686C126.28 73.3586 126.302 73.3118 126.323 73.2817C126.283 73.265 126.246 73.2382 126.203 73.2349C126.195 73.2316 126.179 73.3018 126.169 73.3385C126.198 73.3519 126.23 73.382 126.254 73.3686ZM126.24 69.0668C126.23 69.04 126.222 69.0166 126.211 68.9899C126.201 68.9999 126.19 69.01 126.179 69.02C126.185 69.04 126.185 69.0668 126.195 69.0735C126.206 69.0801 126.225 69.0701 126.24 69.0668ZM126.877 78.4726C126.903 78.5127 126.93 78.5529 126.975 78.6197C127.012 78.5529 127.047 78.5094 127.055 78.4626C127.06 78.4392 127.007 78.3757 126.994 78.379C126.951 78.3991 126.914 78.4392 126.877 78.4726ZM99.8483 85.5922C99.8483 85.1711 99.8483 85.1711 99.7552 84.9404C99.6913 85.1844 99.638 85.3883 99.5502 85.7226C99.7232 85.6457 99.7871 85.619 99.8483 85.5922ZM80.1826 78.5094C80.1826 78.5662 80.1826 78.6264 80.1826 78.6932C80.2306 78.6699 80.2758 78.6632 80.2865 78.6331C80.2998 78.6063 80.2838 78.5462 80.2652 78.5194C80.2518 78.4994 80.2119 78.5094 80.1826 78.5094ZM80.6511 61.4926C80.6618 61.4124 80.6751 61.3322 80.6884 61.2553C80.6671 61.2453 80.6458 61.2353 80.6272 61.2286C80.6032 61.2988 80.5766 61.3723 80.5606 61.4458C80.5606 61.4492 80.6192 61.4759 80.6511 61.4926ZM81.4949 78.837C81.5162 78.847 81.5535 78.8102 81.5828 78.7969C81.5428 78.74 81.5029 78.6799 81.4603 78.6264C81.4417 78.6531 81.4257 78.6832 81.3911 78.7334C81.4257 78.7701 81.455 78.8169 81.4949 78.837ZM79.7701 58.3105C79.7461 58.0064 79.8206 57.8192 79.5811 57.7657C79.6396 57.9395 79.6822 58.0565 79.7701 58.3105ZM78.0691 51.8027C79.3814 51.8227 80.6964 51.7224 81.9954 51.4985C82.1178 49.0919 82.2349 46.6251 81.6147 44.3188C81.4044 43.5399 80.9599 42.6676 80.2385 42.6542C79.8712 42.6475 79.5332 42.8781 79.2643 43.1622C78.2448 44.2486 78.1064 45.9934 78.0319 47.5744C77.9627 49.0351 78.1383 50.342 78.0691 51.8027ZM94.6098 62.6659C94.6391 62.6759 94.6577 62.6826 94.6737 62.6859C94.671 62.6725 94.6684 62.6525 94.6631 62.6525C94.6497 62.6525 94.6391 62.6592 94.6098 62.6659ZM95.3818 56.7229C95.3897 56.7362 95.3951 56.7596 95.403 56.763C95.4164 56.7696 95.4323 56.7596 95.4456 56.7596C95.4377 56.7362 95.4297 56.7162 95.4164 56.6995C95.4164 56.6961 95.3951 56.7162 95.3818 56.7229ZM94.2611 75.9825C94.2771 75.9791 94.2931 75.9758 94.309 75.9724C94.2877 75.9591 94.2691 75.9457 94.2451 75.939C94.2398 75.9357 94.2265 75.9557 94.2159 75.9658C94.2318 75.9724 94.2478 75.9758 94.2611 75.9825ZM82.3414 85.5454C82.2589 85.5855 82.163 85.619 82.1817 85.7727C82.1843 85.7894 82.203 85.8162 82.2163 85.8228C82.3281 85.8496 82.3787 85.7593 82.4186 85.6524C82.4266 85.629 82.4319 85.6089 82.4479 85.5488C82.376 85.5454 82.3547 85.5354 82.3414 85.5454ZM94.2292 45.4084C94.2026 45.4051 94.1733 45.4184 94.1467 45.4218C94.1573 45.4485 94.1679 45.4786 94.1786 45.5054C94.2052 45.4886 94.2318 45.4719 94.2585 45.4552C94.2505 45.4385 94.2425 45.4084 94.2292 45.4084ZM104.893 64.2134C104.906 64.2268 104.919 64.2402 104.932 64.2536C104.946 64.2201 104.962 64.19 104.97 64.1533C104.972 64.1399 104.948 64.1199 104.938 64.1065C104.924 64.1399 104.908 64.1767 104.893 64.2134ZM78.2076 34.719C78.2315 34.7491 78.2555 34.7759 78.2794 34.8059C78.2901 34.7759 78.306 34.7391 78.314 34.7023C78.3167 34.689 78.2874 34.6522 78.2821 34.6589C78.2555 34.6722 78.2315 34.699 78.2076 34.719ZM86.8239 55.202C86.8346 55.1853 86.8452 55.1652 86.8692 55.1285C86.8346 55.0917 86.7973 55.0516 86.76 55.0148C86.7547 55.0115 86.7334 55.0416 86.7201 55.0549C86.7547 55.1051 86.7893 55.1519 86.8239 55.202ZM88.5648 58.8387C88.437 58.852 88.4769 58.9824 88.5115 59.1562C88.5648 59.0827 88.5941 59.0559 88.6074 59.0192C88.642 58.9423 88.6712 58.8286 88.5648 58.8387ZM85.0751 35.6717C85.107 35.6315 85.131 35.5781 85.155 35.5313C85.1257 35.5179 85.0804 35.4878 85.0645 35.5012C85.0325 35.5346 85.0112 35.5914 84.9819 35.6416C85.0245 35.6583 85.0645 35.685 85.0751 35.6717ZM85.3679 42.6441C85.3972 42.6408 85.4211 42.5974 85.4637 42.5606C85.4345 42.5104 85.4132 42.4469 85.3759 42.4102C85.3626 42.3935 85.2987 42.4169 85.2827 42.4469C85.2375 42.5138 85.2987 42.6508 85.3679 42.6441ZM84.5694 48.6507C84.58 48.664 84.5906 48.6774 84.5986 48.6908C84.6119 48.6807 84.6226 48.6674 84.6332 48.654C84.6173 48.6339 84.6013 48.6172 84.5827 48.6005C84.58 48.6172 84.5747 48.6339 84.5694 48.6507ZM78.3699 43.5232C78.3886 43.5199 78.4072 43.5132 78.4258 43.5099C78.4205 43.4932 78.4152 43.4764 78.4125 43.4597C78.3992 43.4631 78.3832 43.4597 78.3779 43.4698C78.3699 43.4831 78.3726 43.5065 78.3699 43.5232ZM80.5553 36.0627C80.5393 36.0494 80.5207 36.036 80.5047 36.0226L80.4888 36.0427C80.51 36.0494 80.534 36.056 80.5553 36.0627ZM95.4669 65.9683C95.4643 65.9649 95.4483 65.9616 95.4377 65.9582C95.4483 65.9683 95.4643 65.975 95.4696 65.9883C95.4669 65.9816 95.4669 65.975 95.4669 65.9683ZM80.4888 36.0427L80.5047 36.0226C80.4967 36.0193 80.4888 36.0159 80.4808 36.0126C80.4808 36.026 80.4861 36.0326 80.4888 36.0427ZM82.2349 77.0153L82.2269 76.9718L82.211 77.012L82.2349 77.0153ZM77.1614 10.0846C77.1934 10.1047 77.2413 10.1515 77.2546 10.1381C77.3531 10.0412 77.4676 9.95429 77.5288 9.82393C77.5873 9.70694 77.5235 9.61001 77.385 9.61669C77.3132 9.76711 77.2386 9.92755 77.1614 10.0846ZM144.517 63.8357C144.533 63.8291 144.549 63.8224 144.565 63.8157C144.533 63.809 144.506 63.8023 144.477 63.799C144.49 63.8123 144.503 63.8224 144.517 63.8357ZM137.713 73.6694C137.702 73.6661 137.686 73.6728 137.676 73.6795C137.678 73.6928 137.681 73.7062 137.684 73.7229C137.697 73.7162 137.71 73.7129 137.724 73.7095C137.721 73.6928 137.721 73.6694 137.713 73.6694ZM142.967 69.8222C142.949 69.8255 142.936 69.8723 142.92 69.9024C142.949 69.9158 142.975 69.9292 143.005 69.9425C143.021 69.9158 143.039 69.889 143.055 69.8623C143.026 69.8489 142.994 69.8222 142.967 69.8222ZM138.586 74.729C138.639 74.6789 138.69 74.6254 138.735 74.5819C138.722 74.5285 138.722 74.4917 138.714 74.4883C138.687 74.4783 138.645 74.4616 138.626 74.4783C138.583 74.5184 138.546 74.5686 138.52 74.6254C138.509 74.6455 138.525 74.6956 138.536 74.729C138.541 74.7357 138.573 74.739 138.586 74.729ZM149.316 68.9866C149.26 68.9264 149.207 68.8629 149.143 68.786C149.023 68.903 148.901 69.0233 148.773 69.147C148.973 69.3743 149.14 69.5682 149.343 69.8021C149.611 69.3275 149.611 69.3175 149.316 68.9866ZM152.925 67.0947C152.949 67.0813 152.976 67.0613 153 67.0446C152.973 67.0278 152.949 67.0078 152.92 67.0011C152.912 67.0011 152.901 67.0345 152.888 67.0479C152.901 67.0646 152.917 67.098 152.925 67.0947ZM150.234 65.644C150.234 65.6808 150.245 65.7209 150.253 65.7644C150.264 65.7477 150.285 65.7343 150.282 65.7176C150.282 65.6775 150.269 65.6374 150.264 65.5972C150.253 65.6106 150.232 65.6273 150.234 65.644ZM148.701 68.0373C148.712 68.0239 148.709 68.0005 148.712 67.9838C148.693 67.9871 148.674 67.9905 148.653 67.9972C148.659 68.0139 148.664 68.0273 148.666 68.0473C148.68 68.044 148.698 68.0473 148.701 68.0373ZM148.967 65.0123C148.967 64.9555 148.965 64.9087 148.965 64.8652C148.914 64.8418 148.866 64.8218 148.818 64.8017C148.863 64.8619 148.909 64.9287 148.967 65.0123ZM148.677 67.3521C148.674 67.3588 148.706 67.3855 148.717 67.3822C148.744 67.3755 148.765 67.3521 148.789 67.3354C148.762 67.3086 148.738 67.2819 148.714 67.2518C148.698 67.2886 148.685 67.3186 148.677 67.3521ZM95.4909 66.1053C95.4935 66.102 95.4989 66.0953 95.5015 66.0919C95.4989 66.0919 95.4962 66.0919 95.4935 66.0919L95.4909 66.1053ZM96.4066 55.085C96.4199 55.0917 96.4412 55.075 96.4571 55.0683C96.4491 55.0382 96.4412 54.9847 96.4305 54.9847C96.4012 54.9847 96.372 55.0048 96.3347 55.0182C96.3613 55.0416 96.3826 55.0716 96.4066 55.085ZM96.0925 85.4585C96.1058 85.4619 96.1191 85.4652 96.1324 85.4685C96.1297 85.4451 96.1271 85.4251 96.1217 85.4017C96.1084 85.405 96.0951 85.4117 96.0818 85.4217C96.0792 85.4251 96.0898 85.4451 96.0925 85.4585ZM95.4935 66.0919C95.4856 66.0585 95.4829 66.0217 95.4723 65.9917C95.4723 65.9883 95.4696 65.9883 95.4696 65.9883C95.4776 66.0251 95.4856 66.0652 95.4909 66.1053L95.4935 66.0919ZM95.5015 66.0919C95.5335 66.0953 95.5654 66.112 95.5947 66.1053C95.6133 66.102 95.6293 66.0619 95.6479 66.0351C95.6213 66.0284 95.5867 66.0117 95.5654 66.0217C95.5415 66.0351 95.5228 66.0652 95.5015 66.0919ZM96.1058 84.4457C96.0925 84.419 96.0685 84.3755 96.0552 84.3789C96.0312 84.3856 96.0126 84.4223 95.9886 84.4457C96.0206 84.4591 96.0472 84.4758 96.0765 84.4825C96.0845 84.4858 96.1084 84.4457 96.1058 84.4457ZM132.059 75.2438C132.075 75.207 132.089 75.1669 132.105 75.1301C132.091 75.1134 132.078 75.1 132.062 75.0833C132.049 75.1234 132.033 75.1569 132.025 75.197C132.022 75.207 132.046 75.2271 132.059 75.2438ZM133.151 77.1691C133.161 77.1924 133.175 77.2159 133.188 77.2392C133.193 77.2192 133.199 77.2025 133.204 77.1858C133.193 77.1691 133.188 77.1557 133.18 77.139C133.169 77.149 133.148 77.1657 133.151 77.1691ZM132.123 76.1696C132.128 76.1563 132.134 76.1396 132.139 76.1228C132.126 76.1128 132.112 76.1061 132.099 76.0961C132.107 76.1228 132.115 76.1462 132.123 76.1696ZM133.603 75.8454C133.64 75.8086 133.678 75.7752 133.739 75.7184C133.68 75.6649 133.648 75.6181 133.606 75.6081C133.582 75.5981 133.545 75.6482 133.515 75.6716C133.545 75.7284 133.574 75.7853 133.603 75.8454ZM131.33 80.2977C131.301 80.3077 131.269 80.3277 131.239 80.3478C131.253 80.3645 131.263 80.3812 131.274 80.3979C131.306 80.3812 131.338 80.3612 131.37 80.3411C131.357 80.3244 131.341 80.2943 131.33 80.2977ZM131.468 78.2186C131.388 78.2788 131.303 78.3456 131.38 78.5127C131.439 78.4626 131.5 78.4225 131.548 78.3657C131.569 78.3423 131.575 78.2721 131.561 78.2453C131.546 78.2186 131.49 78.2052 131.468 78.2186ZM80.4275 35.8789C80.4222 35.9157 80.4009 35.9691 80.4116 35.9825C80.4302 35.9992 80.4541 36.0059 80.4808 36.0126C80.4728 35.9825 80.4675 35.9524 80.4568 35.9223C80.4515 35.909 80.4355 35.8923 80.4275 35.8789ZM97.8839 43.3962C97.8865 43.3628 97.8786 43.3294 97.8732 43.2926C97.8519 43.306 97.8306 43.316 97.8093 43.3294C97.8227 43.3661 97.8333 43.3996 97.8466 43.433C97.8599 43.423 97.8839 43.4096 97.8839 43.3962ZM96.7446 59.6141L96.718 59.6041L96.726 59.6476L96.7446 59.6141ZM99.4091 52.06C99.5156 52.0534 99.6274 52.0467 99.7099 51.9798C99.7764 51.9263 99.8137 51.8428 99.8483 51.7626C100.029 51.3213 100.099 50.8367 100.146 50.3553C100.325 48.6106 100.269 46.8357 99.9787 45.1109C99.8989 44.6263 99.7285 44.0614 99.2893 43.9377C98.7756 43.7906 98.3444 44.3555 98.0942 44.8636C97.0401 46.9995 96.5237 49.4428 96.6089 51.8595L96.6062 52.0968C97.5405 52.1202 98.4748 52.1068 99.4091 52.06ZM97.4074 65.8613C97.4527 65.8312 97.4819 65.8112 97.5112 65.7878C97.474 65.7543 97.4394 65.7075 97.3994 65.6908C97.3808 65.6842 97.3435 65.7309 97.3169 65.7543C97.3462 65.7911 97.3781 65.8279 97.4074 65.8613ZM99.2388 42.9684C99.2281 42.965 99.2121 42.9985 99.1988 43.0152C99.2281 43.0319 99.2574 43.0486 99.2867 43.0687C99.3026 43.0519 99.3133 43.0352 99.3293 43.0219C99.3 43.0018 99.268 42.9817 99.2388 42.9684ZM100.713 48.2228C100.684 48.2328 100.658 48.2562 100.628 48.273C100.642 48.2897 100.652 48.3064 100.663 48.3231C100.692 48.303 100.719 48.283 100.748 48.2663C100.737 48.2496 100.719 48.2195 100.713 48.2228ZM99.5209 42.2898C99.5529 42.33 99.5821 42.3767 99.6167 42.4102C99.6194 42.4135 99.6567 42.3634 99.6939 42.3199C99.6434 42.2965 99.6061 42.2698 99.5635 42.2598C99.5529 42.2564 99.5369 42.2798 99.5209 42.2898ZM105.68 54.0188L105.71 54.0054L105.686 53.982L105.68 54.0188ZM99.2175 54.9179C99.2228 54.9012 99.2334 54.8811 99.2334 54.8611C99.2334 54.8544 99.2121 54.8477 99.1988 54.8377C99.1935 54.8577 99.1829 54.8778 99.1829 54.8945C99.1829 54.9045 99.2068 54.9112 99.2175 54.9179ZM99.6966 41.7049C99.6966 41.6681 99.6886 41.6314 99.6859 41.5946C99.6647 41.608 99.6434 41.6247 99.6221 41.6381C99.6354 41.6748 99.646 41.7116 99.6593 41.7484C99.6726 41.735 99.6939 41.7216 99.6966 41.7049ZM102.907 79.442C102.92 79.4286 102.949 79.4152 102.949 79.4019C102.944 79.3651 102.931 79.325 102.92 79.2849C102.904 79.2982 102.875 79.3116 102.875 79.3183C102.883 79.3617 102.896 79.3985 102.907 79.442ZM101.469 44.6129C101.48 44.5995 101.475 44.5728 101.477 44.5527C101.461 44.546 101.448 44.536 101.432 44.5293C101.427 44.5594 101.424 44.5928 101.421 44.6229C101.437 44.6196 101.459 44.6229 101.469 44.6129ZM101.882 82.1594C101.903 82.1327 101.941 82.1126 101.946 82.0792C101.951 82.0425 101.93 81.999 101.917 81.9589C101.885 81.999 101.847 82.0358 101.813 82.0759C101.837 82.1026 101.858 82.1327 101.882 82.1594ZM102.377 46.4312C102.377 46.3544 102.377 46.2741 102.377 46.1973C102.361 46.1939 102.345 46.1939 102.329 46.1939C102.326 46.2741 102.324 46.351 102.321 46.4279C102.34 46.4279 102.358 46.4312 102.377 46.4312ZM105.433 54.8577C105.425 54.8678 105.449 54.9145 105.457 54.9446C105.489 54.9346 105.518 54.9212 105.547 54.9079C105.537 54.8744 105.526 54.8343 105.515 54.7976C105.486 54.8176 105.451 54.831 105.433 54.8577ZM105.529 51.9531C105.654 51.8528 105.683 51.6656 105.702 51.4985C105.933 49.3459 105.829 47.1532 105.401 45.0407C105.38 44.9338 105.353 44.8235 105.278 44.7566C105.188 44.6797 105.063 44.6898 104.954 44.7232C104.445 44.877 104.145 45.4318 103.924 45.9499C103.144 47.7682 102.638 49.7169 102.428 51.7024L102.486 51.6322C103.354 51.7592 104.219 51.8862 105.084 52.0132C105.236 52.0366 105.406 52.0534 105.529 51.9531ZM100.003 84.7699C100.061 84.78 100.122 84.7867 100.181 84.7934C100.184 84.7599 100.186 84.6964 100.184 84.6931C100.125 84.683 100.067 84.683 100.008 84.6797C100.005 84.7098 100.005 84.7399 100.003 84.7699ZM91.6632 2.76787C91.6525 2.83806 91.6286 2.89154 91.6419 2.92162C91.6658 2.9751 91.7111 3.01187 91.7483 3.05198C91.7537 3.05532 91.7909 3.02858 91.7909 3.01855C91.7909 2.9751 91.7909 2.92496 91.7723 2.89154C91.7457 2.84809 91.7031 2.81466 91.6632 2.76787ZM100.724 56.6928C100.554 56.2315 100.25 55.7335 99.7924 55.7067C99.3479 55.68 98.9992 56.1078 98.7676 56.5223C97.5485 58.7117 97.5591 61.4492 97.9238 63.9728L98.0782 64.0296C98.8315 64.0263 99.5848 64.0196 100.338 64.0162C100.383 64.0162 100.434 64.0129 100.477 63.9895C100.548 63.946 100.57 63.8524 100.588 63.7655C101.07 61.4291 101.544 58.9189 100.724 56.6928ZM99.0338 74.2477C99.0578 74.4583 99.0498 74.5719 99.0844 74.6555C99.111 74.7056 99.1962 74.7156 99.2574 74.7457C99.268 74.6655 99.308 74.5619 99.284 74.5084C99.2467 74.4282 99.1669 74.378 99.0338 74.2477ZM98.2166 71.7074L98.198 71.6472L98.1767 71.704L98.2166 71.7074ZM99.8989 81.8553C99.9335 81.8386 99.9654 81.8218 99.9974 81.8051C99.9867 81.7717 99.9761 81.7115 99.9575 81.7082C99.9255 81.6982 99.8909 81.7249 99.8563 81.7383C99.8696 81.775 99.8856 81.8152 99.8989 81.8553ZM88.4663 81.0698C88.4663 81.0798 88.5222 81.0999 88.5728 81.1266C88.5807 81.0698 88.5994 81.0163 88.5914 80.9728C88.5861 80.9494 88.5382 80.9361 88.5115 80.9194C88.4929 80.9695 88.4769 81.0196 88.4663 81.0698ZM86.6669 70.4305C86.7121 70.4907 86.768 70.5408 86.8186 70.5977C86.8372 70.5676 86.8585 70.5375 86.8772 70.5041C86.8745 70.4105 86.7734 70.2901 86.7095 70.3236C86.6855 70.3369 86.6589 70.4172 86.6669 70.4305ZM86.4885 72.5965C86.4939 72.5898 86.4939 72.5697 86.4939 72.553C86.4806 72.5463 86.4672 72.543 86.4539 72.5363C86.4513 72.5564 86.4486 72.5798 86.4459 72.6032C86.4619 72.6032 86.4752 72.6032 86.4885 72.5965ZM88.2028 67.215L88.1682 67.2017L88.1761 67.2551L88.2028 67.215ZM87.0342 66.0585C87.0582 66.1086 87.0795 66.1554 87.1167 66.2323C87.162 66.1655 87.1966 66.1287 87.2152 66.0819C87.2205 66.0619 87.178 65.9917 87.1647 65.995C87.1194 66.0017 87.0768 66.0351 87.0342 66.0585ZM87.4628 73.6394C87.4681 73.6928 87.4867 73.7463 87.5187 73.8867C87.5346 73.7396 87.5453 73.6795 87.548 73.6193C87.548 73.6059 87.5293 73.5892 87.5187 73.5725C87.5 73.5959 87.4628 73.6193 87.4628 73.6394ZM87.8088 51.4952C87.8115 51.5286 87.8461 51.562 87.8727 51.6121C87.9073 51.5553 87.9499 51.5119 87.9738 51.455C87.9845 51.4316 87.9659 51.3648 87.9446 51.3447C87.886 51.2979 87.8062 51.3848 87.8088 51.4952ZM86.3927 67.3554C86.3821 67.3721 86.3634 67.3888 86.3634 67.4089C86.3608 67.4256 86.3741 67.449 86.3821 67.4691C86.3847 67.4289 86.3901 67.3922 86.3927 67.3554ZM86.9251 47.9487C86.965 48.0089 87.0023 48.0657 87.0555 48.1493C87.1088 48.0691 87.1407 48.029 87.17 47.9822C87.1141 47.9454 87.0608 47.9019 87.0023 47.8752C86.9836 47.8685 86.9517 47.922 86.9251 47.9487ZM88.0351 34.6956C88.0244 34.6789 88.0085 34.6522 88.0031 34.6522C87.9845 34.6656 87.9685 34.689 87.9499 34.7057C87.9659 34.709 87.9765 34.719 87.9925 34.7224C88.0058 34.7157 88.0191 34.7057 88.0351 34.6956ZM84.0184 84.3722C84.029 84.3555 84.0423 84.3388 84.045 84.3187C84.045 84.302 84.029 84.2853 84.021 84.2686C84.0104 84.2853 83.9944 84.302 83.9944 84.3187C83.9944 84.3354 84.0104 84.3555 84.0184 84.3722ZM87.0928 37.9412L87.1354 37.9579V37.9178L87.0928 37.9412ZM92.3419 60.0286C92.3313 60.042 92.326 60.0553 92.3153 60.0687C92.3233 60.0821 92.3286 60.0988 92.3339 60.1155C92.3366 60.0854 92.3393 60.0553 92.3419 60.0286ZM92.499 79.0175C92.483 79.0275 92.4644 79.0409 92.4431 79.0509C92.4564 79.0576 92.4697 79.0643 92.483 79.0709C92.4883 79.0542 92.4937 79.0342 92.499 79.0175ZM91.8628 80.1339C91.8681 80.1706 91.8841 80.2074 91.8947 80.2408C91.908 80.2275 91.9347 80.2108 91.9347 80.2041C91.9267 80.164 91.9107 80.1272 91.8974 80.0904C91.8841 80.1038 91.8601 80.1238 91.8628 80.1339ZM92.6534 78.3757C92.6374 78.369 92.6188 78.359 92.6028 78.3523C92.6081 78.3623 92.6108 78.3757 92.6134 78.3891C92.6294 78.3824 92.6401 78.379 92.6534 78.3757ZM93.6569 50.1214C93.6702 50.1481 93.6862 50.1715 93.7021 50.1983C93.7075 50.1782 93.7128 50.1615 93.7181 50.1414C93.7101 50.1247 93.7021 50.108 93.6941 50.0913C93.6835 50.1013 93.6702 50.1113 93.6569 50.1214ZM93.7048 43.0118C93.6915 43.0453 93.6782 43.0787 93.6649 43.1121C93.6755 43.1288 93.6862 43.1422 93.6941 43.1589C93.7101 43.1255 93.7261 43.092 93.7341 43.0586C93.7367 43.0453 93.7154 43.0252 93.7048 43.0118ZM88.7059 64.902C88.831 62.1411 88.4956 59.3568 87.7263 56.7329C87.5985 56.3017 87.4521 55.8605 87.178 55.5262C86.9011 55.1953 86.4619 54.9948 86.0813 55.1552C85.674 55.3257 85.4691 55.8237 85.3253 56.285C84.407 59.1729 83.84 62.4218 84.2526 65.4535C85.674 65.3399 87.0954 65.2262 88.5142 65.1126C88.5701 65.1092 88.6313 65.0992 88.6712 65.0524C88.7005 65.0123 88.7032 64.9555 88.7059 64.902ZM88.7431 48.1627C88.7697 48.2061 88.799 48.2462 88.8283 48.2897C88.8523 48.2629 88.8735 48.2362 88.8975 48.2095C88.8762 48.1794 88.8602 48.1259 88.8363 48.1192C88.807 48.1125 88.7724 48.1493 88.7431 48.1627ZM90.83 65.2028C90.854 65.2429 90.8779 65.283 90.9019 65.3265C90.9232 65.2964 90.9445 65.2663 90.9631 65.2396C90.9471 65.2095 90.9312 65.1594 90.9125 65.156C90.8886 65.1527 90.8593 65.1861 90.83 65.2028ZM89.9649 59.5038C89.9809 59.4671 90.0155 59.4102 90.0102 59.3969C89.9756 59.3467 89.9303 59.31 89.8877 59.2665C89.8717 59.3066 89.8584 59.3467 89.8345 59.4036C89.8744 59.437 89.9197 59.4704 89.9649 59.5038ZM90.303 55.1352C90.3189 55.1285 90.3402 55.1218 90.3589 55.1184C90.3535 55.0984 90.3482 55.0817 90.3429 55.065C90.3322 55.0683 90.3163 55.0683 90.3109 55.0783C90.303 55.0917 90.3056 55.1151 90.303 55.1352ZM100.825 81.1634C100.847 81.1901 100.865 81.2168 100.884 81.2436C100.902 81.2068 100.921 81.1767 100.929 81.14C100.932 81.1299 100.905 81.0965 100.902 81.0965C100.876 81.1166 100.852 81.14 100.825 81.1634ZM31.4656 46.4179C31.2553 46.4346 31.2553 46.4346 31.1515 46.6385C31.2713 46.5549 31.3405 46.5048 31.4656 46.4179ZM28.3965 44.5795C29.432 44.0346 30.4648 43.4831 31.5029 42.935C31.5987 42.8848 31.7025 42.828 31.7584 42.7244C31.8196 42.6007 31.8037 42.4503 31.785 42.3099C31.6333 41.2537 31.4816 40.1907 31.3299 39.1312C31.2234 38.3624 31.1089 37.5802 30.8055 36.8816C30.6644 36.5541 30.3929 36.2065 30.0788 36.2967C29.9324 36.3368 29.8206 36.4705 29.7274 36.6042C29.3015 37.2293 29.1339 38.0281 29.0087 38.8036C28.7053 40.7055 28.3326 42.6508 28.3965 44.5795ZM30.3583 31.1793C30.3982 31.1425 30.4461 31.1225 30.4488 31.0957C30.4541 31.0389 30.4355 30.9754 30.4275 30.9152C30.3902 30.9453 30.3317 30.9654 30.3264 31.0021C30.3157 31.0523 30.345 31.1125 30.3583 31.1793ZM29.7221 33.8065C29.794 33.6728 29.8632 33.5458 29.9297 33.4221C29.7061 33.4622 29.7035 33.4589 29.6689 33.7163C29.6662 33.7397 29.6982 33.7664 29.7221 33.8065ZM29.7966 49.9442C29.7514 49.7203 29.7035 49.493 29.589 49.3058C29.4746 49.1186 29.2829 48.9749 29.0806 48.9916C28.9236 49.0083 28.7851 49.1186 28.6734 49.2456C28.0798 49.9141 28.0398 50.9603 28.0372 51.8996C28.0318 53.1464 27.7284 54.7006 27.7231 55.9407C28.5962 55.6566 29.4639 55.3691 30.3343 55.0817C30.3157 53.3536 30.1374 51.6289 29.7966 49.9442ZM28.2288 37.2861L28.2714 37.2894L28.2528 37.2326L28.2288 37.2861ZM26.4587 44.8602C26.464 44.8435 26.472 44.8268 26.472 44.8134C26.472 44.8034 26.4507 44.8001 26.4401 44.7934C26.4347 44.8101 26.4268 44.8268 26.4268 44.8435C26.4268 44.8502 26.4481 44.8536 26.4587 44.8602ZM52.7657 20.9278C52.6619 21.0548 52.5927 21.1417 52.4835 21.2721C52.6858 21.2654 52.7604 21.1852 52.7657 20.9278ZM29.4905 70.972L29.4799 70.9219L29.4613 70.962L29.4905 70.972ZM37.0528 19.3936C37.0315 19.3936 37.0102 19.4003 36.9889 19.4003C36.9916 19.417 36.9969 19.437 36.9996 19.4537C37.0129 19.4504 37.0315 19.4537 37.0369 19.447C37.0475 19.4337 37.0475 19.4103 37.0528 19.3936ZM37.4867 18.2905C37.5426 18.1568 37.4627 18.1 37.3909 18.0365C37.3776 18.0231 37.3616 18.0164 37.3456 18.0064C37.327 18.0432 37.2977 18.0766 37.2924 18.1167C37.2817 18.2504 37.3483 18.3139 37.4441 18.3306C37.4574 18.334 37.4787 18.3106 37.4867 18.2905ZM32.7566 53.8617C32.6608 53.855 32.5623 53.8182 32.4798 53.8483C32.2429 53.9419 31.9767 54.4299 31.9634 54.7474C31.9581 54.958 32.1683 55.1819 32.344 55.1485C32.4532 55.065 32.5623 54.9814 32.6714 54.8978C32.5144 54.5502 32.9429 54.2928 32.7566 53.8617ZM33.5951 73.4455C33.5578 73.4756 33.5232 73.509 33.486 73.5424C33.5099 73.5658 33.5312 73.5892 33.5552 73.6126C33.5844 73.5926 33.627 73.5758 33.635 73.5491C33.6403 73.5224 33.6084 73.4789 33.5951 73.4455ZM32.1444 56.0109C32.163 56.0376 32.1843 56.0644 32.203 56.0878C32.2269 56.0644 32.2482 56.041 32.2722 56.0176C32.2589 56.0009 32.2429 55.9741 32.2322 55.9775C32.203 55.9808 32.1737 55.9975 32.1444 56.0109ZM37.5053 72.1319C37.3882 72.2422 37.3989 72.3358 37.5053 72.4728C37.5053 72.3391 37.5053 72.2489 37.5053 72.1319ZM33.4008 54.5536C33.4301 54.5469 33.4593 54.5402 33.4886 54.5335C33.4913 54.5536 33.486 54.5836 33.4939 54.587C33.5206 54.6004 33.5685 54.6204 33.5765 54.607C33.5951 54.5736 33.6084 54.5368 33.6217 54.5001C34.3058 54.3363 34.9899 54.1725 35.674 54.0121C35.7592 52.05 35.6314 50.0746 35.2215 48.166C35.1523 47.8518 35.0724 47.5276 34.8941 47.2669C34.7157 47.0095 34.4149 46.8323 34.1328 46.9126C33.7309 47.0262 33.5685 47.5577 33.486 48.0122C33.0947 50.1749 33.0574 52.4143 33.3715 54.5937L33.4008 54.5536ZM37.0102 39.9133C37.0715 39.793 37.0555 39.6392 37.0342 39.5022C36.8825 38.4426 36.7334 37.383 36.5843 36.3234C36.4725 35.5513 36.3608 34.7725 36.0573 34.0706C35.9162 33.743 35.6447 33.3954 35.3306 33.4856C35.1842 33.5291 35.0724 33.6595 34.9793 33.7932C34.5507 34.4182 34.3857 35.2171 34.2606 35.9959C33.9571 37.8944 33.5845 39.8398 33.6483 41.7718C34.6838 41.2236 35.7192 40.6754 36.752 40.1272C36.8505 40.0738 36.9543 40.0169 37.0102 39.9133ZM34.4416 34.1508C34.5241 34.2444 34.5933 34.2277 34.6518 34.1174C34.572 34.0271 34.5001 34.0338 34.4416 34.1508ZM31.5535 59.4971C31.6173 59.6476 31.6679 59.7645 31.7371 59.9317C31.8755 59.8281 31.9953 59.7411 32.1417 59.6375C32.0432 59.4637 31.974 59.3367 31.8835 59.1763C31.7611 59.2932 31.6653 59.3868 31.5535 59.4971ZM34.9739 29.0535C35.3439 28.6524 35.4238 28.1176 35.3759 27.5293C35.3146 26.834 35.2188 26.1321 35.1044 25.4469C34.9952 24.7617 34.8435 24.0865 34.6306 23.4414C34.4575 22.9199 34.1541 22.4419 33.651 22.7093C33.2384 22.93 32.9456 23.5249 32.7566 24.0163C32.6954 24.1767 32.6448 24.3438 32.5969 24.511C32.5863 24.4909 32.5729 24.4709 32.557 24.4541C32.4505 24.5444 32.3254 24.6079 32.4452 24.775C32.4612 24.7984 32.4904 24.8118 32.5197 24.8218C32.4532 25.116 32.4026 25.4168 32.36 25.7143C32.1577 27.2452 31.9501 28.8295 31.9314 30.3838C31.8862 30.4607 31.8676 30.5476 31.8782 30.6579C31.8862 30.7749 31.9847 30.8885 32.0752 30.9086C32.1018 30.9186 32.1284 30.9152 32.1524 30.9152C32.2668 30.9487 32.3946 30.9219 32.4745 30.835C32.5437 30.7916 32.6129 30.7448 32.6874 30.6913C32.9696 30.4974 33.2491 30.3069 33.5285 30.113C34.0024 29.7888 34.5613 29.5047 34.9739 29.0535ZM34.5321 21.4024C34.5294 21.4191 34.5241 21.4358 34.5241 21.4492C34.5241 21.4559 34.5427 21.4592 34.5507 21.4659C34.556 21.4492 34.5613 21.4325 34.564 21.4158C34.5534 21.4125 34.5427 21.4058 34.5321 21.4024ZM45.0277 63.3745C45.033 63.3644 45.0091 63.321 45.0064 63.321C44.9798 63.3344 44.9532 63.3511 44.9266 63.3644C44.9399 63.3878 44.9585 63.4146 44.9745 63.4413C44.9904 63.4179 45.0144 63.3979 45.0277 63.3745ZM44.6444 57.7457C44.6577 57.7523 44.6737 57.7557 44.6896 57.759C44.687 57.7323 44.6843 57.7056 44.6817 57.6788C44.6684 57.6822 44.6471 57.6822 44.6391 57.6955C44.6338 57.7056 44.6417 57.7289 44.6444 57.7457ZM46.1164 27.1148C46.0951 27.078 46.0738 27.0245 46.0632 27.0312C46.0365 27.0379 45.9966 27.0613 45.9886 27.0914C45.978 27.1248 45.9966 27.1716 46.0019 27.2117C46.0392 27.1816 46.0765 27.1516 46.1164 27.1148ZM49.5608 35.3274C49.622 35.2405 49.6274 35.1235 49.6274 35.0132C49.6593 32.7035 49.6646 30.2835 48.7117 28.2345C48.4295 27.6362 47.9185 27.0112 47.3329 27.1683C46.8058 27.312 46.5769 27.9905 46.4465 28.5788C45.8795 31.1526 45.6586 33.8165 45.7837 36.4605C46.9629 36.1262 48.1421 35.792 49.3186 35.4577C49.4091 35.4343 49.5023 35.4042 49.5608 35.3274ZM45.073 54.851C45.0437 54.8577 45.0144 54.8744 44.9851 54.8845C45.0037 54.9112 45.0224 54.9346 45.041 54.9613C45.065 54.9379 45.0889 54.9145 45.1129 54.8945C45.0996 54.8811 45.0836 54.851 45.073 54.851ZM45.7863 36.4772C45.7863 36.4705 45.7863 36.4672 45.7837 36.4605C45.7198 36.4772 45.6559 36.4973 45.592 36.5173L45.7863 36.4772ZM52.5581 13.3202C52.5554 13.3035 52.5314 13.2968 52.5181 13.2834C52.5101 13.3035 52.4968 13.3202 52.4942 13.3403C52.4835 13.4439 52.4463 13.5575 52.598 13.6478C52.5847 13.5208 52.5714 13.4205 52.5581 13.3202ZM46.0365 9.85735C46.0286 9.84064 46.0206 9.82393 46.0152 9.81056C46.0046 9.82059 45.9913 9.83061 45.9806 9.8373C45.994 9.86404 46.0073 9.88744 46.0179 9.91083C46.0259 9.89412 46.0312 9.87407 46.0365 9.85735ZM52.4995 16.7697C52.5048 16.8031 52.5341 16.8332 52.5527 16.8633C52.5634 16.8265 52.5793 16.7864 52.5847 16.7429C52.5873 16.7329 52.5634 16.7129 52.5527 16.6962C52.5341 16.7195 52.4968 16.7496 52.4995 16.7697ZM52.7816 22.2848C52.7577 22.3016 52.7337 22.345 52.7311 22.3784C52.7284 22.4085 52.7604 22.4754 52.7657 22.4754C52.8109 22.4553 52.8535 22.4286 52.9121 22.3952C52.8269 22.3216 52.795 22.2782 52.7816 22.2848ZM52.8855 43.6402L52.8482 43.6302L52.8588 43.6937L52.8855 43.6402ZM44.0721 22.9701C44.0668 22.9734 44.0827 23.0068 44.0881 23.0336C44.1147 23.0135 44.1413 23.0001 44.1626 22.9768C44.1653 22.9734 44.1546 22.9433 44.1466 22.9233C44.12 22.94 44.0934 22.95 44.0721 22.9701ZM44.1812 77.3729C44.2079 77.393 44.2345 77.4298 44.2611 77.4298C44.2904 77.4298 44.3197 77.3964 44.3463 77.3763C44.3197 77.3562 44.293 77.3195 44.2664 77.3195C44.2371 77.3161 44.2105 77.3529 44.1812 77.3729ZM36.8878 67.3253C36.965 67.2551 36.9703 67.1382 36.9676 67.0345C36.9144 64.9287 36.8292 62.7628 35.9854 60.8642C35.871 60.6102 35.7432 60.3595 35.5409 60.1723C35.3413 59.9885 35.0538 59.8815 34.7956 59.9618C34.4043 60.0821 34.226 60.5467 34.1115 60.9511C33.5791 62.8697 33.3023 64.8619 33.2916 66.8507L33.2278 67.0479C34.367 67.2083 35.5116 67.312 36.6589 67.3688C36.7361 67.3755 36.8239 67.3755 36.8878 67.3253ZM37.8727 55.0516C37.8807 55.0917 37.8966 55.1285 37.9073 55.1652C37.9206 55.1519 37.9472 55.1352 37.9445 55.1251C37.9366 55.085 37.9232 55.0516 37.9099 55.0115C37.8966 55.0282 37.8727 55.0416 37.8727 55.0516ZM44.4448 54.3196C44.4128 54.3029 44.3756 54.2661 44.3463 54.2728C44.3276 54.2761 44.317 54.3396 44.301 54.3797C44.3303 54.3965 44.3676 54.4332 44.3915 54.4232C44.4155 54.4132 44.4261 54.3563 44.4448 54.3196ZM36.3607 82.3901C36.3634 82.3734 36.3528 82.35 36.3501 82.3299C36.3261 82.3466 36.2862 82.3667 36.2862 82.38C36.2915 82.4135 36.3128 82.4436 36.3288 82.4803C36.3395 82.4469 36.3554 82.4202 36.3607 82.3901ZM44.8733 35.6015C44.9079 35.6015 44.9399 35.538 44.9745 35.5012C44.9372 35.4577 44.8973 35.3775 44.868 35.3842C44.8068 35.3976 44.7509 35.4577 44.6391 35.5346C44.7535 35.568 44.8148 35.6048 44.8733 35.6015ZM44.8573 27.5126C44.876 27.5126 44.8946 27.5092 44.9132 27.5059C44.9106 27.4892 44.9079 27.4724 44.9026 27.4524C44.8893 27.4557 44.8707 27.4524 44.868 27.4591C44.86 27.4724 44.86 27.4958 44.8573 27.5126ZM33.9917 76.4772C33.9039 76.3836 33.8586 76.3033 33.8001 76.2799C33.7309 76.2499 33.6537 76.4103 33.6909 76.5306C33.7016 76.5707 33.7521 76.6175 33.7841 76.6309C33.7947 76.6309 33.8054 76.6276 33.8134 76.6276C33.8666 76.6075 33.9119 76.5473 33.9917 76.4772ZM44.8627 9.61669C44.8334 9.62672 44.8068 9.64343 44.7775 9.66014C44.8068 9.67352 44.8334 9.69023 44.8627 9.69691C44.8707 9.70026 44.8919 9.67352 44.8919 9.66014C44.8919 9.64343 44.8707 9.61669 44.8627 9.61669ZM44.0721 78.2821C44.0854 78.3222 44.0934 78.3824 44.1147 78.3924C44.1413 78.4058 44.1839 78.379 44.2158 78.369C44.1972 78.3323 44.1839 78.2821 44.1573 78.2587C44.1387 78.2453 44.1014 78.2721 44.0721 78.2821ZM29.5172 63.3644C29.4879 62.4586 29.4533 61.5227 29.0992 60.7038C29.0407 60.5634 28.9608 60.4163 28.8357 60.3495C28.6813 60.2693 28.4923 60.3227 28.3539 60.433C28.0345 60.6837 27.9201 61.1483 27.8402 61.5795C27.5554 63.1472 27.4037 64.7482 27.393 66.3493L27.7204 66.61C28.3539 66.6869 28.9901 66.7671 29.6263 66.844C29.589 65.6842 29.5518 64.5243 29.5172 63.3644ZM7.6102 77.0086C7.60754 77.0554 7.64215 77.1089 7.66078 77.159C7.70603 77.1356 7.75927 77.1122 7.75927 77.1055C7.75128 77.0487 7.72999 76.9919 7.71402 76.9384C7.67675 76.9618 7.6102 76.9819 7.6102 77.0086ZM10.312 65.3031C10.3093 65.3198 10.3519 65.3499 10.3705 65.3733C10.3838 65.3365 10.3998 65.2998 10.4078 65.263C10.4105 65.2496 10.3838 65.2329 10.3705 65.2162C10.3492 65.2463 10.3226 65.2697 10.312 65.3031ZM11.0147 78.1752C11.0333 78.2052 11.0573 78.2286 11.0812 78.2453C11.0839 78.252 11.0999 78.2253 11.1079 78.2186C11.0839 78.1852 11.0626 78.1551 11.0387 78.125C11.0307 78.1451 11.012 78.1718 11.0147 78.1752ZM6.38842 73.4589C6.37511 73.5424 6.37777 73.6293 6.37245 73.7129C6.39374 73.7229 6.41238 73.7296 6.43367 73.7396C6.46827 73.6527 6.50554 73.5725 6.5295 73.4823C6.53482 73.4655 6.49223 73.4087 6.46561 73.402C6.44166 73.3987 6.39374 73.4321 6.38842 73.4589ZM11.0946 69.7286C11.1505 69.859 11.1957 69.9693 11.2676 70.1297C11.2835 69.7754 11.2835 69.7754 11.0946 69.7286ZM41.9666 52.6751C42.0145 52.5848 42.0118 52.4745 42.0092 52.3709C41.916 50.3921 41.8175 48.3933 41.3198 46.4947C41.208 46.0702 41.0163 45.5856 40.6277 45.4987C40.4547 45.4619 40.2763 45.5154 40.1246 45.6123C39.6401 45.9232 39.4618 46.595 39.3447 47.2067C38.9534 49.269 38.5514 51.4851 38.6393 53.5943C39.6934 53.5274 40.7368 53.2801 41.7244 52.8556C41.8175 52.8188 41.916 52.7686 41.9666 52.6751ZM43.1005 73.4187C43.1059 73.402 43.1085 73.3853 43.1138 73.3686C43.1059 73.3519 43.0979 73.3385 43.0899 73.3218C43.0819 73.3318 43.0606 73.3452 43.0606 73.3486C43.0739 73.372 43.0872 73.3953 43.1005 73.4187ZM43.758 80.2442C43.774 80.2341 43.7953 80.2308 43.8033 80.2174C43.8086 80.2007 43.7979 80.174 43.7953 80.1539C43.774 80.1673 43.7527 80.1773 43.7314 80.1907C43.742 80.2074 43.75 80.2275 43.758 80.2442ZM4.66088 78.3523C4.6529 78.3323 4.63693 78.2955 4.6316 78.2988C4.59966 78.3122 4.57038 78.3323 4.5411 78.3523C4.55175 78.3724 4.56506 78.3891 4.5757 78.4058C4.60498 78.3891 4.6316 78.3724 4.66088 78.3523ZM43.5637 61.4525C43.4519 60.6236 43.2948 59.7645 42.821 59.0894C42.656 58.852 42.4218 58.6247 42.1396 58.6181C41.6738 58.6013 41.3943 59.1361 41.2506 59.5941C40.4493 62.1478 40.4094 64.8786 40.3775 67.5626L40.4121 67.7064C41.3757 67.9404 42.3872 67.9671 43.3614 67.7866C43.4945 67.7599 43.6329 67.7264 43.7207 67.6228C43.8112 67.5159 43.8246 67.3621 43.8299 67.215C43.9097 65.2931 43.8219 63.3578 43.5637 61.4525ZM0 75.7084C0.0532368 75.7652 0.0905024 75.802 0.13043 75.8454C0.14374 75.812 0.178344 75.7652 0.170358 75.7485C0.149063 75.705 0.11446 75.6649 0.0771934 75.6382C0.0692077 75.6315 0.0346038 75.6749 0 75.7084ZM23.6744 73.2382C23.6824 73.2182 23.6052 73.1146 23.5892 73.1246C23.536 73.1547 23.4907 73.2148 23.4215 73.2817C23.4881 73.3452 23.544 73.4187 23.5546 73.4087C23.6052 73.3653 23.6478 73.3051 23.6744 73.2382ZM40.0607 77.1089C40.0767 77.1156 40.09 77.1256 40.106 77.1323C40.1193 77.1223 40.1326 77.1089 40.1485 77.0989C40.1352 77.0855 40.1166 77.0554 40.1113 77.0588C40.0926 77.0688 40.0767 77.0922 40.0607 77.1089ZM0.157049 77.2727C0.157049 77.2326 0.146402 77.1924 0.141078 77.1523C0.119783 77.1724 0.0984879 77.1958 0.0745315 77.2159C0.0905023 77.2493 0.106473 77.2827 0.122445 77.3195C0.133091 77.3028 0.157049 77.2894 0.157049 77.2727ZM23.5387 71.7341C23.528 71.7174 23.5174 71.6907 23.5067 71.6907C23.4428 71.6973 23.3763 71.7074 23.3097 71.7174C23.3231 71.7609 23.3231 71.8143 23.3443 71.8377C23.4136 71.9213 23.4721 71.8678 23.52 71.7943C23.5307 71.7776 23.5307 71.7542 23.5387 71.7341ZM18.7261 62.1311C18.75 62.1444 18.7873 62.1177 18.8166 62.111C18.7979 62.0776 18.7846 62.0308 18.758 62.0174C18.7394 62.004 18.7021 62.0274 18.6728 62.0341C18.6914 62.0675 18.7021 62.1177 18.7261 62.1311ZM16.4449 55.9507L16.4129 55.944L16.4262 56.0009L16.4449 55.9507ZM14.3606 60.8642C14.3846 60.8609 14.4085 60.8576 14.4325 60.8542C14.4272 60.8342 14.4219 60.8141 14.4165 60.794C14.4032 60.7974 14.3846 60.794 14.3766 60.8041C14.366 60.8174 14.366 60.8408 14.3606 60.8642ZM18.9363 72.9307C18.963 72.914 18.9843 72.8906 19.0135 72.8639C18.9869 72.8472 18.9603 72.8138 18.939 72.8204C18.9204 72.8238 18.9097 72.8739 18.8991 72.904C18.8964 72.9073 18.9284 72.9341 18.9363 72.9307ZM20.5494 49.5264C20.5201 49.5164 20.435 49.63 20.4243 49.7002C20.3924 49.8707 20.427 50.0244 20.5707 50.1113C20.6958 50.0178 20.7491 49.8673 20.7091 49.7002C20.6905 49.6267 20.6133 49.5465 20.5494 49.5264ZM19.9052 65.0892C19.9345 65.0725 19.9878 65.0624 19.9931 65.0424C19.9984 65.0056 19.9745 64.9588 19.9638 64.9154C19.9345 64.9287 19.884 64.9388 19.8813 64.9555C19.876 64.9989 19.8946 65.0424 19.9052 65.0892ZM38.3598 56.1045C38.3704 56.0945 38.3864 56.0844 38.3891 56.0744C38.3944 56.0543 38.3864 56.0376 38.3837 56.0176C38.3678 56.0309 38.3518 56.0443 38.3332 56.0577C38.3438 56.0744 38.3518 56.0878 38.3598 56.1045ZM43.1937 50.1983C43.2177 50.1515 43.231 50.0412 43.207 50.0178C43.1484 49.9542 43.0686 49.9242 42.9967 49.8807C42.9781 49.9108 42.9621 49.9442 42.9435 49.9743C42.9834 50.0478 43.0154 50.1347 43.0659 50.1916C43.0925 50.2216 43.183 50.2216 43.1937 50.1983ZM43.1298 39.2014C43.1245 39.2214 43.1138 39.2348 43.1059 39.2548C43.1218 39.2615 43.1458 39.2816 43.1484 39.2782C43.1591 39.2548 43.1697 39.2247 43.1804 39.2014C43.1618 39.2014 43.1484 39.2014 43.1298 39.2014ZM39.5842 76.5072C39.5949 76.5206 39.6055 76.534 39.6135 76.5473C39.6295 76.5407 39.6455 76.534 39.6614 76.5239C39.6481 76.5139 39.6375 76.4905 39.6242 76.4872C39.6135 76.4838 39.5975 76.5006 39.5842 76.5072ZM42.3233 51.933C42.3286 51.9163 42.3339 51.8963 42.3392 51.8762C42.3259 51.8628 42.3126 51.8461 42.2993 51.8327C42.294 51.8528 42.2833 51.8762 42.286 51.8963C42.2887 51.913 42.31 51.923 42.3233 51.933ZM43.2602 53.9084C43.2602 53.9051 43.2336 53.8884 43.2203 53.875C43.2043 53.9018 43.191 53.9318 43.1724 53.9619C43.1857 53.9786 43.1964 53.992 43.2097 54.0054C43.2256 53.9753 43.2443 53.9419 43.2602 53.9084ZM41.0695 54.3864L41.0616 54.343L41.0429 54.3764L41.0695 54.3864ZM41.6977 41.4041C41.7137 41.3974 41.7323 41.394 41.7403 41.3773C41.743 41.3673 41.7297 41.3439 41.7244 41.3239C41.7004 41.3406 41.6791 41.3539 41.6578 41.3673C41.6711 41.3773 41.6844 41.3907 41.6977 41.4041ZM41.5407 18.1201C41.5327 18.1034 41.53 18.0833 41.5194 18.0632C41.5194 18.0599 41.5114 18.0499 41.5088 18.0465C41.5034 18.0632 41.4928 18.08 41.4875 18.0967C41.5061 18.1067 41.5221 18.1134 41.5407 18.1201ZM42.0172 24.0464C42.0837 24.0029 42.1769 23.9494 42.2141 23.8826C42.2381 23.8458 42.2434 23.779 42.2487 23.7054C42.1982 23.7021 42.1316 23.682 42.0651 23.6519C42.0518 23.7823 42.0331 23.916 42.0172 24.0464ZM40.5398 25.126C40.5345 25.126 40.5319 25.126 40.5265 25.1226C40.5239 25.1293 40.5212 25.136 40.5212 25.1427C40.5265 25.136 40.5319 25.1327 40.5398 25.126ZM40.1911 25.3834C40.106 25.36 40.0181 25.3165 39.9489 25.263C39.9436 25.3667 39.9383 25.4703 39.9303 25.5739C40.0155 25.5104 40.1033 25.4469 40.1911 25.3834ZM41.5327 17.6387C42.1396 17.6254 42.2647 18.2805 42.3978 18.9022C42.6879 20.2559 42.8131 21.6899 42.8689 23.0871C42.8743 23.2976 42.9461 23.7121 42.8423 23.8926C42.7864 23.9862 42.632 24.0631 42.5575 24.1199C42.3978 24.2402 42.2381 24.3606 42.0784 24.4775C41.349 25.019 40.5984 25.5271 39.8877 26.102L39.8824 26.1054C39.7998 26.219 39.2542 26.1923 39.2595 26.1054C39.4006 23.8258 39.555 21.4826 40.3029 19.3668C40.46 18.929 40.641 18.5011 40.846 18.0967C41.027 17.739 41.2026 17.6454 41.5327 17.6387ZM41.1947 44.78C41.1813 44.79 41.1654 44.8001 41.1521 44.8134C41.1627 44.8168 41.1707 44.8235 41.184 44.8302C41.1867 44.8134 41.192 44.7934 41.1947 44.78ZM40.444 42.9751C40.5452 42.8514 40.6064 42.7311 40.4307 42.5439C40.436 42.7377 40.4414 42.8581 40.444 42.9751ZM42.9941 52.4845C43.0606 52.4511 43.1165 52.4377 43.1138 52.4244C43.1112 52.3241 43.0979 52.2272 43.0846 52.1269C43.042 52.1469 42.9648 52.1637 42.9648 52.1837C42.9621 52.2806 42.9807 52.3776 42.9941 52.4845ZM42.7838 31.3431C42.7598 31.3063 42.7438 31.2562 42.7225 31.2528C42.6933 31.2495 42.6613 31.2729 42.632 31.2896C42.5069 30.688 42.3339 30.103 42.0757 29.5482C42.0118 29.4145 41.94 29.2741 41.8202 29.2039C41.6046 29.0802 41.3464 29.2273 41.1574 29.3977C39.9995 30.4439 39.7546 32.2924 39.7147 33.9569C39.6774 35.5413 39.7493 37.129 39.9649 38.6933L40.09 38.6498C41.1547 38.1819 42.2195 37.7139 43.2842 37.246C42.9115 35.304 43.026 33.2216 42.6374 31.3097C42.6613 31.3498 42.6853 31.3865 42.7119 31.4266C42.7359 31.3966 42.7572 31.3698 42.7838 31.3431ZM37.9738 50.8868C37.9392 50.9169 37.9046 50.947 37.8727 50.9771C37.894 51.0038 37.9153 51.0272 37.9419 51.0539C37.9685 51.0305 38.0058 51.0138 38.0164 50.9804C38.0244 50.9637 37.9898 50.9202 37.9738 50.8868ZM38.7351 23.2408C38.5727 23.0135 38.4716 22.9366 38.3279 22.9768C38.2613 22.9968 38.2134 23.1138 38.1575 23.184C38.3784 23.2542 38.5568 23.3545 38.7351 23.2408ZM38.8576 74.1574C38.8709 74.1474 38.8842 74.1374 38.8948 74.1274C38.8868 74.1173 38.8735 74.0906 38.8735 74.0906C38.8522 74.104 38.8363 74.1207 38.8176 74.1374C38.8336 74.1441 38.8442 74.1508 38.8576 74.1574ZM38.9454 69.3141C38.9161 69.2974 38.8842 69.2774 38.8522 69.2673C38.8416 69.2673 38.8256 69.2974 38.8123 69.3141C38.8442 69.3308 38.8762 69.3476 38.9081 69.3643C38.9214 69.3476 38.9347 69.3308 38.9454 69.3141ZM38.3279 39.2047C38.3305 39.1947 38.3119 39.1746 38.3066 39.1579C38.2853 39.178 38.2666 39.198 38.248 39.2181C38.2613 39.2281 38.2773 39.2348 38.2906 39.2415C38.3039 39.2314 38.3225 39.2214 38.3279 39.2047ZM39.6082 41.4475C39.5922 41.4743 39.5656 41.4977 39.5629 41.5277C39.5629 41.5511 39.5922 41.5779 39.6109 41.6013C39.6215 41.5645 39.6348 41.5244 39.6401 41.4876C39.6428 41.4776 39.6188 41.4609 39.6082 41.4475ZM38.2161 72.8973C38.232 72.894 38.248 72.8873 38.2613 72.8806C38.2586 72.8639 38.2613 72.8405 38.2533 72.8338C38.24 72.8204 38.224 72.8238 38.2054 72.8204C38.2107 72.8472 38.2134 72.8706 38.2161 72.8973ZM39.1663 39.2214C39.1557 39.2047 39.145 39.1713 39.1397 39.1746C39.1104 39.178 39.0811 39.1947 39.0545 39.208C39.0625 39.2214 39.0758 39.2515 39.0838 39.2515C39.1104 39.2481 39.1397 39.2314 39.1663 39.2214ZM38.7564 73.5458C38.7271 73.5458 38.7005 73.5458 38.6712 73.5458C38.6712 73.5458 38.6712 73.5758 38.6712 73.5892C38.7005 73.5892 38.7271 73.5892 38.7564 73.5892C38.7564 73.5725 38.7564 73.5591 38.7564 73.5458ZM38.7191 75.2103C38.6766 75.0265 38.6739 74.9597 38.6473 74.9129C38.6233 74.8727 38.5754 74.8527 38.5381 74.8259C38.5302 74.8828 38.5062 74.953 38.5195 74.9998C38.5381 75.0499 38.594 75.0833 38.7191 75.2103ZM80.8375 5.57224C80.8162 5.5221 80.7975 5.47197 80.7762 5.42183C80.7549 5.44188 80.731 5.46862 80.7097 5.49202C80.7203 5.53213 80.723 5.5923 80.7443 5.60567C80.7656 5.61904 80.8055 5.58561 80.8375 5.57224ZM70.6666 67.3621C70.6506 67.3755 70.632 67.3855 70.6186 67.4056C70.616 67.4056 70.632 67.4323 70.6399 67.449C70.6506 67.439 70.6666 67.4323 70.6719 67.4189C70.6745 67.4056 70.6666 67.3822 70.6666 67.3621ZM52.8988 8.75098C52.8721 8.74095 52.8322 8.71087 52.8189 8.72424C52.7896 8.74764 52.779 8.79443 52.7604 8.83454C52.795 8.84791 52.8322 8.87799 52.8615 8.86463C52.8801 8.85794 52.8855 8.79109 52.8988 8.75098ZM70.9301 67.2317L75.1038 66.6702C74.8377 64.8084 74.5741 62.9433 74.308 61.0815C74.1243 59.7779 73.9326 58.4509 73.379 57.2643C73.166 56.8064 72.7854 56.3117 72.2983 56.3919C71.7526 56.4788 71.5609 57.1774 71.4944 57.7423C71.1191 60.891 70.9301 64.0597 70.9301 67.2317ZM53.8677 21.8002C53.9475 21.5896 54.0061 21.4392 54.1126 21.1551C53.8171 21.3356 53.8171 21.3356 53.8677 21.8002ZM54.5731 23.6386L54.5624 23.5784L54.5358 23.6252L54.5731 23.6386ZM71.8005 55.456C71.7712 55.4761 71.734 55.4961 71.7153 55.5262C71.702 55.553 71.71 55.5931 71.7047 55.6733C71.7632 55.6131 71.8032 55.5831 71.8324 55.5363C71.8404 55.5296 71.8111 55.4828 71.8005 55.456ZM72.5165 78.3857C72.6496 78.4593 72.7375 78.5094 72.9238 78.613C72.8147 78.2687 72.7188 78.2286 72.5165 78.3857ZM75.1491 62.9232C75.1411 62.9433 75.1384 62.96 75.1331 62.9767C75.1464 62.9801 75.1597 62.9968 75.1731 62.9934C75.181 62.9901 75.1864 62.9667 75.1917 62.95C75.1784 62.9399 75.1624 62.9333 75.1491 62.9232ZM75.0054 53.9853C75.0054 54.0054 75.016 54.0221 75.0213 54.0421C75.024 54.0087 75.0293 53.972 75.032 53.9352C75.0213 53.9519 75.008 53.9686 75.0054 53.9853ZM73.9113 46.7053C73.8794 46.6552 73.8501 46.5984 73.8128 46.5582C73.8022 46.5482 73.7623 46.585 73.7223 46.6117C73.757 46.6619 73.7862 46.7153 73.8262 46.7454C73.8421 46.7588 73.8821 46.7187 73.9113 46.7053ZM53.0585 65.4435C53.0585 65.4736 53.0878 65.5003 53.1037 65.5304C53.1144 65.4936 53.1303 65.4569 53.1357 65.4201C53.1383 65.4067 53.1197 65.3867 53.1091 65.37C53.0904 65.3933 53.0585 65.4201 53.0585 65.4435ZM55.3477 40.8292C55.337 40.8425 55.329 40.8526 55.3157 40.8626C55.3317 40.886 55.345 40.906 55.361 40.9294C55.3636 40.9127 55.369 40.896 55.3743 40.8793C55.3663 40.8626 55.3556 40.8459 55.3477 40.8292ZM55.9599 41.2971C55.4302 41.0999 54.9537 41.7183 54.7275 42.2898C53.9954 44.1416 54.07 46.2507 54.1605 48.2763C54.2084 49.3459 54.3308 50.0278 54.3787 51.0974C55.4595 50.8868 56.5428 50.6762 57.6262 50.4657C57.5943 47.6446 57.549 44.7499 56.5907 42.1461C56.4603 41.7951 56.282 41.4141 55.9599 41.2971ZM57.179 20.6671C57.1737 20.6303 57.1577 20.5935 57.1444 20.5568C57.1338 20.5735 57.1125 20.5902 57.1151 20.6036C57.1204 20.6403 57.1338 20.6738 57.1471 20.7139C57.1604 20.6972 57.1817 20.6804 57.179 20.6671ZM57.3334 27.2485C57.3414 27.2886 57.3574 27.3254 57.368 27.3588C57.3813 27.3454 57.4053 27.3287 57.4053 27.3187C57.3973 27.2786 57.3813 27.2418 57.368 27.205C57.3574 27.2218 57.3334 27.2385 57.3334 27.2485ZM53.7931 43.3561C53.7825 43.3494 53.7719 43.3427 53.7639 43.3361C53.7585 43.3528 53.7559 43.3728 53.7506 43.3895C53.7639 43.3762 53.7798 43.3661 53.7931 43.3561ZM53.2022 13.748C53.165 13.7046 53.1303 13.6611 53.0931 13.621C53.0771 13.6511 53.0585 13.6812 53.0292 13.7347C53.0665 13.7648 53.1037 13.7982 53.141 13.8149C53.157 13.8182 53.1809 13.7714 53.2022 13.748ZM75.4632 75.0733C75.4605 75.0967 75.4579 75.1234 75.4552 75.1502C75.4845 75.1435 75.5164 75.1435 75.5484 75.1368C75.551 75.1368 75.551 75.1101 75.551 75.1C75.5218 75.0867 75.4925 75.08 75.4632 75.0733ZM56.6759 28.2412C56.6786 28.2479 56.6972 28.2412 56.7105 28.2412C56.7158 28.2245 56.7185 28.2045 56.7238 28.1844C56.7025 28.1844 56.6839 28.1844 56.6626 28.1844C56.6679 28.2045 56.6679 28.2245 56.6759 28.2412ZM54.1179 26.2457C53.8464 26.8975 53.7559 27.6262 53.6787 28.3415C53.4711 30.2868 53.3406 32.2422 53.2821 34.2009L53.1969 34.328C54.2616 34.0773 55.3264 33.8266 56.3911 33.5725C56.4763 33.5525 56.5668 33.5291 56.6227 33.4556C56.6812 33.3753 56.6866 33.2684 56.6866 33.1648C56.7105 30.9386 56.7318 28.6891 56.2527 26.5265C56.1409 26.0218 55.9492 25.4569 55.5154 25.2797C54.9484 25.0525 54.3734 25.6374 54.1179 26.2457ZM56.9048 33.7464C56.9048 33.7129 56.9048 33.6795 56.9048 33.6461C56.8569 33.6528 56.809 33.6595 56.6706 33.6795C56.809 33.7196 56.8569 33.733 56.9048 33.7464ZM56.0291 37.6437C56.0211 37.6838 55.9972 37.734 56.0078 37.7641C56.0184 37.7942 56.061 37.8042 56.0903 37.8242C56.1063 37.8109 56.1223 37.8008 56.1356 37.7875C56.101 37.7407 56.0664 37.6905 56.0291 37.6437ZM92.0997 14.2327C92.0704 14.216 92.0172 14.2561 91.9533 14.2795C92.0012 14.4299 92.0917 14.4366 92.1716 14.4567C92.1929 14.4633 92.2195 14.4199 92.2408 14.3965C92.1955 14.3397 92.1556 14.2695 92.0997 14.2327ZM81.6067 12.5381C81.6147 12.5581 81.6227 12.5782 81.628 12.5982C81.644 12.5748 81.66 12.5481 81.6733 12.528C81.66 12.5147 81.6467 12.4913 81.6333 12.4946C81.6254 12.4946 81.6147 12.5213 81.6067 12.5381ZM81.0025 18.8888C81.0158 18.8621 81.0318 18.832 81.0397 18.8019C81.0424 18.7953 81.0158 18.7785 81.0051 18.7652C80.9892 18.7986 80.9732 18.8287 80.9599 18.8621C80.9732 18.8688 80.9972 18.8888 81.0025 18.8888ZM75.8731 54.597C75.8279 54.5836 75.7799 54.597 75.7241 54.6037C75.7454 54.6605 75.7587 54.7307 75.7773 54.7341C75.8172 54.7407 75.8625 54.714 75.9077 54.7006C75.8971 54.6639 75.8891 54.597 75.8731 54.597ZM92.656 16.9903C92.6454 17.0037 92.648 17.0304 92.6454 17.0505C92.6693 17.0471 92.6933 17.0438 92.7173 17.0404C92.7093 17.0237 92.7039 17.0037 92.6986 16.9836C92.6826 16.9836 92.6614 16.9803 92.656 16.9903ZM94.341 13.9653C94.3569 14.0255 94.3649 14.0923 94.3889 14.1425C94.4075 14.1792 94.4448 14.1993 94.4741 14.226C94.4874 14.2093 94.5113 14.1859 94.5113 14.1792C94.4847 14.099 94.4581 14.0221 94.4235 13.9553C94.4182 13.9419 94.3676 13.962 94.341 13.9653ZM81.7691 9.2323C81.7824 9.24901 81.7931 9.26239 81.8037 9.2791C81.833 9.26573 81.8649 9.25236 81.8942 9.23899C81.8836 9.22227 81.8702 9.19219 81.8596 9.19553C81.8303 9.19888 81.801 9.21559 81.7691 9.2323ZM92.3712 4.17507C92.3366 4.13496 92.3047 4.09819 92.2541 4.04137C92.2195 4.12159 92.1955 4.16838 92.1822 4.2252C92.1796 4.23857 92.2408 4.2954 92.2541 4.28537C92.2993 4.26197 92.3313 4.21183 92.3712 4.17507ZM93.5318 6.819C93.5611 6.83906 93.5877 6.86245 93.6143 6.88585C93.6276 6.86914 93.6409 6.85243 93.6542 6.83571C93.6249 6.81232 93.5983 6.78558 93.5664 6.76552C93.5637 6.76552 93.5451 6.79895 93.5318 6.819ZM93.955 3.60684C93.9497 3.61352 93.9444 3.61686 93.939 3.62355C93.947 3.63692 93.955 3.65029 93.963 3.66366C93.9603 3.64361 93.9577 3.62689 93.955 3.60684ZM85.706 1.71497C85.7006 1.72834 85.6953 1.74171 85.69 1.75174C85.7006 1.74505 85.7113 1.74171 85.7246 1.73168C85.7166 1.725 85.7139 1.72166 85.706 1.71497ZM77.4596 50.9603C77.409 51.0406 77.3558 51.1241 77.3025 51.2043C77.393 51.3113 77.4649 51.4751 77.574 51.3213C77.6885 51.1642 77.6193 51.0406 77.4596 50.9603ZM76.7036 40.886C76.7143 40.8826 76.7249 40.876 76.7356 40.8726C76.7302 40.8526 76.7276 40.8358 76.7222 40.8191C76.7169 40.8425 76.7089 40.8659 76.7036 40.886ZM77.0363 40.1941C77.0071 40.1774 76.9778 40.1573 76.9485 40.1473C76.9405 40.1473 76.9166 40.1774 76.9166 40.1907C76.9166 40.2075 76.9405 40.2409 76.9485 40.2375C76.9778 40.2309 77.0071 40.2108 77.0363 40.1941ZM76.3975 44.1516C76.4002 44.165 76.4055 44.1784 76.4081 44.1917C76.4241 44.1884 76.4374 44.1817 76.4507 44.1784C76.4348 44.1683 76.4161 44.1583 76.3975 44.1516ZM76.3975 52.2639C76.4108 52.2506 76.4268 52.2405 76.4294 52.2272C76.4348 52.2171 76.4188 52.1971 76.4108 52.1837C76.3948 52.2038 76.3789 52.2238 76.3629 52.2439C76.3735 52.2506 76.3869 52.2572 76.3975 52.2639ZM79.7168 15.2488C79.7142 15.192 79.7221 15.1185 79.6982 15.0817C79.6689 15.0349 79.613 15.0149 79.4586 14.9112C79.5332 15.1018 79.5465 15.1786 79.5837 15.2188C79.613 15.2522 79.6716 15.2388 79.7168 15.2488ZM76.8447 7.47748C76.85 7.45742 76.85 7.424 76.842 7.41397C76.8021 7.38389 76.7622 7.36049 76.7222 7.33375C76.7143 7.35046 76.6983 7.3772 76.7036 7.38389C76.7329 7.43402 76.7675 7.47748 76.8021 7.52093C76.8207 7.50088 76.8394 7.49419 76.8447 7.47748ZM83.7069 16.636L83.6909 16.5825L83.6776 16.6494L83.7069 16.636ZM82.5144 12.9224L82.4798 12.9024L82.4745 12.9425L82.5144 12.9224ZM79.5465 14.5035C79.5731 14.4901 79.597 14.4667 79.6237 14.4466C79.5997 14.4199 79.5757 14.3932 79.5518 14.3631C79.5358 14.3965 79.5172 14.4299 79.5065 14.47C79.5065 14.4734 79.5358 14.5068 79.5465 14.5035ZM79.826 15.8472C79.8339 15.8806 79.8499 15.9107 79.8632 15.9441C79.8739 15.9307 79.8845 15.914 79.8952 15.9006C79.8845 15.8672 79.8685 15.8338 79.8552 15.8004C79.8446 15.8171 79.8233 15.8371 79.826 15.8472ZM54.2244 13.9118C54.2377 13.9185 54.2536 13.9252 54.2696 13.9319C54.2829 13.9219 54.2962 13.9118 54.3095 13.9018C54.3016 13.8851 54.2936 13.8717 54.2856 13.855C54.2643 13.8751 54.243 13.8918 54.2244 13.9118ZM50.4818 20.0153C50.4925 20.0454 50.5351 20.0554 50.5963 20.0988C50.6282 20.0286 50.6681 19.9651 50.6921 19.8883C50.6974 19.8682 50.6602 19.798 50.6362 19.7913C50.5537 19.7646 50.4445 19.9183 50.4818 20.0153ZM49.7125 54.0455C49.6859 54.0421 49.6566 54.0388 49.6274 54.0355C49.6407 54.0455 49.654 54.0689 49.6673 54.0689C49.6806 54.0689 49.6966 54.0522 49.7125 54.0455ZM49.9601 12.6517C49.9468 12.655 49.9282 12.655 49.9228 12.6651C49.9148 12.6818 49.9175 12.7085 49.9148 12.7286C49.9335 12.7219 49.9548 12.7186 49.9761 12.7119C49.9707 12.6918 49.9654 12.6718 49.9601 12.6517ZM49.9734 38.1117C49.9894 38.1017 50.0053 38.0883 50.0187 38.0816C49.9947 38.0582 49.9707 38.0214 49.9468 38.0214C49.9228 38.0214 49.8989 38.0582 49.8749 38.0783C49.9069 38.0883 49.9415 38.1017 49.9734 38.1117ZM58.1692 38.9741C58.1799 38.9373 58.1985 38.9005 58.2038 38.8638C58.2065 38.847 58.1852 38.827 58.1745 38.8103C58.1559 38.837 58.1213 38.8604 58.1213 38.8838C58.1213 38.9139 58.1506 38.944 58.1692 38.9741ZM68.8192 78.232C68.8299 78.2487 68.8459 78.2855 68.8512 78.2821C68.8831 78.2721 68.9151 78.252 68.947 78.2353C68.9364 78.2186 68.9204 78.1852 68.9097 78.1852C68.8778 78.1952 68.8485 78.2153 68.8192 78.232ZM49.3532 9.71028C49.4118 9.69357 49.4677 9.66015 49.5475 9.62672C49.4916 9.56321 49.4597 9.51976 49.449 9.52644C49.3878 9.56321 49.3319 9.61335 49.2733 9.66014C49.3 9.67686 49.3319 9.71697 49.3532 9.71028ZM46.9203 77.5869C46.9256 77.5702 46.9283 77.5501 46.9336 77.5334C46.9229 77.5267 46.9096 77.5234 46.899 77.5167C46.8937 77.5367 46.8883 77.5534 46.8883 77.5702C46.8883 77.5768 46.9096 77.5802 46.9203 77.5869ZM69.3489 47.3838C69.4261 47.3103 69.5007 47.2635 69.4953 47.2401C69.482 47.1632 69.4368 47.093 69.4075 47.0195C69.3649 47.0563 69.2957 47.0897 69.293 47.1298C69.2877 47.2 69.3223 47.2735 69.3489 47.3838ZM48.8315 24.7115C48.8608 24.7015 48.8874 24.6881 48.914 24.6748C48.9087 24.6614 48.9033 24.638 48.898 24.638C48.8714 24.6447 48.8448 24.6547 48.8182 24.6647C48.8235 24.6814 48.8315 24.7115 48.8315 24.7115ZM45.7278 72.309C45.7331 72.309 45.7384 72.2856 45.7437 72.2689C45.7278 72.2656 45.7118 72.2556 45.6985 72.2556C45.6905 72.2556 45.6878 72.2823 45.6825 72.299C45.6985 72.3023 45.7118 72.3124 45.7278 72.309ZM68.4918 35.665C68.5051 35.6549 68.5264 35.6483 68.5291 35.6349C68.5344 35.5981 68.5318 35.558 68.5318 35.5179C68.5051 35.5279 68.4785 35.5346 68.4546 35.5446C68.4679 35.5847 68.4785 35.6249 68.4918 35.665ZM52.4569 32.2957C52.4569 32.2857 52.4276 32.2523 52.425 32.2523C52.4037 32.2723 52.3664 32.299 52.3691 32.3191C52.3744 32.3525 52.401 32.3793 52.4196 32.4127C52.4329 32.3726 52.4489 32.3358 52.4569 32.2957ZM52.3318 58.8888C52.3744 58.8921 52.4143 58.8788 52.4675 58.8721C52.4383 58.8186 52.425 58.7685 52.401 58.7618C52.3744 58.7551 52.3371 58.7785 52.3132 58.8019C52.3052 58.8086 52.3238 58.8888 52.3318 58.8888ZM52.7816 63.6118C52.7657 63.5784 52.755 63.5215 52.7337 63.5149C52.7098 63.5048 52.6752 63.5383 52.6432 63.555C52.6672 63.5984 52.6885 63.6419 52.7124 63.6853C52.7337 63.6586 52.7577 63.6385 52.7816 63.6118ZM51.9884 77.5468C52.0177 77.5401 52.047 77.5234 52.0736 77.5133C52.0496 77.4933 52.023 77.4766 51.9937 77.4665C51.9858 77.4632 51.9618 77.4899 51.9618 77.5033C51.9618 77.5167 51.9804 77.5468 51.9884 77.5468ZM47.6017 77.0086C47.607 76.9919 47.6097 76.9785 47.6177 76.9585C47.5964 76.9585 47.5777 76.9585 47.5565 76.9551C47.5618 76.9718 47.5618 76.9952 47.5698 77.0086C47.5751 77.0153 47.5884 77.0086 47.6017 77.0086ZM52.196 9.34929C52.1934 9.42283 52.2147 9.55318 52.2493 9.56321C52.3451 9.59998 52.4516 9.58661 52.6512 9.59998C52.4942 9.4362 52.417 9.34261 52.3265 9.2791C52.2999 9.25904 52.196 9.31921 52.196 9.34929ZM49.835 51.1977C49.8856 51.1241 49.8856 51.0272 49.8856 50.9336C49.8856 49.9208 49.8856 48.908 49.8829 47.8953C49.8829 46.5181 49.8802 45.1243 49.5715 43.794C49.4543 43.2859 49.2121 42.7077 48.7463 42.6375C48.5546 42.6074 48.3603 42.6776 48.1873 42.7779C47.2264 43.3427 46.9496 44.7232 46.8138 45.9332C46.5875 47.9755 46.4411 49.7737 46.4092 51.8294C47.4633 51.6623 48.5174 51.4918 49.5688 51.3247C49.6673 51.308 49.7764 51.2879 49.835 51.1977ZM50.5297 78.5896C50.5563 78.5027 50.5803 78.4292 50.6016 78.3556C50.5723 78.3423 50.5244 78.3122 50.5164 78.3222C50.4845 78.3724 50.4605 78.4325 50.4445 78.4927C50.4419 78.5061 50.4845 78.5395 50.5297 78.5896ZM51.6504 32.7804C51.6504 32.7804 51.6291 32.7804 51.6131 32.7804C51.6131 32.8238 51.6131 32.8639 51.6131 32.9074C51.6291 32.9074 51.6397 32.9074 51.653 32.9074C51.653 32.8639 51.653 32.8238 51.6504 32.7804ZM49.9255 57.9362C49.433 57.9295 49.1296 58.481 48.9566 58.9623C47.9637 61.7199 47.5831 64.7115 47.8572 67.6362L47.9318 67.7799C49.1429 67.8936 50.3487 68.0105 51.5599 68.1242C51.6584 65.0558 51.7515 61.9104 50.8518 58.9857C50.7001 58.5011 50.4179 57.9429 49.9255 57.9362ZM51.9804 16.2917C51.9618 16.3118 51.9325 16.3352 51.9325 16.3586C51.9325 16.3886 51.9591 16.4154 51.9751 16.4421C51.9858 16.4054 52.0017 16.3719 52.0071 16.3352C52.0097 16.3218 51.9884 16.3051 51.9804 16.2917ZM51.5306 51.6121C51.5146 51.6456 51.5013 51.679 51.488 51.7124C51.4986 51.7291 51.5093 51.7492 51.5173 51.7659C51.5332 51.7291 51.5519 51.6957 51.5625 51.6589C51.5652 51.6489 51.5412 51.6289 51.5306 51.6121ZM57.6129 68.0039L57.5943 67.9437L57.5756 68.0039H57.6129ZM59.5028 67.7097C59.4442 65.0725 59.2552 62.4352 58.9358 59.8147C58.816 58.832 58.627 57.7657 57.7726 57.1139C57.6714 57.0337 57.557 56.9635 57.4212 56.9401C57.2589 56.9134 57.0938 56.9635 56.9474 57.0337C56.1515 57.4148 55.9279 58.2905 55.7975 59.0626C55.2944 62.0241 54.9031 65.0257 55.2279 67.9905V67.937C56.6413 67.7431 58.076 67.6696 59.5028 67.7097ZM64.8078 55.0148C64.8531 54.9948 64.8957 54.9613 64.9409 54.9279C64.9143 54.8744 64.8957 54.8377 64.8771 54.8042C64.8371 54.8377 64.7919 54.8678 64.7573 54.9145C64.7519 54.9212 64.7999 55.0182 64.8078 55.0148ZM65.3668 35.3508C65.3376 35.3441 65.3056 35.3207 65.2817 35.3307C65.255 35.3441 65.2444 35.3875 65.2258 35.4176C65.255 35.4276 65.2896 35.451 65.3136 35.4377C65.3376 35.4276 65.3482 35.3809 65.3668 35.3508ZM68.1405 77.393C68.1458 77.4298 68.1591 77.4632 68.1724 77.5033C68.1831 77.4866 68.207 77.4732 68.2044 77.4632C68.2017 77.4264 68.1884 77.393 68.1751 77.3562C68.1644 77.3696 68.1378 77.383 68.1405 77.393ZM55.8241 57.0404C55.8135 57.007 55.8002 56.9769 55.7869 56.9435C55.7762 56.9568 55.7629 56.9735 55.7523 56.9836C55.7656 57.017 55.7789 57.0504 55.7895 57.0805C55.8028 57.0671 55.8241 57.0504 55.8241 57.0404ZM55.2119 80.9862C55.2305 81.0631 55.2625 81.14 55.2918 81.2135C55.2998 81.2302 55.3264 81.2302 55.3423 81.2402C55.353 81.2001 55.3823 81.1533 55.3743 81.1199C55.353 81.043 55.3157 80.9795 55.2864 80.906C55.2598 80.9327 55.2092 80.9695 55.2119 80.9862ZM55.6644 78.964C55.7416 78.837 55.7203 78.7066 55.5659 78.6164C55.5313 78.7233 55.4994 78.8269 55.4515 78.984C55.542 78.9807 55.6378 79.0074 55.6644 78.964ZM55.5819 75.1803H55.55L55.5686 75.2271L55.5819 75.1803ZM60.7672 63.4681C60.7805 63.5015 60.8231 63.5215 60.871 63.5683C60.9056 63.4881 60.9375 63.4112 60.9668 63.3377C60.9375 63.3176 60.9029 63.2742 60.8736 63.2809C60.8018 63.3009 60.7246 63.3377 60.7672 63.4681ZM63.8656 72.7837C63.8842 72.777 63.9002 72.777 63.9188 72.7703C63.9135 72.7536 63.9108 72.7369 63.9055 72.7202C63.8948 72.7235 63.8789 72.7235 63.8762 72.7302C63.8682 72.7436 63.8682 72.7636 63.8656 72.7837ZM64.5656 76.056C64.5683 76.0761 64.5869 76.0961 64.5976 76.1162C64.5949 76.0961 64.5949 76.0727 64.5896 76.0527C64.5843 76.0092 64.5736 75.9691 64.5656 75.9256C64.5656 75.9256 64.563 75.929 64.563 75.9323C64.563 75.9724 64.5603 76.0125 64.5656 76.056ZM66.9293 67.3588C67.0118 67.3621 67.1024 67.3654 67.1742 67.3186C67.2913 67.2384 67.2967 67.068 67.2887 66.9242C67.2195 65.4435 67.1503 63.9661 67.0784 62.4854C66.9985 60.774 66.9054 59.0091 66.1814 57.4716C65.9551 56.9969 65.5771 56.4922 65.0634 56.519C64.8052 56.5323 64.5656 56.6861 64.3873 56.8833C64.0519 57.2543 63.8975 57.7557 63.7671 58.2437C62.9792 61.2419 62.7928 64.4073 63.224 67.4791C64.4006 67.5493 65.7555 67.2886 66.9293 67.3588ZM65.8114 77.1791C65.8273 77.1657 65.8539 77.1457 65.8513 77.139C65.8406 77.1022 65.8247 77.0721 65.8087 77.042C65.798 77.0721 65.7821 77.1055 65.7741 77.139C65.7714 77.1457 65.8007 77.1657 65.8114 77.1791ZM64.8371 75.7418C64.7919 75.7385 64.7307 75.7084 64.704 75.7318C64.6481 75.7819 64.6082 75.8621 64.563 75.929L64.5656 75.9256C64.6481 75.9858 64.736 76.0326 64.8078 75.919C64.8345 75.8788 64.8265 75.802 64.8371 75.7418ZM62.1673 69.391C62.2099 69.4445 62.2738 69.4712 62.3323 69.508C62.343 69.4712 62.3563 69.4345 62.3776 69.3676C62.327 69.3242 62.2711 69.274 62.2152 69.2272C62.1966 69.284 62.154 69.371 62.1673 69.391ZM63.4237 67.8C63.437 67.7899 63.461 67.7799 63.461 67.7665C63.4663 67.7498 63.4503 67.7298 63.445 67.7097C63.421 67.7298 63.3997 67.7498 63.3784 67.7699C63.3944 67.7833 63.4104 67.7899 63.4237 67.8ZM65.0794 50.0478C65.1326 49.9442 65.1353 49.8172 65.1379 49.6969C65.1645 48.4167 65.1353 47.1398 65.0607 45.863C65.0634 45.863 65.0634 45.8597 65.066 45.8597C65.0634 45.8563 65.0607 45.8496 65.0607 45.8429C64.9729 44.3823 64.8238 42.9249 64.6082 41.4776C64.5523 41.1233 64.4938 40.759 64.334 40.4515C64.1717 40.1439 63.8842 39.8899 63.5648 39.8899C63.2347 39.8933 62.9525 40.1506 62.7316 40.4214C61.3155 42.1461 61.1957 44.7232 61.2223 47.0663C61.2357 48.3432 61.3341 49.0351 61.39 50.3086C62.4175 50.3052 63.445 50.2985 64.4751 50.2952C64.6987 50.2918 64.9649 50.2651 65.0794 50.0478ZM64.3527 71.9146H64.326L64.3394 71.9614L64.3527 71.9146ZM64.6854 77.0019C64.6987 77.0387 64.7147 77.0721 64.7253 77.1089C64.728 77.1189 64.7014 77.1457 64.6881 77.149C64.6774 77.149 64.6508 77.1223 64.6508 77.1122C64.6588 77.0755 64.6748 77.0387 64.6854 77.0019Z" fill="white"/>
</svg>
