<svg width="158" height="90" viewBox="0 0 158 90" fill="none" xmlns="http://www.w3.org/2000/svg">
<mask id="mask0_2_6139" style="mask-type:luminance" maskUnits="userSpaceOnUse" x="0" y="0" width="158" height="90">
<path d="M0 0H157.999V90.0001H0V0Z" fill="white"/>
</mask>
<g mask="url(#mask0_2_6139)">
<path d="M157.191 68.8427C156.02 68.1697 154.796 67.634 153.591 67.0949C143.973 62.7858 133.871 61.1518 123.824 60.9175C113.55 60.6797 103.293 61.8449 93.0723 63.1742C82.2682 64.5804 71.424 66.2344 60.5612 65.5581C55.1511 65.2233 49.829 64.192 44.5389 62.5413C40.0861 61.1518 35.3826 59.5782 30.8364 61.0179C29.7459 61.3628 28.6953 61.8985 27.6954 62.6016C27.3355 62.8527 27.6528 63.2411 27.9381 63.0402C28.0847 62.9398 28.2367 62.8393 28.3887 62.7422L31.927 62.2534C25.477 63.894 19.1524 66.3985 13.017 69.6965C9.44142 71.6184 5.93247 73.7981 2.49018 76.1686C1.42363 76.9019 0.122433 77.5347 0.00777904 79.49C-0.0855437 81.0637 0.671708 82.2121 1.69293 82.5771C3.34608 83.1664 5.12189 82.8249 6.79371 82.6139C8.90015 82.3494 11.0093 82.0815 13.1157 81.817C17.3312 81.2813 21.5468 80.749 25.7597 80.2166C27.8181 79.9588 29.8739 79.6976 31.9296 79.4365C34.0814 79.1653 36.2465 78.7601 38.4063 78.6195C38.9102 78.5827 39.7795 78.499 39.6195 79.6373C39.5902 79.8483 39.4622 80.0559 39.3635 80.2166C39.1795 80.5112 38.9422 80.769 38.7369 81.0369C37.9903 82.0213 37.2464 83.0057 36.4998 83.9867C36.1799 84.4119 35.5586 84.9543 35.3746 85.5403C34.884 87.0905 36.7131 87.7032 37.3984 87.7333C38.193 87.7668 39.0169 87.5492 39.8035 87.4286C40.8647 87.2679 41.9259 87.0938 42.9844 86.913C45.0589 86.5648 47.1307 86.1831 49.1998 85.7914C57.4629 84.2311 65.7233 82.4967 74.0504 81.7735C78.218 81.4119 82.3962 81.3014 86.5637 81.6061C86.9823 81.6362 89.2994 81.586 88.3795 83.0592C88.1715 83.394 87.7876 83.6519 87.5343 83.903C86.8037 84.6362 86.0651 85.3461 85.3425 86.0927C84.7186 86.7389 84.3133 87.7735 84.7693 88.8382C85.4012 90.3182 87.273 89.98 88.2995 89.9365C92.1498 89.7657 96.0134 89.2266 99.8556 88.8282C107.94 87.9978 116.025 87.0737 124.096 86.0157C128.093 85.49 132.087 84.9376 136.078 84.3382C137.038 84.1976 137.995 84.0503 138.955 83.903C139.598 83.8025 140.467 83.8963 141.056 83.4677C142.464 82.4432 140.646 80.8394 139.987 80.3606C139.03 79.6675 138.006 79.1753 136.964 78.8103C141.984 77.394 146.973 75.74 151.914 73.8349C153.226 73.326 154.535 72.8036 155.839 72.2646C156.511 71.9867 157.663 71.8494 157.937 70.711C158.156 69.807 157.74 69.1608 157.191 68.8427ZM79.2738 22.5134C79.8791 21.8404 80.4871 21.1674 81.0923 20.4944L81.0123 20.3471C81.5296 20.2935 81.8496 19.5469 81.8042 18.8973C81.7589 18.2444 82.0842 19.4464 81.8042 18.8973C80.7564 16.8181 79.3032 12.3783 80.1937 10.1853C80.639 9.0904 81.4496 8.30357 82.2949 7.6808C82.8948 7.24218 83.5614 6.85379 84.2546 6.9241C85.1745 7.0212 85.9211 7.90513 86.4597 8.84598C87.001 9.79017 87.4276 10.8516 88.1156 11.6283C88.6835 9.31138 88.7768 6.8337 89.4407 4.56026C90.102 2.28347 91.5845 0.107128 93.5096 0.00333363C95.2934 -0.0904173 96.8773 1.67075 97.5812 3.73325C98.2851 5.7991 98.2985 8.11607 98.3011 10.3594C99.0184 9.2779 99.837 8.25669 100.856 7.6741C101.877 7.09151 103.133 7.01115 104.082 7.76115C105.29 8.7154 105.698 10.7243 105.596 12.5156C105.498 14.3069 105.007 16.0279 104.86 17.8159C104.842 18.0402 104.831 18.2813 104.914 18.4821C105.002 18.6931 105.18 18.8237 105.354 18.9208C106.62 19.6406 108.241 19.3996 109.255 20.5949C99.245 20.6819 89.2381 21.3214 79.2738 22.5134Z" fill="#A2DDAC"/>
</g>
</svg>
