<svg width="126" height="34" viewBox="0 0 126 34" fill="none" xmlns="http://www.w3.org/2000/svg">
<mask id="mask0_2_6156" style="mask-type:luminance" maskUnits="userSpaceOnUse" x="0" y="-1" width="126" height="35">
<path d="M0 -0.191713H126V33.3098H0V-0.191713Z" fill="white"/>
</mask>
<g mask="url(#mask0_2_6156)">
<path d="M15.5282 19.9492C15.518 19.9368 15.5077 19.9245 15.4995 19.9102C15.5282 19.9676 15.5672 20.0373 15.6041 20.0948C15.5897 20.064 15.5754 20.0332 15.561 20.0045C15.5487 19.982 15.5385 19.9615 15.5282 19.9492ZM106.499 16.9099C106.513 16.8709 106.525 16.8381 106.531 16.8156C106.521 16.8484 106.511 16.8791 106.501 16.9079C106.499 16.9099 106.499 16.9099 106.499 16.9099ZM107.651 15.9132C107.551 15.9255 107.456 15.9419 107.444 15.9645C107.432 15.9829 107.579 15.9358 107.651 15.9132ZM15.682 20.185C15.68 20.185 15.68 20.1809 15.6779 20.1809C15.68 20.1829 15.68 20.185 15.682 20.185ZM123.372 13.6266C122.552 13.9834 121.613 14.0962 120.698 14.2152C119.384 14.3874 118.067 14.5597 116.753 14.732C114.158 15.0704 111.568 15.4087 108.976 15.7471C108.617 15.7943 108.256 15.8373 107.899 15.8886C107.865 15.8927 107.766 15.9009 107.666 15.9112C107.651 15.9173 107.629 15.9255 107.598 15.9358C107.522 15.9645 107.444 15.985 107.368 16.0117C107.212 16.067 107.079 16.145 106.931 16.2085C106.927 16.2085 106.927 16.2106 106.923 16.2106C106.878 16.2537 106.827 16.2947 106.786 16.3377C106.732 16.3931 106.694 16.471 106.634 16.5203C106.601 16.6187 106.566 16.7192 106.531 16.8156C106.57 16.6884 106.507 16.8074 106.501 16.9079C106.495 16.9202 106.493 16.9325 106.488 16.9427C106.493 16.9304 106.495 16.9222 106.499 16.9099C106.499 16.914 106.499 16.9161 106.499 16.9202C106.495 17.0309 106.486 17.1396 106.486 17.2483C106.456 19.2109 106.228 21.0402 104.932 22.769C103.812 24.264 101.958 25.193 99.7455 25.3489C98.5888 25.4288 97.4117 25.3242 96.2571 25.2648C94.9672 25.2012 93.6752 25.1335 92.3852 25.0699C89.7233 24.9346 87.0614 24.7992 84.3995 24.6659C81.8565 24.5367 79.3095 24.3665 76.7603 24.3317C75.4971 24.3153 74.2317 24.3399 72.9746 24.4404C71.8692 24.5306 70.5424 24.7131 69.6318 24.9284C67.4724 25.4411 65.3806 26.1076 63.3278 26.8357C59.2918 28.2651 55.3851 29.9282 51.2056 31.1013C46.5626 32.4035 41.61 33.0536 36.6922 33.2526C31.6453 33.4556 26.5368 33.1213 21.6067 32.2436C20.4091 32.0282 19.2319 31.8129 18.1266 31.3822C16.8961 30.9024 15.9138 30.041 15.2473 29.1161C14.4269 27.9821 14.1665 26.6983 14.4331 25.4206C14.6218 24.5224 15.2001 23.7328 15.5713 22.8797C15.6533 22.689 15.723 22.4983 15.7805 22.3055C15.8071 22.2173 15.8297 22.1332 15.8522 22.0451C15.8563 22.0245 15.8666 21.9958 15.8789 21.9671C15.8768 21.9692 15.8768 21.9692 15.8768 21.9712C15.762 22.2194 15.8727 21.9938 15.883 21.8953C15.8912 21.8072 15.8974 21.719 15.9015 21.6308C15.9097 21.477 15.9097 21.3211 15.9035 21.1673C15.9035 21.1407 15.9015 21.114 15.8994 21.0873C15.8933 21.0381 15.8912 20.9889 15.883 20.954C15.8502 20.7777 15.8071 20.6034 15.7579 20.4311C15.7538 20.4208 15.7497 20.4106 15.7476 20.4003C15.7005 20.2978 15.6533 20.1952 15.6041 20.0948C15.6308 20.1337 15.6574 20.1665 15.6779 20.1809C15.641 20.1522 15.5959 20.0681 15.561 20.0045C15.5569 19.9943 15.5528 19.984 15.5467 19.9758C15.4277 19.7441 15.4421 19.7994 15.4995 19.9102C15.397 19.7707 15.278 19.6333 15.1857 19.4898C15.2165 19.5349 15.2411 19.5759 15.2637 19.6108C15.2411 19.5841 15.2165 19.5554 15.1919 19.5328C15.1673 19.5062 15.1406 19.4816 15.114 19.457C15.1386 19.4713 15.1673 19.4898 15.196 19.5082C15.1611 19.4877 15.1304 19.4631 15.0955 19.4406C15.0565 19.4016 15.0176 19.3647 14.9786 19.3278C14.9007 19.2519 14.8268 19.217 14.8186 19.2293C14.7612 19.1842 14.7038 19.1391 14.6423 19.0981C14.6156 19.0796 14.5931 19.0653 14.5746 19.0509C14.5705 19.0489 14.5664 19.0489 14.5623 19.0448C14.2219 18.8643 13.8486 18.6777 13.4651 18.5464C13.3687 18.5198 13.2436 18.4828 13.2067 18.4726C13.0878 18.4357 12.9647 18.4008 12.8437 18.368C12.5997 18.3003 12.3516 18.2409 12.1034 18.1834C11.6338 18.0768 11.158 17.9866 10.6802 17.9045C9.61582 17.722 8.54121 17.5846 7.47686 17.4082C6.45147 17.2401 5.42198 17.0432 4.44991 16.7315C2.5878 16.1347 1.09279 15.0539 0.379115 13.5487C0.0263813 12.8063 -0.154087 11.9429 0.163783 11.1718C0.397572 10.6058 0.856946 10.2531 1.41066 9.86958C2.27403 9.2687 3.19073 8.71499 4.13819 8.20025C6.05567 7.15435 8.1167 6.28892 10.2659 5.5732C12.4274 4.86568 14.6628 4.31607 16.935 3.869C25.9687 2.09508 35.3654 2.25709 44.5816 1.58238C54.8868 0.827698 65.1981 0.204261 75.5483 0.0443004C85.913 -0.11566 96.2961 0.144789 106.603 1.03483C111.65 1.46959 117.056 1.89 121.609 3.80338C124.279 4.92515 125.827 7.27945 125.997 9.58247C126.116 11.1923 125.214 12.8227 123.372 13.6266ZM15.2637 19.6108C15.4421 19.822 15.5733 20.0866 15.2637 19.6108V19.6108ZM15.0955 19.4406C15.1017 19.4447 15.1078 19.4508 15.114 19.457C14.8802 19.3114 14.8104 19.2416 14.8186 19.2293C14.9109 19.3011 15.0012 19.3749 15.0955 19.4406Z" fill="#A2DDAC"/>
</g>
</svg>
