<svg width="451" height="78" viewBox="0 0 451 78" fill="none" xmlns="http://www.w3.org/2000/svg">
<path d="M1.01237 31.3249C-2.91699 40.1898 5.09354 49.8843 16.3838 55.0705C27.6741 60.2532 41.5557 61.9513 54.9855 63.5329C84.9199 67.0528 114.854 70.5726 144.792 74.0924C160.775 75.9706 176.863 77.8594 193.078 77.6829C236.319 77.2098 276.558 62.2231 319.57 59.1481C350.68 56.9204 382.443 60.991 413.232 57.2417C423.304 56.0167 433.5 53.8349 441.129 49.1959C448.755 44.5604 453.224 37.0053 449.87 30.4352C445.592 22.0434 431.322 18.4529 418.686 16.1652C343.414 2.53427 264.802 -2.54954 187.101 1.19271C157.181 2.62606 127.43 5.35861 97.7107 8.09115C71.3596 10.513 11.0211 8.75488 1.01237 31.3249Z" fill="#93C963"/>
</svg>
