<svg width="25" height="43" viewBox="0 0 25 43" fill="none" xmlns="http://www.w3.org/2000/svg">
<path d="M15.2134 0.773754C15.0857 1.87934 15.1845 3.03433 15.1989 4.14609C15.2031 4.38491 15.4604 4.51256 15.7445 4.53726C16.1213 4.66285 16.7081 4.54962 16.7142 4.18727C16.7328 3.01786 16.8254 1.79287 16.4631 0.664637C16.3189 0.215816 15.2689 0.298168 15.2134 0.773754ZM18.5775 1.49022C18.3592 2.43316 18.5033 3.47903 18.528 4.43844C18.5363 4.76991 18.9563 4.92226 19.3516 4.90373C19.7942 5.02109 20.4283 4.88109 20.4407 4.46932C20.4716 3.47903 20.5992 2.35698 20.033 1.48404C19.8024 1.13199 18.7092 0.926106 18.5775 1.49022ZM15.9936 36.1895C15.7775 35.2198 15.4172 34.248 14.6822 33.4759C13.9472 32.7039 12.7778 32.1604 11.5857 32.2633C10.6387 32.3457 9.78015 32.8254 9.19133 33.4471C8.60251 34.0709 8.25663 34.8265 8.02193 35.5903C7.28693 37.9847 7.55457 40.4965 7.31164 42.9547L16.3807 43C16.3745 42.3185 16.3704 41.633 16.3663 40.9515C16.356 39.358 16.3436 37.7542 15.9936 36.1895ZM23.1336 1.89787C22.9215 1.93287 22.5077 2.07698 22.4686 2.34257C22.343 3.22374 22.2854 4.10903 22.3018 4.99844C22.306 5.29079 22.6827 5.3855 23.0574 5.32991C23.463 5.36697 23.9777 5.19814 24.0354 4.87079C24.163 4.17491 24.231 3.46874 24.2289 2.76051C24.2268 2.08522 23.813 1.78463 23.1336 1.89787ZM4.20901 1.49022C3.64077 2.3611 3.77048 3.48727 3.80136 4.47756C3.81371 4.88314 4.44165 5.02109 4.8843 4.90373C5.28165 4.92226 5.70576 4.76579 5.71606 4.43227C5.7387 3.4708 5.88282 2.42698 5.66253 1.48404C5.53076 0.915812 4.43547 1.14434 4.20901 1.49022ZM11.0484 3.99991C11.0587 4.41374 11.6393 4.57844 12.1169 4.50638C12.5966 4.57844 13.1834 4.41168 13.1937 3.99374C13.206 3.4955 13.239 2.97668 13.2307 2.45992C13.2575 1.8011 13.2595 1.14022 13.1381 0.522579C13.0557 0.112875 12.5719 -0.0456538 12.1375 0.0140522C11.6928 -0.0518298 11.1884 0.112876 11.106 0.530814C10.9825 1.14846 10.9846 1.80728 11.0113 2.46198C11.0031 2.9808 11.034 3.50374 11.0484 3.99991ZM1.34726 1.89787C0.744024 1.79698 0.0769689 2.05639 0.0193221 2.72345C-0.0465599 3.46874 0.0666748 4.26344 0.198439 4.99638C0.24785 5.26608 0.573143 5.36491 0.908729 5.33814C1.34314 5.37108 1.93402 5.15079 1.94225 4.75138C1.95666 3.90109 1.90108 3.05904 1.77961 2.21904C1.75078 2.01934 1.51814 1.92463 1.34726 1.89787ZM7.52781 4.19138C7.50928 3.02404 7.41663 1.79904 7.77693 0.670814C7.92104 0.224051 8.9731 0.289933 9.02869 0.767578C9.15839 1.87316 9.05751 3.02815 9.0431 4.13991C9.04104 4.38079 8.77751 4.51256 8.49133 4.53521C8.11457 4.66285 7.53399 4.55168 7.52781 4.19138Z" fill="#286053"/>
</svg>
