<svg width="62" height="28" viewBox="0 0 62 28" fill="none" xmlns="http://www.w3.org/2000/svg">
<path d="M46.7338 2.5094C39.7581 0.085559 31.959 -1.15844 25.0547 1.46144C21.0874 2.96209 17.6869 5.639 13.8836 7.52105C12.137 8.38721 10.2086 9.0502 8.27314 9.34605L0 7.68858C0.360012 13.5593 4.12409 18.8668 9.02168 22.1247C13.9157 25.3862 19.8256 26.8191 25.682 27.3645C32.4046 27.9989 39.4337 27.4429 45.7642 24.9727C49.1434 23.6574 51.5601 21.3548 54.6433 19.683C56.4363 18.7064 59.0419 18.5531 60.5105 17.0311C66.7269 10.5865 51.7953 4.27025 46.7338 2.5094Z" fill="#A6663E"/>
</svg>
