<svg width="81" height="111" viewBox="0 0 81 111" fill="none" xmlns="http://www.w3.org/2000/svg">
<path d="M12.9375 88.3575L13.1643 88.6198C20.4624 96.8324 28.1009 103.255 35.7712 107.92C42.9311 108.164 50.13 107.119 57.1552 104.839C63.4219 106.505 69.5326 107.09 75.3102 106.64C76.4515 84.5365 77.5964 62.557 78.7554 40.7087C72.5844 41.2226 66.0448 40.5917 59.3492 38.784C52.4375 40.8788 45.3591 41.8394 38.3374 41.648C30.061 36.8487 21.8306 30.1177 14.0044 21.4655C8.41112 18.598 6.12137 14.093 2.21886 6.26669C2.10189 28.5581 2.00974 54.4897 1.89986 76.8024C6.76647 81.1869 7.61715 85.6743 12.9375 88.3575ZM0 78.0713C0.095701 53.6851 0.177225 24.3685 0.29065 0C4.73901 7.53562 7.6774 15.0925 13.9795 18.357C21.82 27.041 30.0716 33.7969 38.3764 38.6174C45.4264 38.8265 52.519 37.8731 59.4591 35.7889C66.9061 37.8057 74.1582 38.3799 80.9389 37.5434C79.6416 61.3802 78.3549 85.373 77.0789 109.515C70.7484 110.259 63.9855 109.734 57.0311 107.877C50.0307 110.156 42.8531 111.202 35.7145 110.968C27.9945 106.275 20.31 99.7921 12.9623 91.4837C6.94015 88.4355 5.43019 83.3137 0 78.0713Z" fill="#223A48"/>
</svg>
