<svg width="14" height="37" viewBox="0 0 14 37" fill="none" xmlns="http://www.w3.org/2000/svg">
<path d="M0 36.7998C1.56983 33.9176 3.0288 30.9782 4.33401 27.9887C5.68928 25.0243 6.88007 21.9883 7.86344 18.9166C8.88616 15.8449 9.42612 12.6802 10.1234 9.63352C10.8028 6.56181 11.3106 3.5187 11.2534 0.164492L11.4036 0L11.5538 0.0750943C13.3203 3.07886 13.5277 6.75848 13.1987 10.1306C13.0485 11.8506 12.5837 13.4884 12.083 15.1118C11.4572 16.6852 10.8922 18.2694 10.1985 19.7927C8.88258 22.8644 7.37354 25.8288 5.71789 28.6967C4.01933 31.5432 2.25998 34.3324 0.261042 36.9714L0.042911 37L0 36.7998Z" fill="#3B3838"/>
</svg>
