<svg width="14" height="5" viewBox="0 0 14 5" fill="none" xmlns="http://www.w3.org/2000/svg">
<path d="M13.7828 1.18261C13.2292 0.0359452 10.8209 0 10.7598 0C9.49088 0.0287564 8.25795 0.31632 7.20834 0.575127C5.26729 1.06039 3.53831 1.81525 1.54334 2.80734L1.53974 2.81093C1.1731 2.99426 0.838805 3.18117 0.641105 3.41841L0.461378 3.54422C0.299624 3.65925 -0.182046 4.00073 0.0731669 4.56148C0.195381 4.83466 0.464972 5.00001 0.752536 5.00001L0.932263 4.97845C1.51458 4.83107 2.0969 4.6765 2.66483 4.51475C3.96606 4.15889 5.1954 3.81741 6.53975 3.63409C7.57498 3.4939 8.64256 3.41841 9.6742 3.34293C10.5656 3.28182 11.4607 3.21712 12.3485 3.11288C12.8877 3.05177 13.2975 2.85766 13.5635 2.53775C14.0667 1.93027 13.887 1.38749 13.7828 1.18261Z" fill="#5C2D17"/>
</svg>
