<svg width="14" height="5" viewBox="0 0 14 5" fill="none" xmlns="http://www.w3.org/2000/svg">
<path d="M13.4663 3.5457L13.2936 3.42331C13.092 3.18213 12.75 2.99494 12.3828 2.80416L12.3756 2.80056C10.6514 1.94743 8.76874 1.08351 6.70612 0.575951C5.64781 0.309574 4.41672 0.0287975 3.14962 0C3.07763 0 0.676636 0.0287969 0.115084 1.1843C0.0142922 1.38948 -0.165693 1.93304 0.341864 2.54498C0.604641 2.86176 1.01501 3.05614 1.55856 3.11733C2.44408 3.22172 3.33321 3.28292 4.22233 3.34771C5.26264 3.41971 6.33175 3.4953 7.37206 3.63569C8.71475 3.81927 9.94584 4.15764 11.2453 4.51401C11.8213 4.6724 12.4008 4.82719 12.9948 4.97837L13.1676 4.99997C13.4627 4.99997 13.7255 4.83439 13.8515 4.56441C14.0243 4.18644 13.8911 3.84807 13.4663 3.5457Z" fill="#5C2D17"/>
</svg>
