<svg width="10" height="36" viewBox="0 0 10 36" fill="none" xmlns="http://www.w3.org/2000/svg">
<path d="M8.83686 35.9358C7.31458 33.2264 6.04542 30.3957 4.81904 27.533C3.65683 24.6488 2.60157 21.7077 1.75309 18.6845C0.936687 15.6684 -0.0579653 12.5989 0.00264052 9.37255C0.031161 6.18538 0.516009 2.85918 2.15594 0.057041L2.37697 0L2.4554 0.142602C2.50175 3.31194 2.74061 6.21747 3.10068 9.18003C3.47501 12.1141 3.639 15.1301 4.1702 18.1248C4.68713 21.1123 5.43223 24.0784 6.28784 27.0232C7.10068 29.9786 8.05611 32.9091 9.1185 35.8003L9.03294 36L8.83686 35.9358Z" fill="#3B3838"/>
</svg>
