<svg width="89" height="128" viewBox="0 0 89 128" fill="none" xmlns="http://www.w3.org/2000/svg">
<path d="M74.5693 127.38C71.8462 128.164 68.6941 128.033 65.0242 127.898C63.6201 127.848 62.1415 127.795 60.5814 127.795C46.0439 127.799 31.4851 128.05 16.9476 127.813C4.05885 127.6 -0.118031 123.062 0.0025244 109.198C0.112442 96.0112 0.22236 82.8175 0.332278 69.6344C0.484745 51.5477 -1.70297 29.2627 8.03361 13.1261C17.1107 -1.91848 36.0059 -0.0108699 51.4618 0.173508C66.3822 0.354341 79.4908 5.14818 85.0647 20.1076C87.7666 27.3693 88.0183 35.3437 88.1814 43.1407C88.4048 53.5794 88.5183 64.018 88.5289 74.4602C88.5502 89.0083 88.4154 104.563 83.0153 118.225C80.7496 123.955 77.9981 126.391 74.5693 127.38Z" fill="#345B6E"/>
</svg>
