<svg width="79" height="106" viewBox="0 0 79 106" fill="none" xmlns="http://www.w3.org/2000/svg">
<path d="M75.3446 104.423C69.2726 105.016 62.8315 104.452 56.2165 102.688C49.1935 104.973 41.9965 106.02 34.8386 105.775C27.0951 101.073 19.3871 94.5719 12.0162 86.2358C6.33461 83.3613 5.15995 78.5597 0 73.7476C0.102916 50.3681 0.191635 23.3582 0.308746 0C3.82915 8.69456 7.10824 13.0702 13.0631 16.1399C20.9024 24.8132 29.1569 31.5666 37.4576 36.3823C44.5019 36.581 51.5889 35.6299 58.5303 33.5326C65.6102 35.4489 72.5162 36.0558 78.9998 35.3886C77.7719 58.2535 76.5547 81.2675 75.3446 104.423Z" fill="#57C5F2"/>
</svg>
