<svg width="9" height="7" viewBox="0 0 9 7" fill="none" xmlns="http://www.w3.org/2000/svg">
<path d="M7.95418 2.0594C7.64769 1.176 7.09241 0.703654 6.20902 0.404381C5.26432 0.083474 4.13574 -0.136474 3.15138 0.0978966C2.63577 0.220491 2.19227 0.55582 1.72353 0.891151C1.16103 1.29499 0.612969 1.70964 0.0036057 2.04498H0L0.104565 6.49081C0.104565 6.49081 0.237976 4.81055 1.36656 3.15553C1.36656 3.15553 2.78721 1.35989 4.64054 1.92238C4.64054 1.92238 6.23065 2.63992 7.00948 3.73605C7.20419 4.00648 7.96499 5.86341 7.92894 5.89947C8.13807 5.64347 8.44455 5.17112 8.88084 5.2216L8.99983 4.44637C8.87002 3.59182 8.23903 2.8815 7.95418 2.0594Z" fill="#ADE3D6"/>
</svg>
