<svg width="32" height="65" viewBox="0 0 32 65" fill="none" xmlns="http://www.w3.org/2000/svg">
<path d="M29.3456 16.6432L30.6816 14.618L28.9074 13.2432L26.6701 12.9392H22.3618L18.7991 14.4519L15.0846 13.6107L13.897 11.2533L12.8544 10.7479L10.1824 8.22087L9.29177 5.52417L5.49943 0.180251L5.47116 0.123702L5.45348 0L5.32271 0.328693C5.2591 0.487738 5.18487 0.685662 5.16013 0.745745C5.07178 0.968409 4.99049 1.19461 4.90213 1.41727C4.50628 2.43162 2.29379 2.47404 1.90501 3.48839C1.40313 4.77842 0.516013 8.49655 0 9.77951L3.64744 11.2533V14.4519L6.61628 18.4952L6.76472 21.5276L8.99842 24.7262L7.51047 28.773L8.99842 31.4697L7.3903 32.5866L7.51047 36.8596L7.36203 37.5311L9.88554 45.448V56.4009L8.86059 59.8823C11.377 59.9671 24.9736 63.0915 29.0381 65L27.377 59.4369L27.4159 53.7926L29.6425 51.8523L29.7909 24.0547L31.1269 21.6938L29.3456 16.6432Z" fill="#52A39B"/>
</svg>
