<svg width="35" height="13" viewBox="0 0 35 13" fill="none" xmlns="http://www.w3.org/2000/svg">
<path d="M32.8623 8.31194C32.9837 8.00502 33.0443 7.67668 33.0443 7.34477C33.0443 5.03213 30.0358 3.1549 26.3277 3.1549C25.7138 3.1549 25.125 3.20843 24.5575 3.30479C23.908 1.41685 21.217 0 17.9943 0C14.6681 0 11.9058 1.50964 11.3776 3.49394C11.2456 3.4868 11.1207 3.48324 10.9922 3.48324C7.2841 3.48324 4.27553 5.36404 4.27553 7.67311L4.2791 7.85156C1.61314 8.31194 0 8.91508 0 9.57533C0 11.0314 7.83728 12.202 17.4983 12.202C27.1592 12.202 35.0001 11.0314 35.0001 9.57533C35.0001 9.11851 34.2221 8.68668 32.8623 8.31194Z" fill="white"/>
</svg>
