<svg width="32" height="68" viewBox="0 0 32 68" fill="none" xmlns="http://www.w3.org/2000/svg">
<path d="M27.6021 54.158L29.8439 52.2045L29.9933 24.2181L31.3384 21.8411L29.545 16.7563L30.89 14.7173L29.1037 13.3331L26.8513 13.0271H22.5137L18.9269 14.5501L15.187 13.7032L13.9914 11.3298L12.9417 10.8209L10.2516 8.27671L9.3549 5.5617L5.53679 0.181476L5.50832 0.124542L5.49053 0L5.35887 0.330926C5.29482 0.491052 5.2201 0.690319 5.19519 0.750811C5.10623 0.974987 5.02439 1.20272 4.93543 1.4269C4.53689 2.44814 2.30937 2.49084 1.91795 3.51209C1.41266 4.81088 0.519518 8.55427 0 9.84595L3.67221 11.3298V14.5501L6.66123 18.6208L6.81068 21.6739L9.05955 24.8942L7.56149 28.9685L9.05955 31.6835L7.4405 32.808L7.56149 37.11L7.41204 37.7861L9.9527 45.7568V56.7841L8.30518 62.3814L4.5191 68H30.0004L27.563 59.8407L27.6021 54.158Z" fill="#65CBC0"/>
</svg>
