<svg width="32" height="61" viewBox="0 0 32 61" fill="none" xmlns="http://www.w3.org/2000/svg">
<path d="M29.7229 16.8633L31.0766 14.8113L29.2789 13.4183L27.012 13.1103H22.6467L19.037 14.643L15.2733 13.7907L14.07 11.4021L13.0136 10.89L10.3063 8.32957L9.4039 5.59722L5.56141 0.182635L5.53276 0.125338L5.51485 0L5.38235 0.33304C5.3179 0.494188 5.24269 0.694728 5.21762 0.755606C5.1281 0.981214 5.04573 1.2104 4.95621 1.43601C4.55513 2.46378 2.31337 2.50675 1.91946 3.53452C1.42169 4.83087 0.0752032 7.84971 0 9.88018L3.68493 11.4021V14.643L6.69303 18.7398L6.84343 21.8123L9.10667 25.0532L7.59904 29.1535L9.10667 31.8859L7.47728 33.0175L7.59904 37.347L7.44863 38.0274L10.0055 46.049V57.1468L9.18546 59.9436L8.85958 61L10.7611 59.8075L20.097 58.9588L18.0916 55.1163C18.0916 55.1163 23.9968 53.4618 24.935 53.5836L26.2708 56.4019L28.4624 53.8987L30.0237 52.5379L30.1741 24.3728L31.5278 21.9806L29.7229 16.8633Z" fill="#88D7D6"/>
</svg>
