<svg width="6" height="18" viewBox="0 0 6 18" fill="none" xmlns="http://www.w3.org/2000/svg">
<path d="M5.06317 2.61153C5.08093 2.27043 5.05251 1.93289 4.99921 1.60245C4.69364 1.47809 4.43782 1.28267 4.22108 0.980655C4.03987 0.731938 3.94039 0.493881 3.68812 0.319779C3.40387 0.131464 3.0379 0.0213181 2.66482 0C2.39124 0.156336 2.12475 0.337544 1.84051 0.479668C1.64864 0.572049 1.45677 0.643111 1.2578 0.707067L1.16897 0.731939L1.1512 0.749704L0.0142124 2.14252L0 3.48204C0.0142124 3.74852 0.0675084 4.01145 0.145677 4.26372L0.877615 6.60166C0.877615 6.60166 4.19266 16.7706 4.57284 18L4.57994 17.4848L3.13383 6.75444L4.43071 4.6439C4.80734 4.02566 5.02408 3.32925 5.06317 2.61153Z" fill="#419087"/>
</svg>
