<svg width="10" height="12" viewBox="0 0 10 12" fill="none" xmlns="http://www.w3.org/2000/svg">
<path d="M2.30512 11.9996C2.77747 11.981 5.26941 11.4529 6.02071 11.0437C6.79433 10.616 7.11791 10.2441 7.54563 9.61554L8.46802 8.44767C8.46802 8.44767 9.22304 7.71497 9.45363 6.90788C9.56893 6.50248 9.37553 5.90739 9.02219 5.90367C8.6763 5.89995 8.2337 6.00781 8.2337 6.00781V2.45959C8.2337 2.45959 7.74647 0.800776 6.00211 0.231722C4.25776 -0.337332 1.73607 0.131301 0.672344 1.75292C-0.391379 3.37454 0.125606 8.46255 0.125606 8.46255C0.125606 8.46255 0.754169 11.3487 1.1261 11.6202C1.36042 11.7913 2.04849 12.0108 2.30512 11.9996Z" fill="#57C3B5"/>
</svg>
