<svg width="6" height="27" viewBox="0 0 6 27" fill="none" xmlns="http://www.w3.org/2000/svg">
<path d="M5.07571 2.618C5.09352 2.27605 5.06502 1.93767 5.01159 1.60642C4.70527 1.48175 4.44881 1.28585 4.23154 0.983085C4.04988 0.733751 3.95015 0.495104 3.69725 0.320571C3.4123 0.13179 3.04543 0.0213709 2.67143 0C2.39716 0.156724 2.13002 0.338381 1.84506 0.480857C1.65272 0.573466 1.46038 0.644704 1.26091 0.708818L1.17187 0.733752L1.11488 0.769371C0.95459 0.918971 0.758685 1.00802 0.552095 1.02583L0.0142476 2.14783L0 3.49066C0.0142476 3.75781 0.0676757 4.02139 0.146038 4.27428L0.87979 6.61801L0.940342 20.1675L1.30009 26.6288C1.32146 27.0348 1.86644 27.1417 2.04097 26.7784L4.53074 21.5566L4.59129 17.5281L3.1416 6.77117L4.44169 4.6554C4.81925 4.03563 5.03653 3.3375 5.07571 2.618Z" fill="#57C3B5"/>
</svg>
