<svg width="56" height="125" viewBox="0 0 56 125" fill="none" xmlns="http://www.w3.org/2000/svg">
<path d="M34.9783 97.7863H18.8152L19.388 95.7086L19.42 95.5947L19.4947 95.3065C20.2561 92.4994 21.7432 86.5437 23.0525 81.2959C24.0807 77.208 25.0413 73.3478 25.5572 71.3874C25.8739 70.1777 26.1407 68.9574 26.3542 67.762L27.9943 43.7753L29.5918 67.762C29.8052 68.9574 30.0721 70.1777 30.3887 71.3874C30.9046 73.3478 31.8723 77.208 32.8934 81.2959C34.2027 86.5437 35.6898 92.4994 36.4441 95.3065L36.5259 95.5947L36.5615 95.7086L37.1308 97.7863H34.9783ZM55.9516 124.42C55.8875 124.278 49.3803 109.58 46.4629 102.145C41.9053 90.532 37.2304 78.0725 34.5585 64.6774C30.3425 43.5511 29.5206 21.3041 29.2609 0.40559C29.2609 0.17789 29.0723 0 28.8482 0H27.1369C26.9127 0 26.7313 0.17789 26.7277 0.40559C26.468 21.3041 25.6426 43.5511 21.4266 64.6774C18.7547 78.0725 14.0797 90.532 9.52573 102.145C6.60477 109.58 0.101102 124.278 0.0370615 124.42C-0.0198634 124.548 -0.012748 124.698 0.0690818 124.811C0.143796 124.929 0.271877 125 0.414189 125H8.34098C10.5895 119.973 13.6065 114.263 16.3532 111.644C19.3311 108.805 22.9209 107.542 27.9943 107.542C32.8045 107.542 36.7038 109.122 39.9236 112.37C42.8019 115.277 45.5734 121.047 47.3772 125C47.6619 125 48.0603 125 48.5371 125H55.578C55.7203 125 55.8448 124.929 55.9195 124.811C55.9978 124.698 56.0085 124.548 55.9516 124.42Z" fill="#B9AFAD"/>
</svg>
