<svg width="57" height="125" viewBox="0 0 57 125" fill="none" xmlns="http://www.w3.org/2000/svg">
<path d="M25.8991 81.729C26.5958 78.9636 27.2571 76.3042 27.7734 74.2779V74.8543L28.3427 72.4036L28.9121 74.8614V74.2779C29.4213 76.3042 30.0897 78.9636 30.7793 81.729C31.9746 86.5314 33.3255 91.9244 34.1282 94.9586H22.5537C23.3529 91.9244 24.7038 86.5314 25.8991 81.729ZM0.267505 125H11.4177L13.3273 123.67C15.6012 118.493 15.9336 115.593 18.5328 113.121C20.9729 110.805 23.9789 109.765 28.2861 109.755H28.3993C32.7031 109.765 35.7054 110.805 38.1491 113.121C40.7518 115.593 41.4768 118.086 43.7542 123.264L45.2607 125H56.4109L56.5311 124.851C56.7044 124.586 56.7327 124.264 56.6018 123.982C56.5382 123.833 50.0949 109.288 47.1774 101.858C42.6615 90.333 38.0218 77.9769 35.373 64.7014C31.193 43.7413 30.3761 21.6532 30.118 0.90531C30.1109 0.406683 29.7007 0 29.1985 0H27.4834C26.9848 0 26.571 0.406683 26.5675 0.90531C26.3058 21.6532 25.4924 43.7413 21.3054 64.7014C18.6602 77.9769 14.024 90.333 9.50096 101.858C6.58346 109.288 0.143732 123.833 0.0765408 123.982C-0.0472323 124.264 -0.0189413 124.586 0.147268 124.851L0.267505 125Z" fill="#4A4547"/>
</svg>
