<svg width="22" height="10" viewBox="0 0 22 10" fill="none" xmlns="http://www.w3.org/2000/svg">
<path d="M0 9.66437C0.297584 8.97355 0.591624 8.27919 0.871494 7.599L1.03091 7.68048L1.14428 7.6486L7.18451 3.63122C7.58837 4.14491 7.96744 4.63734 8.3217 5.0908C2.95458 6.96841 0.297584 9.43055 0 9.66437ZM1.02737 7.23056C1.92366 5.09788 2.75265 3.07857 3.40449 1.42061C3.55329 1.03446 3.70562 0.644764 3.85441 0.258614C3.88984 0.17359 3.92527 0.0885662 3.95715 0H4.3185C5.14394 1.04154 6.06857 2.20353 6.93298 3.3053L1.02737 7.23056ZM8.72911 4.94909C8.35359 4.46021 7.94618 3.93589 7.52815 3.40095L12.6119 0.0247986C12.1371 1.46666 11.6695 2.87664 11.2196 4.2193C10.3375 4.44249 9.50495 4.68694 8.72911 4.94909ZM11.6908 4.09885C12.1301 2.78453 12.5871 1.40643 13.0476 0H21.9999V2.94749C21.9645 2.94749 21.9291 2.94749 21.8972 2.94749C17.9294 2.94749 14.5391 3.41158 11.6908 4.09885ZM7.27308 3.07857C6.37678 1.93075 5.47341 0.793555 4.84281 0H11.9069L7.27308 3.07857Z" fill="#897876"/>
</svg>
