<svg width="7" height="63" viewBox="0 0 7 63" fill="none" xmlns="http://www.w3.org/2000/svg">
<path d="M4.52211 63L4.37624 62.9466L0.0640425 58.9084L0 58.7483L0.0782742 58.5989L4.84232 54.7563L1.41605 50.6754L1.43384 50.3908L5.40803 46.751L2.23081 42.453V42.204L5.71046 37.5253L3.18433 33.5405L3.17366 33.3341L5.72824 28.4206L3.71446 23.4431L3.71091 23.2937L5.73536 17.7611L4.05958 14.1392L4.05602 13.9826L5.73892 9.46761L4.26238 5.36178L4.26594 5.20523L5.78161 1.83588L4.40114 0.288191L4.41537 0L4.70712 0.0142317L6.17654 1.6651L6.21568 1.8857L4.67154 5.30129L6.15519 9.39645V9.54233L4.46518 14.0431L6.14452 17.6615L6.15519 17.8216L4.12718 23.3613L6.14808 28.3495L6.14096 28.5238L3.58994 33.4195L6.13029 37.4221L6.12317 37.6605L2.65065 42.325L5.85277 46.6549L5.82431 46.9253L1.86079 50.558L5.29774 54.6567L5.34399 54.8061L5.26216 54.9484L0.519456 58.7732L4.66087 62.6442L4.67154 62.9395L4.52211 63Z" fill="#4A4547"/>
</svg>
