<svg width="48" height="8" viewBox="0 0 48 8" fill="none" xmlns="http://www.w3.org/2000/svg">
<path d="M41.8155 5.86015C42.4888 5.77109 43.1585 5.67847 43.8282 5.58941C40.2801 6.12377 36.7747 6.41232 33.1873 6.26626C30.284 6.15227 27.3984 5.79603 24.5093 5.46116C21.0538 5.05861 17.584 4.63825 14.1605 3.9792C12.7783 3.71915 11.4674 3.39141 10.1635 2.86417C8.80626 2.31556 7.47392 1.70639 6.13445 1.11503C5.82809 0.997472 5.5146 0.890601 5.19042 0.797978C4.52781 0.605609 3.91508 0.334865 3.35578 0H2.2265L0 7.96197H47.9998L47.127 4.85199C45.3921 5.3436 43.6537 5.61791 41.8155 5.86015Z" fill="#79685C"/>
</svg>
