<svg width="28" height="125" viewBox="0 0 28 125" fill="none" xmlns="http://www.w3.org/2000/svg">
<path d="M28.0001 97.0908H18.6813L19.2501 95.0278L19.2819 94.9148L19.356 94.6286C20.112 91.8415 21.5886 85.9281 22.8885 80.7176C23.9094 76.6588 24.8632 72.826 25.3754 70.8796C25.6898 69.6786 25.9548 68.4669 26.1667 67.28L27.7952 43.4639L28.0001 46.5266V0H26.9439C26.7213 0 26.5412 0.176625 26.5376 0.402705C26.2797 21.1526 25.4602 43.2413 21.2742 64.2173C18.6213 77.5172 13.9796 89.888 9.45798 101.418C6.5578 108.801 0.100382 123.394 0.0367979 123.535C-0.0197221 123.662 -0.0126574 123.811 0.0685904 123.924C0.142774 124.04 0.269943 124.111 0.411243 124.111H7.39853L9.56749 124.04C11.8106 119.052 13.5098 113.45 16.2368 110.85C19.1936 108.031 22.7578 106.777 27.7952 106.777L28.0001 106.78V97.0908Z" fill="#988F8D"/>
</svg>
