<svg width="6" height="63" viewBox="0 0 6 63" fill="none" xmlns="http://www.w3.org/2000/svg">
<path d="M1.69347 63L1.54761 62.9395V62.6478L5.46465 58.7378L0.946352 54.9418L0.91789 54.6536L4.35108 50.5622L0.387791 46.9298L0.359329 46.6594L3.35848 42.4578L0.0818274 37.6477L0.0782697 37.4236L2.62203 33.4176L0.0711543 28.5257L0.0640388 28.355L2.08838 23.3635L0.0604811 17.8241L0.0640388 17.6676L1.74328 14.0459L0.0604811 9.54179V9.39592L1.53693 5.30099L0 1.88915L0.0320194 1.66501L1.50491 0.0177886L1.79665 0L1.80732 0.288175L0.426926 1.83578L1.94963 5.20849L1.95318 5.36147L0.469618 9.46707L2.15953 13.9854L2.15242 14.1419L0.476734 17.7637L2.50463 23.2923L2.49751 23.4418L0.480291 28.419L3.03829 33.3322L3.03117 33.5386L0.49808 37.5339L3.77829 42.3475V42.5858L0.800486 46.7484L4.77445 50.3915L4.79224 50.6725L1.36616 54.7603L5.89869 58.5635L5.9734 58.7129L5.91292 58.8659L1.83578 62.9395L1.69347 63Z" fill="#4A4547"/>
</svg>
