<svg width="30" height="11" viewBox="0 0 30 11" fill="none" xmlns="http://www.w3.org/2000/svg">
<path d="M28.1704 7.12834C28.2668 6.86036 28.324 6.58166 28.324 6.29581C28.324 4.31631 25.7478 2.70484 22.5677 2.70484C22.0425 2.70484 21.5387 2.75129 21.0563 2.8299C20.4953 1.21128 18.1907 0 15.4251 0C12.5738 0 10.2084 1.29704 9.75101 2.99426C9.63667 2.99069 9.52947 2.99069 9.42228 2.99069C6.24222 2.99069 3.66601 4.59501 3.66601 6.58166L3.67315 6.73173C1.38637 7.12834 0 7.64287 0 8.211C0 9.45086 6.71387 10.4621 14.9963 10.4621C23.2859 10.4621 29.9998 9.45086 29.9998 8.211C29.9998 7.81795 29.3352 7.44635 28.1704 7.12834Z" fill="white"/>
</svg>
