<svg width="19" height="5" viewBox="0 0 19 5" fill="none" xmlns="http://www.w3.org/2000/svg">
<path d="M14.6064 4.73228H7.60291V0H14.9675V4.15145C14.8484 4.33389 14.7367 4.5126 14.625 4.69877C14.6213 4.71366 14.6101 4.72111 14.6064 4.73228ZM13.024 1.1356L10.0826 3.86103L10.2278 4.01368L13.1655 1.29197L13.024 1.1356ZM11.8735 0.923371L8.93585 3.64508L9.08105 3.80146L12.0262 1.07975L11.8735 0.923371ZM6.79124 4.73228H0V0H6.79124V4.73228ZM5.4248 1.1356L2.48342 3.86103L2.63607 4.01368L5.57373 1.29197L5.4248 1.1356ZM4.27804 0.923371L1.34038 3.64508L1.48186 3.80146L4.42697 1.07975L4.27804 0.923371ZM15.7755 3.05308V0H18.9998C17.8121 0.893585 16.6989 1.90631 15.7755 3.05308Z" fill="#90C0CC"/>
</svg>
