<svg width="32" height="12" viewBox="0 0 32 12" fill="none" xmlns="http://www.w3.org/2000/svg">
<path d="M30.0407 7.60109C30.1537 7.31866 30.2137 7.0221 30.2137 6.71142C30.2137 4.6002 27.4635 2.88792 24.0743 2.88792C23.5129 2.88792 22.9727 2.93382 22.4538 3.02208C21.8607 1.29568 19.3999 0 16.4555 0C13.4122 0 10.888 1.38041 10.4043 3.19154C10.2878 3.18801 10.1677 3.18801 10.0512 3.18801C6.65846 3.18801 3.91176 4.90029 3.91176 7.01857L3.91882 7.18097C1.47574 7.60109 0 8.15185 0 8.75203C0 10.0795 7.16332 11.1598 15.9965 11.1598C24.8368 11.1598 32.0002 10.0795 32.0002 8.75203C32.0002 8.33543 31.2905 7.94355 30.0407 7.60109Z" fill="white"/>
</svg>
