<svg width="32" height="10" viewBox="0 0 32 10" fill="none" xmlns="http://www.w3.org/2000/svg">
<path d="M0.68752 0L0.651237 0.210442L0.622211 0.413628L0.00176832 4.11814C-0.012744 4.23062 0.0634497 4.33947 0.179556 4.36124C0.292033 4.37938 0.397255 4.30319 0.415397 4.18708L1.02858 0.486195L2.99513 0.809115L2.38195 4.51363C2.36743 4.62611 2.43637 4.73496 2.5561 4.7531C2.67221 4.77487 2.78106 4.69142 2.79557 4.57894L3.40876 0.874425L5.37168 1.2046L4.75849 4.90549C4.74035 5.02159 4.81655 5.13044 4.92902 5.14496C5.04513 5.16672 5.15398 5.0869 5.17212 4.97442L5.78531 1.26991L7.74823 1.59283L7.13504 5.30097C7.1169 5.41345 7.1931 5.51867 7.3092 5.54044C7.42168 5.55858 7.53053 5.48239 7.54504 5.36628L8.16186 1.6654L10.1284 1.98832L9.51522 5.6892C9.48982 5.80531 9.56964 5.91416 9.68575 5.9323C9.79823 5.95407 9.90708 5.87788 9.92885 5.76177L10.542 2.05363L12.505 2.38381L11.8918 6.08469C11.8664 6.2008 11.9498 6.30965 12.0623 6.32779C12.1784 6.34593 12.28 6.26973 12.3054 6.15363L12.9186 2.44911L14.8815 2.77566L14.2647 6.48018C14.2465 6.59265 14.3264 6.69788 14.4425 6.72327C14.555 6.74142 14.6602 6.66159 14.6783 6.54549L15.2915 2.8446L17.2544 3.16752L16.6412 6.87566C16.6231 6.98814 16.6993 7.09699 16.819 7.1115C16.9315 7.12965 17.0367 7.05345 17.0549 6.94097L17.6717 3.23646L19.6346 3.56301L19.0214 7.26389C19.0033 7.38 19.0758 7.48885 19.1919 7.50699C19.3044 7.52513 19.4169 7.44894 19.435 7.33646L20.0482 3.62832L22.0111 3.95487L21.398 7.65938C21.3798 7.77186 21.456 7.88071 21.5685 7.90248C21.6846 7.92062 21.7934 7.84442 21.808 7.72469L22.4248 4.02381L24.3913 4.35035L23.7745 8.05487C23.7564 8.16734 23.8289 8.27257 23.9414 8.29434C24.0611 8.31611 24.17 8.23265 24.1881 8.12018L24.7977 4.41566L26.7642 4.73858L26.1547 8.44673C26.1365 8.56283 26.2127 8.67168 26.3252 8.68619C26.4377 8.70434 26.5429 8.62814 26.5683 8.51566L27.1779 4.81115L29.1444 5.13407L28.5276 8.83858C28.5095 8.95106 28.5893 9.05991 28.6981 9.08168C28.8106 9.09982 28.9231 9.02363 28.9412 8.90752L29.5544 5.20664L31.5173 5.52956L30.9042 9.23407C30.886 9.34655 30.9622 9.4554 31.0747 9.47354C31.1908 9.49531 31.2996 9.41911 31.3178 9.29938L31.931 5.59487L31.9636 5.39168L31.9999 5.18124L0.68752 0Z" fill="#6E6B6C"/>
</svg>
