<svg width="24" height="9" viewBox="0 0 24 9" fill="none" xmlns="http://www.w3.org/2000/svg">
<path d="M22.5362 5.70156C22.6144 5.48841 22.6641 5.26461 22.6641 5.03371C22.6641 3.44935 20.5966 2.16339 18.0567 2.16339C17.634 2.16339 17.229 2.20247 16.8418 2.26641C16.3942 0.966245 14.547 0 12.3445 0C10.0639 0 8.1669 1.03729 7.80101 2.39785L7.53813 2.39075C4.99819 2.39075 2.93426 3.6767 2.93426 5.26461L2.93781 5.38539C1.10834 5.70156 0 6.11363 0 6.56833C0 7.563 5.37474 8.36939 11.9999 8.36939C18.6251 8.36939 23.9998 7.563 23.9998 6.56833C23.9998 6.24862 23.467 5.95733 22.5362 5.70156Z" fill="white"/>
</svg>
